Exo2-ThinItalic.ufo
<glyph name="numbersign" format="2">
  <advance width="662"/>
  <unicode hex="0023"/>
  <outline>
    <contour>
      <point x="585" y="690" type="line"/>
      <point x="562" y="690" type="line"/>
      <point x="345" y="0" type="line"/>
      <point x="368" y="0" type="line"/>
    </contour>
    <contour>
      <point x="557" y="250" type="line"/>
      <point x="56" y="250" type="line"/>
      <point x="49" y="228" type="line"/>
      <point x="550" y="228" type="line"/>
    </contour>
    <contour>
      <point x="334" y="690" type="line"/>
      <point x="311" y="690" type="line"/>
      <point x="94" y="0" type="line"/>
      <point x="117" y="0" type="line"/>
    </contour>
    <contour>
      <point x="633" y="492" type="line"/>
      <point x="132" y="492" type="line"/>
      <point x="125" y="470" type="line"/>
      <point x="626" y="470" type="line"/>
    </contour>
  </outline>
</glyph>
<glyph name="dollar" format="2">
  <advance width="562"/>
  <unicode hex="0024"/>
  <outline>
    <contour>
      <point x="334" y="701" type="curve" smooth="yes"/>
      <point x="212" y="703"/>
      <point x="122" y="695"/>
      <point x="102" y="546" type="curve" smooth="yes"/>
      <point x="91" y="454"/>
      <point x="116" y="409"/>
      <point x="213" y="367" type="curve" smooth="yes"/>
      <point x="363" y="304" type="line" smooth="yes"/>
      <point x="447" y="267"/>
      <point x="466" y="236"/>
      <point x="454" y="151" type="curve" smooth="yes"/>
      <point x="434" y="29"/>
      <point x="370" y="14"/>
      <point x="246" y="12" type="curve" smooth="yes"/>
      <point x="175" y="11"/>
      <point x="119" y="13"/>
      <point x="46" y="19" type="curve"/>
      <point x="42" y="0" type="line"/>
      <point x="126" y="-10"/>
      <point x="194" y="-11"/>
      <point x="232" y="-11" type="curve" smooth="yes"/>
      <point x="372" y="-11"/>
      <point x="458" y="1"/>
      <point x="480" y="147" type="curve" smooth="yes"/>
      <point x="493" y="246"/>
      <point x="468" y="285"/>
      <point x="364" y="330" type="curve" smooth="yes"/>
      <point x="214" y="393" type="line" smooth="yes"/>
      <point x="134" y="429"/>
      <point x="120" y="469"/>
      <point x="128" y="542" type="curve" smooth="yes"/>
      <point x="145" y="675"/>
      <point x="224" y="678"/>
      <point x="316" y="678" type="curve" smooth="yes"/>
      <point x="392" y="678"/>
      <point x="427" y="676"/>
      <point x="516" y="670" type="curve"/>
      <point x="520" y="689" type="line"/>
      <point x="461" y="696"/>
      <point x="399" y="700"/>
    </contour>
    <contour>
      <point x="282" y="349" type="line"/>
      <point x="188" y="-135" type="line"/>
      <point x="209" y="-135" type="line"/>
      <point x="303" y="345" type="line"/>
    </contour>
    <contour>
      <point x="391" y="804" type="line"/>
      <point x="370" y="804" type="line"/>
      <point x="282" y="349" type="line"/>
      <point x="303" y="345" type="line"/>
    </contour>
  </outline>
</glyph>
<glyph name="parenleft" format="2">
  <advance width="352"/>
  <unicode hex="0028"/>
  <outline>
    <contour>
      <point x="374" y="790" type="line"/>
      <point x="201" y="714"/>
      <point x="106" y="564"/>
      <point x="71" y="318" type="curve" smooth="yes"/>
      <point x="35" y="65"/>
      <point x="92" y="-90"/>
      <point x="242" y="-165" type="curve"/>
      <point x="247" y="-147" type="line"/>
      <point x="111" y="-67"/>
      <point x="64" y="76"/>
      <point x="97" y="311" type="curve" smooth="yes"/>
      <point x="131" y="551"/>
      <point x="220" y="696"/>
      <point x="378" y="772" type="curve"/>
    </contour>
  </outline>
</glyph>
<glyph name="hyphen" format="2">
  <advance width="481"/>
  <unicode hex="002D"/>
  <outline>
    <contour>
      <point x="392" y="262" type="line"/>
      <point x="81" y="262" type="line"/>
      <point x="78" y="240" type="line"/>
      <point x="389" y="240" type="line"/>
    </contour>
  </outline>
</glyph>
<glyph name="period" format="2">
  <advance width="205"/>
  <unicode hex="002E"/>
  <outline>
    <contour>
      <point x="80" y="86" type="curve" smooth="yes"/>
      <point x="69" y="86" type="line" smooth="yes"/>
      <point x="61" y="86"/>
      <point x="57" y="82"/>
      <point x="56" y="74" type="curve" smooth="yes"/>
      <point x="47" y="13" type="line" smooth="yes"/>
      <point x="46" y="5"/>
      <point x="50" y="0"/>
      <point x="58" y="0" type="curve" smooth="yes"/>
      <point x="68" y="0" type="line" smooth="yes"/>
      <point x="76" y="0"/>
      <point x="80" y="3"/>
      <point x="81" y="11" type="curve" smooth="yes"/>
      <point x="90" y="73" type="line" smooth="yes"/>
      <point x="91" y="81"/>
      <point x="90" y="86"/>
    </contour>
  </outline>
</glyph>
<glyph name="slash" format="2">
  <advance width="497"/>
  <unicode hex="002F"/>
  <outline>
    <contour>
      <point x="513" y="690" type="line"/>
      <point x="486" y="690" type="line"/>
      <point x="-10" y="-59" type="line"/>
      <point x="17" y="-59" type="line"/>
    </contour>
  </outline>
</glyph>
<glyph name="two" format="2">
  <advance width="548"/>
  <unicode hex="0032"/>
  <outline>
    <contour>
      <point x="317" y="702" type="curve" smooth="yes"/>
      <point x="262" y="702"/>
      <point x="216" y="698"/>
      <point x="118" y="675" type="curve"/>
      <point x="124" y="657" type="line"/>
      <point x="211" y="675"/>
      <point x="259" y="679"/>
      <point x="323" y="679" type="curve" smooth="yes"/>
      <point x="414" y="679"/>
      <point x="476" y="671"/>
      <point x="476" y="592" type="curve" smooth="yes"/>
      <point x="476" y="492"/>
      <point x="397" y="396"/>
      <point x="306" y="305" type="curve" smooth="yes"/>
      <point x="27" y="28" type="line" smooth="yes"/>
      <point x="23" y="24"/>
      <point x="21" y="20"/>
      <point x="20" y="15" type="curve" smooth="yes"/>
      <point x="18" y="0" type="line"/>
      <point x="452" y="0" type="line"/>
      <point x="455" y="22" type="line"/>
      <point x="172" y="22" type="line" smooth="yes"/>
      <point x="132" y="22"/>
      <point x="95" y="22"/>
      <point x="55" y="22" type="curve"/>
      <point x="325" y="290" type="line" smooth="yes"/>
      <point x="422" y="387"/>
      <point x="502" y="478"/>
      <point x="502" y="593" type="curve" smooth="yes"/>
      <point x="502" y="686"/>
      <point x="435" y="702"/>
    </contour>
  </outline>
</glyph>
<glyph name="four" format="2">
  <advance width="590"/>
  <unicode hex="0034"/>
  <outline>
    <contour>
      <point x="362" y="690" type="line"/>
      <point x="333" y="690" type="line"/>
      <point x="54" y="275" type="line" smooth="yes"/>
      <point x="29" y="238"/>
      <point x="49" y="196"/>
      <point x="90" y="196" type="curve" smooth="yes"/>
      <point x="427" y="196" type="line"/>
      <point x="524" y="200" type="line"/>
      <point x="527" y="218" type="line"/>
      <point x="97" y="218" type="line" smooth="yes"/>
      <point x="71" y="218"/>
      <point x="61" y="242"/>
      <point x="77" y="266" type="curve" smooth="yes"/>
    </contour>
    <contour>
      <point x="493" y="560" type="line"/>
      <point x="475" y="560" type="line"/>
      <point x="452" y="443" type="line"/>
      <point x="389" y="0" type="line"/>
      <point x="414" y="0" type="line"/>
    </contour>
  </outline>
</glyph>
<glyph name="seven" format="2">
  <advance width="499"/>
  <unicode hex="0037"/>
  <outline>
    <contour>
      <point x="473" y="690" type="curve" smooth="yes"/>
      <point x="97" y="690" type="line"/>
      <point x="96" y="668" type="line"/>
      <point x="483" y="669" type="line"/>
      <point x="475" y="656"/>
      <point x="468" y="644"/>
      <point x="462" y="631" type="curve" smooth="yes"/>
      <point x="156" y="0" type="line"/>
      <point x="184" y="0" type="line"/>
      <point x="498" y="648" type="line" smooth="yes"/>
      <point x="513" y="678"/>
      <point x="506" y="690"/>
    </contour>
  </outline>
</glyph>
<glyph name="nine" format="2">
  <advance width="564"/>
  <unicode hex="0039"/>
  <outline>
    <contour>
      <point x="327" y="702" type="curve" smooth="yes"/>
      <point x="171" y="702"/>
      <point x="115" y="616"/>
      <point x="93" y="476" type="curve" smooth="yes"/>
      <point x="67" y="311"/>
      <point x="112" y="242"/>
      <point x="252" y="249" type="curve" smooth="yes"/>
      <point x="346" y="254"/>
      <point x="412" y="289"/>
      <point x="480" y="384" type="curve"/>
      <point x="478" y="401" type="line"/>
      <point x="397" y="305"/>
      <point x="336" y="275"/>
      <point x="253" y="271" type="curve" smooth="yes"/>
      <point x="141" y="266"/>
      <point x="94" y="313"/>
      <point x="118" y="470" type="curve" smooth="yes"/>
      <point x="139" y="605"/>
      <point x="189" y="680"/>
      <point x="327" y="680" type="curve" smooth="yes"/>
      <point x="491" y="680"/>
      <point x="501" y="569"/>
      <point x="466" y="353" type="curve" smooth="yes"/>
      <point x="417" y="57"/>
      <point x="359" y="10"/>
      <point x="180" y="10" type="curve" smooth="yes"/>
      <point x="135" y="10"/>
      <point x="110" y="12"/>
      <point x="65" y="18" type="curve"/>
      <point x="57" y="0" type="line"/>
      <point x="111" y="-11"/>
      <point x="161" y="-12"/>
      <point x="190" y="-12" type="curve" smooth="yes"/>
      <point x="370" y="-12"/>
      <point x="441" y="39"/>
      <point x="492" y="352" type="curve" smooth="yes"/>
      <point x="530" y="586"/>
      <point x="512" y="702"/>
    </contour>
  </outline>
</glyph>
<glyph name="at" format="2">
  <advance width="739"/>
  <unicode hex="0040"/>
  <outline>
    <contour>
      <point x="418" y="613" type="curve" smooth="yes"/>
      <point x="324" y="613"/>
      <point x="209" y="611"/>
      <point x="129" y="609" type="curve"/>
      <point x="127" y="591" type="line"/>
      <point x="419" y="591" type="line" smooth="yes"/>
      <point x="634" y="591"/>
      <point x="660" y="577"/>
      <point x="622" y="302" type="curve" smooth="yes"/>
      <point x="588" y="59"/>
      <point x="571" y="10"/>
      <point x="482" y="10" type="curve" smooth="yes"/>
      <point x="440" y="10"/>
      <point x="427" y="31"/>
      <point x="434" y="82" type="curve" smooth="yes"/>
      <point x="484" y="429" type="line"/>
      <point x="459" y="429" type="line"/>
      <point x="410" y="84" type="line" smooth="yes"/>
      <point x="402" y="26"/>
      <point x="421" y="-12"/>
      <point x="481" y="-12" type="curve" smooth="yes"/>
      <point x="595" y="-12"/>
      <point x="611" y="67"/>
      <point x="645" y="299" type="curve" smooth="yes"/>
      <point x="681" y="580"/>
      <point x="660" y="613"/>
    </contour>
    <contour>
      <point x="320" y="441" type="curve" smooth="yes"/>
      <point x="146" y="441"/>
      <point x="102" y="397"/>
      <point x="71" y="222" type="curve" smooth="yes"/>
      <point x="52" y="117"/>
      <point x="42" y="-12"/>
      <point x="177" y="-12" type="curve" smooth="yes"/>
      <point x="257" y="-12"/>
      <point x="345" y="33"/>
      <point x="424" y="128" type="curve"/>
      <point x="424" y="155" type="line"/>
      <point x="347" y="63"/>
      <point x="259" y="10"/>
      <point x="179" y="10" type="curve" smooth="yes"/>
      <point x="73" y="10"/>
      <point x="75" y="104"/>
      <point x="95" y="218" type="curve" smooth="yes"/>
      <point x="124" y="383"/>
      <point x="162" y="419"/>
      <point x="325" y="419" type="curve" smooth="yes"/>
      <point x="364" y="419"/>
      <point x="398" y="417"/>
      <point x="474" y="411" type="curve"/>
      <point x="484" y="429" type="line"/>
      <point x="415" y="438"/>
      <point x="366" y="441"/>
    </contour>
  </outline>
</glyph>
<glyph name="B" format="2">
  <advance width="610"/>
  <unicode hex="0042"/>
  <outline>
    <contour>
      <point x="353" y="698" type="curve" smooth="yes"/>
      <point x="264" y="698"/>
      <point x="222" y="697"/>
      <point x="159" y="690" type="curve"/>
      <point x="172" y="675" type="line"/>
      <point x="196" y="675"/>
      <point x="264" y="675"/>
      <point x="353" y="675" type="curve" smooth="yes"/>
      <point x="497" y="675"/>
      <point x="543" y="647"/>
      <point x="525" y="520" type="curve" smooth="yes"/>
      <point x="508" y="399"/>
      <point x="456" y="369"/>
      <point x="327" y="368" type="curve" smooth="yes"/>
      <point x="127" y="368" type="line"/>
      <point x="124" y="347" type="line"/>
      <point x="326" y="347" type="line" smooth="yes"/>
      <point x="470" y="345"/>
      <point x="516" y="310"/>
      <point x="497" y="174" type="curve" smooth="yes"/>
      <point x="479" y="45"/>
      <point x="424" y="15"/>
      <point x="286" y="15" type="curve" smooth="yes"/>
      <point x="185" y="15"/>
      <point x="106" y="16"/>
      <point x="78" y="18" type="curve"/>
      <point x="62" y="0" type="line"/>
      <point x="132" y="-7"/>
      <point x="182" y="-8"/>
      <point x="287" y="-8" type="curve" smooth="yes"/>
      <point x="444" y="-8"/>
      <point x="502" y="29"/>
      <point x="522" y="170" type="curve" smooth="yes"/>
      <point x="538" y="281"/>
      <point x="512" y="347"/>
      <point x="412" y="356" type="curve"/>
      <point x="412" y="360" type="line"/>
      <point x="496" y="368"/>
      <point x="537" y="418"/>
      <point x="551" y="516" type="curve" smooth="yes"/>
      <point x="571" y="658"/>
      <point x="518" y="698"/>
    </contour>
    <contour>
      <point x="184" y="690" type="line"/>
      <point x="159" y="690" type="line"/>
      <point x="62" y="0" type="line"/>
      <point x="87" y="0" type="line"/>
    </contour>
  </outline>
</glyph>
<glyph name="D" format="2">
  <advance width="658"/>
  <unicode hex="0044"/>
  <anchor x="275" y="-12" name="bottom"/>
  <anchor x="129" y="345" name="center"/>
  <anchor x="378" y="740" name="top"/>
  <outline>
    <contour>
      <point x="388" y="699" type="curve" smooth="yes"/>
      <point x="302" y="699"/>
      <point x="226" y="695"/>
      <point x="159" y="690" type="curve"/>
      <point x="168" y="672" type="line"/>
      <point x="233" y="674"/>
      <point x="301" y="676"/>
      <point x="388" y="676" type="curve" smooth="yes"/>
      <point x="553" y="676"/>
      <point x="599" y="591"/>
      <point x="565" y="347" type="curve" smooth="yes"/>
      <point x="530" y="95"/>
      <point x="458" y="14"/>
      <point x="291" y="14" type="curve" smooth="yes"/>
      <point x="207" y="14"/>
      <point x="141" y="16"/>
      <point x="77" y="17" type="curve"/>
      <point x="62" y="0" type="line"/>
      <point x="129" y="-5"/>
      <point x="203" y="-9"/>
      <point x="292" y="-9" type="curve" smooth="yes"/>
      <point x="476" y="-9"/>
      <point x="554" y="80"/>
      <point x="590" y="343" type="curve" smooth="yes"/>
      <point x="626" y="604"/>
      <point x="574" y="699"/>
    </contour>
    <contour>
      <point x="184" y="690" type="line"/>
      <point x="159" y="690" type="line"/>
      <point x="62" y="0" type="line"/>
      <point x="87" y="0" type="line"/>
    </contour>
  </outline>
</glyph>
<glyph name="E" format="2">
  <advance width="548"/>
  <unicode hex="0045"/>
  <guideline x="162" y="586" angle="0"/>
  <anchor x="265" y="0" name="bottom"/>
  <anchor x="453" y="4" name="ogonek"/>
  <anchor x="367" y="765" name="top"/>
  <outline>
    <contour>
      <point x="252" y="690" type="curve" smooth="yes"/>
      <point x="187" y="690"/>
      <point x="146" y="648"/>
      <point x="138" y="589" type="curve" smooth="yes"/>
      <point x="70" y="103" type="line" smooth="yes"/>
      <point x="61" y="44"/>
      <point x="99" y="0"/>
      <point x="159" y="0" type="curve" smooth="yes"/>
      <point x="256" y="0"/>
      <point x="354" y="0"/>
      <point x="453" y="4" type="curve"/>
      <point x="452" y="22" type="line"/>
      <point x="164" y="22" type="line" smooth="yes"/>
      <point x="116" y="22"/>
      <point x="88" y="55"/>
      <point x="95" y="103" type="curve" smooth="yes"/>
      <point x="162" y="585" type="line" smooth="yes"/>
      <point x="169" y="635"/>
      <point x="202" y="668"/>
      <point x="257" y="668" type="curve" smooth="yes"/>
      <point x="543" y="668" type="line"/>
      <point x="547" y="686" type="line"/>
      <point x="449" y="690"/>
      <point x="351" y="690"/>
    </contour>
    <contour>
      <point x="126" y="381" type="line"/>
      <point x="123" y="359" type="line"/>
      <point x="459" y="360" type="line"/>
      <point x="462" y="380" type="line"/>
    </contour>
  </outline>
</glyph>
<glyph name="F" format="2">
  <advance width="530"/>
  <unicode hex="0046"/>
  <outline>
    <contour>
      <point x="256" y="690" type="curve" smooth="yes"/>
      <point x="195" y="690"/>
      <point x="151" y="651"/>
      <point x="142" y="589" type="curve" smooth="yes"/>
      <point x="59" y="0" type="line"/>
      <point x="84" y="0" type="line"/>
      <point x="166" y="585" type="line" smooth="yes"/>
      <point x="174" y="639"/>
      <point x="211" y="668"/>
      <point x="261" y="668" type="curve" smooth="yes"/>
      <point x="540" y="668" type="line"/>
      <point x="544" y="686" type="line"/>
      <point x="448" y="690"/>
      <point x="353" y="690"/>
    </contour>
    <contour>
      <point x="129" y="377" type="line"/>
      <point x="126" y="355" type="line"/>
      <point x="455" y="356" type="line"/>
      <point x="458" y="376" type="line"/>
    </contour>
  </outline>
</glyph>
<glyph name="H" format="2">
  <advance width="657"/>
  <unicode hex="0048"/>
  <anchor x="295" y="0" name="bottom"/>
  <anchor x="337" y="345" name="center"/>
  <anchor x="394" y="740" name="top"/>
  <outline>
    <contour>
      <point x="184" y="690" type="line"/>
      <point x="159" y="690" type="line"/>
      <point x="62" y="0" type="line"/>
      <point x="87" y="0" type="line"/>
    </contour>
    <contour>
      <point x="553" y="381" type="line"/>
      <point x="133" y="381" type="line"/>
      <point x="130" y="359" type="line"/>
      <point x="550" y="359" type="line"/>
    </contour>
    <contour>
      <point x="610" y="690" type="line"/>
      <point x="585" y="690" type="line"/>
      <point x="488" y="0" type="line"/>
      <point x="513" y="0" type="line"/>
    </contour>
  </outline>
</glyph>
<glyph name="K" format="2">
  <advance width="559"/>
  <unicode hex="004B"/>
  <guideline x="521" y="359" angle="270"/>
  <anchor x="244" y="0" name="bottom"/>
  <anchor x="354" y="740" name="top"/>
  <outline>
    <contour>
      <point x="568" y="690" type="line"/>
      <point x="537" y="690" type="line"/>
      <point x="239" y="361" type="line"/>
      <point x="460" y="0" type="line"/>
      <point x="488" y="0" type="line"/>
      <point x="287" y="331" type="line" smooth="yes"/>
      <point x="281" y="341"/>
      <point x="275" y="350"/>
      <point x="268" y="359" type="curve"/>
      <point x="268" y="361" type="line"/>
      <point x="280" y="372"/>
      <point x="293" y="384"/>
      <point x="301" y="393" type="curve" smooth="yes"/>
    </contour>
    <contour>
      <point x="183" y="690" type="line"/>
      <point x="159" y="690" type="line"/>
      <point x="62" y="0" type="line"/>
      <point x="86" y="0" type="line"/>
      <point x="123" y="262" type="line"/>
      <point x="128" y="295"/>
      <point x="132" y="324"/>
      <point x="134" y="359" type="curve"/>
      <point x="141" y="395"/>
      <point x="145" y="418"/>
      <point x="150" y="453" type="curve" smooth="yes"/>
    </contour>
    <contour>
      <point x="268" y="371" type="line"/>
      <point x="123" y="371" type="line"/>
      <point x="120" y="349" type="line"/>
      <point x="265" y="349" type="line"/>
    </contour>
  </outline>
</glyph>
<glyph name="L" format="2">
  <advance width="501"/>
  <unicode hex="004C"/>
  <anchor x="263" y="0" name="bottom"/>
  <anchor x="173" y="740" name="top"/>
  <outline>
    <contour>
      <point x="181" y="690" type="line"/>
      <point x="156" y="690" type="line"/>
      <point x="74" y="103" type="line" smooth="yes"/>
      <point x="65" y="44"/>
      <point x="103" y="0"/>
      <point x="163" y="0" type="curve" smooth="yes"/>
      <point x="254" y="0"/>
      <point x="347" y="0"/>
      <point x="440" y="4" type="curve"/>
      <point x="441" y="22" type="line"/>
      <point x="168" y="22" type="line" smooth="yes"/>
      <point x="120" y="22"/>
      <point x="92" y="55"/>
      <point x="99" y="103" type="curve" smooth="yes"/>
    </contour>
  </outline>
</glyph>
<glyph name="N" format="2">
  <advance width="688"/>
  <unicode hex="004E"/>
  <anchor x="303" y="0" name="bottom"/>
  <anchor x="416" y="740" name="top"/>
  <outline>
    <contour>
      <point x="641" y="690" type="line"/>
      <point x="616" y="690" type="line"/>
      <point x="534" y="106" type="line"/>
      <point x="530" y="78"/>
      <point x="526" y="49"/>
      <point x="522" y="21" type="curve"/>
      <point x="494" y="21" type="line"/>
      <point x="483" y="48"/>
      <point x="473" y="75"/>
      <point x="462" y="102" type="curve"/>
      <point x="229" y="678" type="line" smooth="yes"/>
      <point x="226" y="686"/>
      <point x="219" y="690"/>
      <point x="211" y="690" type="curve" smooth="yes"/>
      <point x="173" y="690" type="line" smooth="yes"/>
      <point x="163" y="690"/>
      <point x="159" y="686"/>
      <point x="157" y="676" type="curve" smooth="yes"/>
      <point x="62" y="0" type="line"/>
      <point x="87" y="0" type="line"/>
      <point x="170" y="590" type="line"/>
      <point x="174" y="616"/>
      <point x="177" y="642"/>
      <point x="181" y="668" type="curve"/>
      <point x="206" y="668" type="line"/>
      <point x="215" y="645"/>
      <point x="225" y="624"/>
      <point x="234" y="601" type="curve"/>
      <point x="472" y="12" type="line" smooth="yes"/>
      <point x="475" y="4"/>
      <point x="481" y="0"/>
      <point x="489" y="0" type="curve" smooth="yes"/>
      <point x="530" y="0" type="line" smooth="yes"/>
      <point x="540" y="0"/>
      <point x="545" y="4"/>
      <point x="546" y="14" type="curve" smooth="yes"/>
    </contour>
  </outline>
</glyph>
<glyph name="O" format="2">
  <advance width="660"/>
  <unicode hex="004F"/>
  <anchor x="290" y="0" name="bottom"/>
  <anchor x="321" y="4" name="ogonek"/>
  <anchor x="389" y="740" name="top"/>
  <outline>
    <contour>
      <point x="386" y="702" type="curve" smooth="yes"/>
      <point x="198" y="702"/>
      <point x="120" y="609"/>
      <point x="83" y="347" type="curve" smooth="yes"/>
      <point x="46" y="83"/>
      <point x="100" y="-12"/>
      <point x="290" y="-12" type="curve" smooth="yes"/>
      <point x="478" y="-12"/>
      <point x="556" y="81"/>
      <point x="592" y="343" type="curve" smooth="yes"/>
      <point x="630" y="607"/>
      <point x="576" y="702"/>
    </contour>
    <contour>
      <point x="386" y="679" type="curve" smooth="yes"/>
      <point x="559" y="679"/>
      <point x="602" y="594"/>
      <point x="567" y="347" type="curve" smooth="yes"/>
      <point x="532" y="98"/>
      <point x="463" y="11"/>
      <point x="289" y="11" type="curve" smooth="yes"/>
      <point x="121" y="11"/>
      <point x="74" y="96"/>
      <point x="108" y="343" type="curve" smooth="yes"/>
      <point x="143" y="592"/>
      <point x="211" y="679"/>
    </contour>
  </outline>
</glyph>
<glyph name="Q" format="2">
  <advance width="660"/>
  <unicode hex="0051"/>
  <outline>
    <contour>
      <point x="386" y="702" type="curve" smooth="yes"/>
      <point x="198" y="702"/>
      <point x="120" y="609"/>
      <point x="83" y="347" type="curve" smooth="yes"/>
      <point x="46" y="83"/>
      <point x="100" y="-12"/>
      <point x="290" y="-12" type="curve" smooth="yes"/>
      <point x="478" y="-12"/>
      <point x="556" y="81"/>
      <point x="592" y="343" type="curve" smooth="yes"/>
      <point x="630" y="607"/>
      <point x="576" y="702"/>
    </contour>
    <contour>
      <point x="248" y="-51" type="curve"/>
      <point x="236" y="-65" type="line"/>
      <point x="288" y="-114"/>
      <point x="365" y="-149"/>
      <point x="452" y="-161" type="curve"/>
      <point x="460" y="-136" type="line"/>
      <point x="369" y="-121"/>
      <point x="304" y="-95"/>
    </contour>
    <contour>
      <point x="386" y="679" type="curve" smooth="yes"/>
      <point x="559" y="679"/>
      <point x="602" y="594"/>
      <point x="567" y="347" type="curve" smooth="yes"/>
      <point x="532" y="98"/>
      <point x="463" y="11"/>
      <point x="289" y="11" type="curve" smooth="yes"/>
      <point x="121" y="11"/>
      <point x="74" y="96"/>
      <point x="108" y="343" type="curve" smooth="yes"/>
      <point x="143" y="592"/>
      <point x="211" y="679"/>
    </contour>
  </outline>
</glyph>
<glyph name="R" format="2">
  <advance width="606"/>
  <unicode hex="0052"/>
  <anchor x="274" y="0" name="bottom"/>
  <anchor x="373" y="740" name="top"/>
  <outline>
    <contour>
      <point x="379" y="698" type="curve" smooth="yes"/>
      <point x="277" y="698"/>
      <point x="230" y="697"/>
      <point x="159" y="690" type="curve"/>
      <point x="172" y="672" type="line"/>
      <point x="199" y="674"/>
      <point x="278" y="675"/>
      <point x="380" y="675" type="curve" smooth="yes"/>
      <point x="507" y="675"/>
      <point x="546" y="641"/>
      <point x="527" y="506" type="curve" smooth="yes"/>
      <point x="508" y="371"/>
      <point x="456" y="335"/>
      <point x="329" y="333" type="curve" smooth="yes"/>
      <point x="122" y="333" type="line"/>
      <point x="118" y="315" type="line"/>
      <point x="152" y="313"/>
      <point x="222" y="312"/>
      <point x="338" y="310" type="curve" smooth="yes"/>
      <point x="390" y="309"/>
      <point x="424" y="286"/>
      <point x="437" y="219" type="curve" smooth="yes"/>
      <point x="481" y="0" type="line"/>
      <point x="508" y="0" type="line"/>
      <point x="463" y="220" type="line" smooth="yes"/>
      <point x="454" y="266"/>
      <point x="433" y="305"/>
      <point x="399" y="316" type="curve"/>
      <point x="399" y="320" type="line"/>
      <point x="490" y="333"/>
      <point x="535" y="378"/>
      <point x="553" y="502" type="curve" smooth="yes"/>
      <point x="574" y="656"/>
      <point x="526" y="698"/>
    </contour>
    <contour>
      <point x="184" y="690" type="line"/>
      <point x="159" y="690" type="line"/>
      <point x="62" y="0" type="line"/>
      <point x="87" y="0" type="line"/>
    </contour>
  </outline>
</glyph>
<glyph name="T" format="2">
  <advance width="558"/>
  <unicode hex="0054"/>
  <anchor x="238" y="0" name="bottom"/>
  <anchor x="287" y="345" name="center"/>
  <anchor x="343" y="740" name="top"/>
  <outline>
    <contour>
      <point x="347" y="690" type="line"/>
      <point x="322" y="690" type="line"/>
      <point x="225" y="0" type="line"/>
      <point x="250" y="0" type="line"/>
    </contour>
    <contour>
      <point x="590" y="690" type="line"/>
      <point x="80" y="690" type="line"/>
      <point x="77" y="668" type="line"/>
      <point x="587" y="668" type="line"/>
    </contour>
  </outline>
</glyph>
<glyph name="V" format="2">
  <advance width="587"/>
  <unicode hex="0056"/>
  <outline>
    <contour>
      <point x="618" y="690" type="line"/>
      <point x="591" y="690" type="line"/>
      <point x="303" y="98" type="line" smooth="yes"/>
      <point x="291" y="73"/>
      <point x="278" y="46"/>
      <point x="267" y="21" type="curve"/>
      <point x="240" y="21" type="line"/>
      <point x="236" y="46"/>
      <point x="231" y="70"/>
      <point x="226" y="95" type="curve" smooth="yes"/>
      <point x="104" y="690" type="line"/>
      <point x="78" y="690" type="line"/>
      <point x="219" y="10" type="line" smooth="yes"/>
      <point x="220" y="5"/>
      <point x="225" y="0"/>
      <point x="231" y="0" type="curve" smooth="yes"/>
      <point x="273" y="0" type="line" smooth="yes"/>
      <point x="279" y="0"/>
      <point x="284" y="3"/>
      <point x="286" y="8" type="curve" smooth="yes"/>
    </contour>
  </outline>
</glyph>
<glyph name="backslash" format="2">
  <advance width="482"/>
  <unicode hex="005C"/>
  <outline>
    <contour>
      <point x="112" y="690" type="line"/>
      <point x="88" y="690" type="line"/>
      <point x="377" y="-59" type="line"/>
      <point x="401" y="-59" type="line"/>
    </contour>
  </outline>
</glyph>
<glyph name="asciicircum" format="2">
  <advance width="392"/>
  <unicode hex="005E"/>
  <outline>
    <contour>
      <point x="252" y="575" type="line"/>
      <point x="234" y="575" type="line"/>
      <point x="49" y="378" type="line"/>
      <point x="62" y="366" type="line"/>
      <point x="237" y="548" type="line"/>
      <point x="245" y="548" type="line"/>
      <point x="368" y="366" type="line"/>
      <point x="382" y="377" type="line"/>
    </contour>
  </outline>
</glyph>
<glyph name="underscore" format="2">
  <advance width="430.822"/>
  <unicode hex="005F"/>
  <outline>
    <contour>
      <point x="397" y="0" type="line"/>
      <point x="-34" y="0" type="line"/>
      <point x="-37" y="-22" type="line"/>
      <point x="394" y="-22" type="line"/>
    </contour>
  </outline>
</glyph>
<glyph name="grave" format="2">
  <advance width="277"/>
  <unicode hex="0060"/>
  <anchor x="222" y="554" name="_top"/>
  <outline>
    <contour>
      <point x="132" y="709" type="line"/>
      <point x="113" y="691" type="line"/>
      <point x="247" y="550" type="line"/>
      <point x="261" y="562" type="line"/>
    </contour>
  </outline>
</glyph>
<glyph name="a" format="2">
  <advance width="564"/>
  <unicode hex="0061"/>
  <anchor x="243" y="-12" name="bottom"/>
  <anchor x="430" y="0" name="ogonek"/>
  <anchor x="327" y="558" name="top"/>
  <outline>
    <contour>
      <point x="319" y="492" type="curve" smooth="yes"/>
      <point x="146" y="492"/>
      <point x="102" y="442"/>
      <point x="70" y="242" type="curve" smooth="yes"/>
      <point x="42" y="68"/>
      <point x="60" y="-12"/>
      <point x="182" y="-12" type="curve" smooth="yes"/>
      <point x="244" y="-12"/>
      <point x="347" y="31"/>
      <point x="432" y="128" type="curve"/>
      <point x="432" y="155" type="line"/>
      <point x="349" y="62"/>
      <point x="247" y="11"/>
      <point x="182" y="11" type="curve" smooth="yes"/>
      <point x="81" y="11"/>
      <point x="69" y="79"/>
      <point x="94" y="238" type="curve" smooth="yes"/>
      <point x="124" y="429"/>
      <point x="160" y="470"/>
      <point x="322" y="470" type="curve" smooth="yes"/>
      <point x="374" y="470"/>
      <point x="416" y="466"/>
      <point x="488" y="462" type="curve"/>
      <point x="498" y="480" type="line"/>
      <point x="435" y="487"/>
      <point x="377" y="492"/>
    </contour>
    <contour>
      <point x="473" y="480" type="line"/>
      <point x="425" y="126" type="line"/>
      <point x="427" y="122" type="line"/>
      <point x="412" y="0" type="line"/>
      <point x="430" y="0" type="line"/>
      <point x="498" y="480" type="line"/>
    </contour>
  </outline>
</glyph>
<glyph name="b" format="2">
  <advance width="561"/>
  <unicode hex="0062"/>
  <outline>
    <contour>
      <point x="358" y="492" type="curve" smooth="yes"/>
      <point x="290" y="492"/>
      <point x="216" y="450"/>
      <point x="118" y="363" type="curve"/>
      <point x="120" y="342" type="line"/>
      <point x="223" y="426"/>
      <point x="289" y="469"/>
      <point x="354" y="469" type="curve" smooth="yes"/>
      <point x="459" y="469"/>
      <point x="478" y="410"/>
      <point x="455" y="242" type="curve" smooth="yes"/>
      <point x="430" y="60"/>
      <point x="396" y="11"/>
      <point x="248" y="11" type="curve" smooth="yes"/>
      <point x="195" y="11"/>
      <point x="142" y="17"/>
      <point x="74" y="37" type="curve"/>
      <point x="53" y="19" type="line"/>
      <point x="122" y="0"/>
      <point x="174" y="-12"/>
      <point x="252" y="-12" type="curve" smooth="yes"/>
      <point x="400" y="-12"/>
      <point x="451" y="30"/>
      <point x="480" y="238" type="curve" smooth="yes"/>
      <point x="507" y="429"/>
      <point x="469" y="492"/>
    </contour>
    <contour>
      <point x="172" y="700" type="line"/>
      <point x="148" y="700" type="line"/>
      <point x="52" y="19" type="line"/>
      <point x="76" y="19" type="line"/>
      <point x="122" y="349" type="line"/>
      <point x="119" y="362" type="line"/>
      <point x="128" y="408"/>
      <point x="134" y="443"/>
      <point x="142" y="499" type="curve" smooth="yes"/>
    </contour>
  </outline>
</glyph>
<glyph name="c" format="2">
  <advance width="475"/>
  <unicode hex="0063"/>
  <guideline x="306" y="195" angle="290"/>
  <guideline x="300" y="271" angle="70"/>
  <guideline x="376" y="224" angle="90"/>
  <anchor x="243" y="-12" name="bottom"/>
  <anchor x="301" y="558" name="top"/>
  <outline>
    <contour>
      <point x="313" y="492" type="curve" smooth="yes"/>
      <point x="155" y="492"/>
      <point x="87" y="426"/>
      <point x="61" y="242" type="curve" smooth="yes"/>
      <point x="35" y="56"/>
      <point x="87" y="-12"/>
      <point x="248" y="-12" type="curve" smooth="yes"/>
      <point x="295" y="-12"/>
      <point x="349" y="-5"/>
      <point x="394" y="5" type="curve"/>
      <point x="391" y="23" type="line"/>
      <point x="345" y="14"/>
      <point x="279" y="11"/>
      <point x="250" y="11" type="curve" smooth="yes"/>
      <point x="106" y="11"/>
      <point x="61" y="62"/>
      <point x="86" y="239" type="curve" smooth="yes"/>
      <point x="111" y="416"/>
      <point x="172" y="469"/>
      <point x="318" y="469" type="curve" smooth="yes"/>
      <point x="349" y="469"/>
      <point x="407" y="466"/>
      <point x="440" y="457" type="curve"/>
      <point x="447" y="475" type="line"/>
      <point x="407" y="488"/>
      <point x="350" y="492"/>
    </contour>
  </outline>
</glyph>
<glyph name="e" format="2">
  <advance width="526"/>
  <unicode hex="0065"/>
  <anchor x="243" y="-12" name="bottom"/>
  <anchor x="419" y="8" name="ogonek"/>
  <anchor x="315" y="558" name="top"/>
  <outline>
    <contour>
      <point x="310" y="492" type="curve" smooth="yes"/>
      <point x="166" y="492"/>
      <point x="93" y="451"/>
      <point x="62" y="244" type="curve" smooth="yes"/>
      <point x="34" y="58"/>
      <point x="76" y="-12"/>
      <point x="234" y="-12" type="curve" smooth="yes"/>
      <point x="288" y="-12"/>
      <point x="386" y="-4"/>
      <point x="423" y="6" type="curve"/>
      <point x="420" y="24" type="line"/>
      <point x="378" y="18"/>
      <point x="302" y="10"/>
      <point x="244" y="10" type="curve" smooth="yes"/>
      <point x="99" y="10"/>
      <point x="57" y="57"/>
      <point x="86" y="241" type="curve" smooth="yes"/>
      <point x="117" y="441"/>
      <point x="175" y="470"/>
      <point x="317" y="470" type="curve" smooth="yes"/>
      <point x="407" y="470"/>
      <point x="476" y="455"/>
      <point x="447" y="346" type="curve" smooth="yes"/>
      <point x="430" y="281"/>
      <point x="400" y="264"/>
      <point x="313" y="253" type="curve" smooth="yes"/>
      <point x="72" y="226" type="line"/>
      <point x="69" y="205" type="line"/>
      <point x="312" y="231" type="line" smooth="yes"/>
      <point x="411" y="242"/>
      <point x="452" y="265"/>
      <point x="471" y="344" type="curve" smooth="yes"/>
      <point x="500" y="465"/>
      <point x="426" y="492"/>
    </contour>
  </outline>
</glyph>
<glyph name="f" format="2">
  <advance width="351"/>
  <unicode hex="0066"/>
  <outline>
    <contour>
      <point x="303" y="714" type="curve" smooth="yes"/>
      <point x="212" y="714"/>
      <point x="173" y="670"/>
      <point x="161" y="582" type="curve" smooth="yes"/>
      <point x="68" y="-76" type="line" smooth="yes"/>
      <point x="57" y="-158"/>
      <point x="26" y="-188"/>
      <point x="-48" y="-188" type="curve" smooth="yes"/>
      <point x="-127" y="-188" type="line"/>
      <point x="-128" y="-206" type="line"/>
      <point x="-103" y="-209"/>
      <point x="-62" y="-210"/>
      <point x="-40" y="-210" type="curve" smooth="yes"/>
      <point x="45" y="-210"/>
      <point x="80" y="-167"/>
      <point x="92" y="-78" type="curve" smooth="yes"/>
      <point x="185" y="580" type="line" smooth="yes"/>
      <point x="196" y="662"/>
      <point x="231" y="692"/>
      <point x="311" y="692" type="curve" smooth="yes"/>
      <point x="420" y="692" type="line"/>
      <point x="421" y="710" type="line"/>
      <point x="387" y="713"/>
      <point x="332" y="714"/>
    </contour>
    <contour>
      <point x="349" y="480" type="line"/>
      <point x="153" y="480" type="line"/>
      <point x="59" y="475" type="line"/>
      <point x="56" y="458" type="line"/>
      <point x="345" y="458" type="line"/>
    </contour>
  </outline>
</glyph>
<glyph name="g" format="2">
  <advance width="569"/>
  <unicode hex="0067"/>
  <anchor x="339" y="558" name="top"/>
  <outline>
    <contour>
      <point x="481" y="480" type="line"/>
      <point x="429" y="146" type="line"/>
      <point x="435" y="138" type="line"/>
      <point x="427" y="116"/>
      <point x="418" y="70"/>
      <point x="406" y="-4" type="curve" smooth="yes"/>
      <point x="386" y="-127"/>
      <point x="322" y="-186"/>
      <point x="204" y="-198" type="curve" smooth="yes"/>
      <point x="146" y="-204"/>
      <point x="83" y="-203"/>
      <point x="25" y="-200" type="curve"/>
      <point x="22" y="-218" type="line"/>
      <point x="77" y="-224"/>
      <point x="169" y="-224"/>
      <point x="212" y="-220" type="curve" smooth="yes"/>
      <point x="339" y="-208"/>
      <point x="410" y="-132"/>
      <point x="430" y="-6" type="curve" smooth="yes"/>
      <point x="506" y="480" type="line"/>
    </contour>
    <contour>
      <point x="319" y="492" type="curve" smooth="yes"/>
      <point x="146" y="492"/>
      <point x="102" y="442"/>
      <point x="70" y="242" type="curve" smooth="yes"/>
      <point x="42" y="68"/>
      <point x="60" y="-12"/>
      <point x="182" y="-12" type="curve" smooth="yes"/>
      <point x="245" y="-12"/>
      <point x="350" y="33"/>
      <point x="437" y="133" type="curve"/>
      <point x="432" y="155" type="line"/>
      <point x="349" y="62"/>
      <point x="247" y="11"/>
      <point x="182" y="11" type="curve" smooth="yes"/>
      <point x="81" y="11"/>
      <point x="69" y="79"/>
      <point x="94" y="238" type="curve" smooth="yes"/>
      <point x="124" y="429"/>
      <point x="160" y="470"/>
      <point x="322" y="470" type="curve" smooth="yes"/>
      <point x="374" y="470"/>
      <point x="416" y="466"/>
      <point x="488" y="462" type="curve"/>
      <point x="498" y="480" type="line"/>
      <point x="435" y="487"/>
      <point x="377" y="492"/>
    </contour>
  </outline>
</glyph>
<glyph name="h" format="2">
  <advance width="567"/>
  <unicode hex="0068"/>
  <anchor x="241" y="0" name="bottom"/>
  <anchor x="276" y="240" name="center"/>
  <anchor x="165" y="720" name="top"/>
  <outline>
    <contour>
      <point x="374" y="492" type="curve" smooth="yes"/>
      <point x="299" y="492"/>
      <point x="216" y="441"/>
      <point x="122" y="362" type="curve"/>
      <point x="121" y="336" type="line"/>
      <point x="226" y="424"/>
      <point x="299" y="469"/>
      <point x="370" y="469" type="curve" smooth="yes"/>
      <point x="443" y="469"/>
      <point x="474" y="437"/>
      <point x="463" y="359" type="curve" smooth="yes"/>
      <point x="412" y="0" type="line"/>
      <point x="436" y="0" type="line"/>
      <point x="487" y="360" type="line" smooth="yes"/>
      <point x="499" y="446"/>
      <point x="460" y="492"/>
    </contour>
    <contour>
      <point x="175" y="700" type="line"/>
      <point x="151" y="700" type="line"/>
      <point x="52" y="0" type="line"/>
      <point x="76" y="0" type="line"/>
      <point x="125" y="343" type="line"/>
      <point x="123" y="360" type="line"/>
      <point x="131" y="397"/>
      <point x="140" y="446"/>
      <point x="145" y="484" type="curve" smooth="yes"/>
    </contour>
  </outline>
</glyph>
<glyph name="i" format="2">
  <advance width="218"/>
  <unicode hex="0069"/>
  <anchor x="67" y="0" name="bottom"/>
  <anchor x="80" y="0" name="ogonek"/>
  <anchor x="146" y="558" name="top"/>
  <outline>
    <contour>
      <point x="148" y="480" type="line"/>
      <point x="124" y="480" type="line"/>
      <point x="56" y="0" type="line"/>
      <point x="80" y="0" type="line"/>
    </contour>
    <contour>
      <point x="168" y="679" type="curve" smooth="yes"/>
      <point x="158" y="679" type="line" smooth="yes"/>
      <point x="150" y="679"/>
      <point x="146" y="676"/>
      <point x="145" y="668" type="curve" smooth="yes"/>
      <point x="136" y="606" type="line" smooth="yes"/>
      <point x="135" y="598"/>
      <point x="140" y="593"/>
      <point x="148" y="593" type="curve" smooth="yes"/>
      <point x="158" y="593" type="line" smooth="yes"/>
      <point x="166" y="593"/>
      <point x="169" y="596"/>
      <point x="170" y="604" type="curve" smooth="yes"/>
      <point x="179" y="666" type="line" smooth="yes"/>
      <point x="180" y="674"/>
      <point x="176" y="679"/>
    </contour>
  </outline>
</glyph>
<glyph name="n" format="2">
  <advance width="567"/>
  <unicode hex="006E"/>
  <anchor x="242" y="0" name="bottom"/>
  <anchor x="312" y="558" name="top"/>
  <outline>
    <contour>
      <point x="374" y="492" type="curve" smooth="yes"/>
      <point x="299" y="492"/>
      <point x="216" y="441"/>
      <point x="122" y="362" type="curve"/>
      <point x="121" y="339" type="line"/>
      <point x="226" y="424"/>
      <point x="299" y="469"/>
      <point x="370" y="469" type="curve" smooth="yes"/>
      <point x="443" y="469"/>
      <point x="474" y="437"/>
      <point x="463" y="359" type="curve" smooth="yes"/>
      <point x="412" y="0" type="line"/>
      <point x="436" y="0" type="line"/>
      <point x="487" y="360" type="line" smooth="yes"/>
      <point x="499" y="446"/>
      <point x="460" y="492"/>
    </contour>
    <contour>
      <point x="138" y="480" type="line"/>
      <point x="120" y="480" type="line"/>
      <point x="52" y="0" type="line"/>
      <point x="76" y="0" type="line"/>
      <point x="124" y="342" type="line"/>
      <point x="123" y="360" type="line"/>
    </contour>
  </outline>
</glyph>
<glyph name="o" format="2">
  <advance width="557"/>
  <unicode hex="006F"/>
  <anchor x="243" y="-12" name="bottom"/>
  <anchor x="269" y="0" name="ogonek"/>
  <anchor x="315" y="558" name="top"/>
  <outline>
    <contour>
      <point x="304" y="492" type="curve" smooth="yes"/>
      <point x="150" y="492"/>
      <point x="87" y="426"/>
      <point x="61" y="242" type="curve" smooth="yes"/>
      <point x="35" y="56"/>
      <point x="82" y="-12"/>
      <point x="238" y="-12" type="curve" smooth="yes"/>
      <point x="392" y="-12"/>
      <point x="455" y="54"/>
      <point x="481" y="238" type="curve" smooth="yes"/>
      <point x="507" y="424"/>
      <point x="460" y="492"/>
    </contour>
    <contour>
      <point x="304" y="469" type="curve" smooth="yes"/>
      <point x="440" y="469"/>
      <point x="480" y="414"/>
      <point x="456" y="242" type="curve" smooth="yes"/>
      <point x="432" y="68"/>
      <point x="374" y="11"/>
      <point x="238" y="11" type="curve" smooth="yes"/>
      <point x="102" y="11"/>
      <point x="62" y="66"/>
      <point x="86" y="238" type="curve" smooth="yes"/>
      <point x="110" y="412"/>
      <point x="168" y="469"/>
    </contour>
  </outline>
</glyph>
<glyph name="r" format="2">
  <advance width="383"/>
  <unicode hex="0072"/>
  <anchor x="64" y="0" name="bottom"/>
  <anchor x="258" y="558" name="top"/>
  <outline>
    <contour>
      <point x="138" y="480" type="line"/>
      <point x="120" y="480" type="line"/>
      <point x="52" y="0" type="line"/>
      <point x="76" y="0" type="line"/>
      <point x="124" y="343" type="line"/>
      <point x="123" y="359" type="line"/>
    </contour>
    <contour>
      <point x="388" y="492" type="line"/>
      <point x="368" y="492" type="line" smooth="yes"/>
      <point x="294" y="492"/>
      <point x="213" y="443"/>
      <point x="122" y="360" type="curve"/>
      <point x="121" y="336" type="line"/>
      <point x="223" y="421"/>
      <point x="293" y="469"/>
      <point x="364" y="469" type="curve" smooth="yes"/>
      <point x="380" y="469" type="line"/>
    </contour>
  </outline>
</glyph>
<glyph name="u" format="2">
  <advance width="556"/>
  <unicode hex="0075"/>
  <anchor x="252" y="-9" name="bottom"/>
  <anchor x="422" y="0" name="ogonek"/>
  <anchor x="311" y="558" name="top"/>
  <outline>
    <contour>
      <point x="140" y="480" type="line"/>
      <point x="116" y="480" type="line"/>
      <point x="65" y="120" type="line" smooth="yes"/>
      <point x="52" y="34"/>
      <point x="92" y="-12"/>
      <point x="178" y="-12" type="curve" smooth="yes"/>
      <point x="249" y="-12"/>
      <point x="331" y="37"/>
      <point x="423" y="130" type="curve"/>
      <point x="422" y="154" type="line"/>
      <point x="324" y="60"/>
      <point x="254" y="11"/>
      <point x="182" y="11" type="curve" smooth="yes"/>
      <point x="109" y="11"/>
      <point x="78" y="45"/>
      <point x="89" y="121" type="curve" smooth="yes"/>
    </contour>
    <contour>
      <point x="490" y="480" type="line"/>
      <point x="466" y="480" type="line"/>
      <point x="419" y="147" type="line"/>
      <point x="420" y="131" type="line"/>
      <point x="404" y="0" type="line"/>
      <point x="422" y="0" type="line"/>
    </contour>
  </outline>
</glyph>
<glyph name="v" format="2">
  <advance width="503"/>
  <unicode hex="0076"/>
  <outline>
    <contour>
      <point x="486" y="480" type="curve"/>
      <point x="461" y="480" type="line"/>
      <point x="438" y="385"/>
      <point x="403" y="296"/>
      <point x="343" y="195" type="curve" smooth="yes"/>
      <point x="302" y="126"/>
      <point x="262" y="70"/>
      <point x="242" y="46" type="curve" smooth="yes"/>
      <point x="226" y="27"/>
      <point x="219" y="21"/>
      <point x="199" y="21" type="curve" smooth="yes"/>
      <point x="180" y="21" type="line"/>
      <point x="84" y="480" type="line"/>
      <point x="59" y="480" type="line"/>
      <point x="160" y="9" type="line" smooth="yes"/>
      <point x="161" y="4"/>
      <point x="166" y="0"/>
      <point x="172" y="0" type="curve" smooth="yes"/>
      <point x="201" y="0" type="line" smooth="yes"/>
      <point x="222" y="0"/>
      <point x="235" y="4"/>
      <point x="251" y="22" type="curve" smooth="yes"/>
      <point x="276" y="50"/>
      <point x="314" y="103"/>
      <point x="363" y="184" type="curve" smooth="yes"/>
      <point x="411" y="263"/>
      <point x="450" y="337"/>
    </contour>
  </outline>
</glyph>
<glyph name="w" format="2">
  <advance width="813"/>
  <unicode hex="0077"/>
  <guideline x="389" y="86" angle="0"/>
  <guideline x="408" y="385" angle="0"/>
  <anchor x="453" y="558" name="top"/>
  <outline>
    <contour>
      <point x="83" y="480" type="line"/>
      <point x="58" y="480" type="line"/>
      <point x="149" y="9" type="line" smooth="yes"/>
      <point x="150" y="4"/>
      <point x="155" y="0"/>
      <point x="161" y="0" type="curve" smooth="yes"/>
      <point x="181" y="0" type="line" smooth="yes"/>
      <point x="203" y="0"/>
      <point x="215" y="7"/>
      <point x="227" y="20" type="curve" smooth="yes"/>
      <point x="254" y="49"/>
      <point x="300" y="131"/>
      <point x="327" y="191" type="curve" smooth="yes"/>
      <point x="371" y="289"/>
      <point x="406" y="416"/>
      <point x="417" y="460" type="curve"/>
      <point x="427" y="460" type="line"/>
      <point x="496" y="9" type="line" smooth="yes"/>
      <point x="497" y="4"/>
      <point x="502" y="0"/>
      <point x="508" y="0" type="curve" smooth="yes"/>
      <point x="527" y="0" type="line" smooth="yes"/>
      <point x="552" y="0"/>
      <point x="564" y="9"/>
      <point x="576" y="23" type="curve" smooth="yes"/>
      <point x="596" y="46"/>
      <point x="638" y="109"/>
      <point x="678" y="184" type="curve" smooth="yes"/>
      <point x="723" y="268"/>
      <point x="754" y="348"/>
      <point x="785" y="480" type="curve"/>
      <point x="760" y="480" type="line"/>
      <point x="740" y="393"/>
      <point x="713" y="301"/>
      <point x="659" y="196" type="curve" smooth="yes"/>
      <point x="631" y="141"/>
      <point x="602" y="98"/>
      <point x="566" y="46" type="curve" smooth="yes"/>
      <point x="555" y="30"/>
      <point x="544" y="21"/>
      <point x="528" y="21" type="curve" smooth="yes"/>
      <point x="516" y="21" type="line"/>
      <point x="447" y="471" type="line" smooth="yes"/>
      <point x="446" y="476"/>
      <point x="441" y="480"/>
      <point x="435" y="480" type="curve" smooth="yes"/>
      <point x="410" y="481" type="line" smooth="yes"/>
      <point x="404" y="481"/>
      <point x="400" y="478"/>
      <point x="399" y="473" type="curve" smooth="yes"/>
      <point x="376" y="392"/>
      <point x="346" y="287"/>
      <point x="305" y="197" type="curve" smooth="yes"/>
      <point x="274" y="129"/>
      <point x="237" y="69"/>
      <point x="217" y="43" type="curve" smooth="yes"/>
      <point x="200" y="21"/>
      <point x="193" y="21"/>
      <point x="181" y="21" type="curve" smooth="yes"/>
      <point x="169" y="21" type="line"/>
    </contour>
  </outline>
</glyph>
<glyph name="x" format="2">
  <advance width="501"/>
  <unicode hex="0078"/>
  <outline>
    <contour>
      <point x="102" y="480" type="line"/>
      <point x="75" y="480" type="line"/>
      <point x="211" y="251" type="line"/>
      <point x="-7" y="0" type="line"/>
      <point x="25" y="0" type="line"/>
      <point x="239" y="249" type="line"/>
    </contour>
    <contour>
      <point x="272" y="262" type="line"/>
      <point x="220" y="262" type="line"/>
      <point x="217" y="240" type="line"/>
      <point x="269" y="240" type="line"/>
    </contour>
    <contour>
      <point x="481" y="480" type="line"/>
      <point x="451" y="480" type="line"/>
      <point x="251" y="252" type="line"/>
      <point x="399" y="0" type="line"/>
      <point x="426" y="0" type="line"/>
      <point x="279" y="250" type="line"/>
    </contour>
  </outline>
</glyph>
<glyph name="y" format="2">
  <advance width="511"/>
  <unicode hex="0079"/>
  <anchor x="364" y="-9" name="bottom"/>
  <anchor x="280" y="558" name="top"/>
  <outline>
    <contour>
      <point x="487" y="480" type="curve"/>
      <point x="462" y="480" type="line"/>
      <point x="419" y="334"/>
      <point x="370" y="210"/>
      <point x="277" y="63" type="curve" smooth="yes"/>
      <point x="190" y="-73"/>
      <point x="126" y="-166"/>
      <point x="39" y="-195" type="curve"/>
      <point x="43" y="-210" type="line"/>
      <point x="139" y="-187"/>
      <point x="206" y="-89"/>
      <point x="301" y="58" type="curve" smooth="yes"/>
      <point x="388" y="193"/>
      <point x="451" y="344"/>
    </contour>
    <contour>
      <point x="82" y="480" type="line"/>
      <point x="56" y="480" type="line"/>
      <point x="154" y="37" type="line" smooth="yes"/>
      <point x="159" y="15"/>
      <point x="177" y="0"/>
      <point x="200" y="0" type="curve" smooth="yes"/>
      <point x="245" y="0" type="line"/>
      <point x="258" y="22" type="line"/>
      <point x="207" y="21" type="line" smooth="yes"/>
      <point x="191" y="21"/>
      <point x="179" y="31"/>
      <point x="175" y="47" type="curve" smooth="yes"/>
    </contour>
  </outline>
</glyph>
<glyph name="z" format="2">
  <advance width="485"/>
  <unicode hex="007A"/>
  <anchor x="206" y="0" name="bottom"/>
  <anchor x="273" y="558" name="top"/>
  <outline>
    <contour>
      <point x="423" y="459" type="line"/>
      <point x="13" y="22" type="line"/>
      <point x="45" y="21" type="line"/>
      <point x="455" y="458" type="line"/>
    </contour>
    <contour>
      <point x="396" y="22" type="line"/>
      <point x="13" y="22" type="line"/>
      <point x="10" y="0" type="line"/>
      <point x="393" y="0" type="line"/>
    </contour>
    <contour>
      <point x="458" y="480" type="line"/>
      <point x="81" y="480" type="line"/>
      <point x="78" y="458" type="line"/>
      <point x="455" y="458" type="line"/>
    </contour>
  </outline>
</glyph>
<glyph name="braceleft" format="2">
  <advance width="298"/>
  <unicode hex="007B"/>
  <outline>
    <contour>
      <point x="316" y="768" type="line"/>
      <point x="222" y="769"/>
      <point x="183" y="732"/>
      <point x="171" y="643" type="curve" smooth="yes"/>
      <point x="140" y="428" type="line" smooth="yes"/>
      <point x="131" y="360"/>
      <point x="118" y="360"/>
      <point x="62" y="344" type="curve"/>
      <point x="57" y="314" type="line"/>
      <point x="104" y="296"/>
      <point x="125" y="291"/>
      <point x="117" y="234" type="curve" smooth="yes"/>
      <point x="79" y="-38" type="line" smooth="yes"/>
      <point x="66" y="-127"/>
      <point x="97" y="-165"/>
      <point x="189" y="-165" type="curve"/>
      <point x="191" y="-147" type="line"/>
      <point x="110" y="-147"/>
      <point x="93" y="-110"/>
      <point x="103" y="-40" type="curve" smooth="yes"/>
      <point x="139" y="222" type="line" smooth="yes"/>
      <point x="149" y="292"/>
      <point x="133" y="306"/>
      <point x="74" y="328" type="curve"/>
      <point x="137" y="342"/>
      <point x="154" y="355"/>
      <point x="166" y="436" type="curve" smooth="yes"/>
      <point x="194" y="641" type="line" smooth="yes"/>
      <point x="204" y="712"/>
      <point x="234" y="750"/>
      <point x="314" y="750" type="curve"/>
    </contour>
  </outline>
</glyph>
<glyph name="bar" format="2">
  <advance width="233"/>
  <unicode hex="007C"/>
  <outline>
    <contour>
      <point x="196" y="781" type="line"/>
      <point x="174" y="781" type="line"/>
      <point x="41" y="-169" type="line"/>
      <point x="63" y="-169" type="line"/>
    </contour>
  </outline>
</glyph>
<glyph name="braceright" format="2">
  <advance width="296"/>
  <unicode hex="007D"/>
  <outline>
    <contour>
      <point x="114" y="768" type="curve"/>
      <point x="112" y="750" type="line"/>
      <point x="194" y="750"/>
      <point x="211" y="714"/>
      <point x="201" y="643" type="curve" smooth="yes"/>
      <point x="172" y="438" type="line" smooth="yes"/>
      <point x="160" y="357"/>
      <point x="175" y="342"/>
      <point x="232" y="328" type="curve"/>
      <point x="165" y="306"/>
      <point x="148" y="294"/>
      <point x="138" y="224" type="curve" smooth="yes"/>
      <point x="101" y="-38" type="line" smooth="yes"/>
      <point x="91" y="-108"/>
      <point x="62" y="-147"/>
      <point x="-17" y="-147" type="curve"/>
      <point x="-19" y="-165" type="line"/>
      <point x="73" y="-165"/>
      <point x="112" y="-129"/>
      <point x="125" y="-40" type="curve" smooth="yes"/>
      <point x="163" y="232" type="line" smooth="yes"/>
      <point x="171" y="289"/>
      <point x="193" y="294"/>
      <point x="244" y="312" type="curve"/>
      <point x="249" y="342" type="line"/>
      <point x="199" y="358"/>
      <point x="185" y="358"/>
      <point x="194" y="426" type="curve" smooth="yes"/>
      <point x="224" y="641" type="line" smooth="yes"/>
      <point x="237" y="730"/>
      <point x="206" y="768"/>
    </contour>
  </outline>
</glyph>
<glyph name="asciitilde" format="2">
  <advance width="533"/>
  <unicode hex="007E"/>
  <outline>
    <contour>
      <point x="165" y="330" type="curve" smooth="yes"/>
      <point x="119" y="334"/>
      <point x="86" y="303"/>
      <point x="79" y="242" type="curve"/>
      <point x="96" y="240" type="line"/>
      <point x="103" y="289"/>
      <point x="124" y="312"/>
      <point x="166" y="308" type="curve" smooth="yes"/>
      <point x="242" y="303"/>
      <point x="264" y="245"/>
      <point x="366" y="240" type="curve" smooth="yes"/>
      <point x="411" y="236"/>
      <point x="445" y="266"/>
      <point x="451" y="324" type="curve"/>
      <point x="434" y="326" type="line"/>
      <point x="427" y="279"/>
      <point x="407" y="259"/>
      <point x="365" y="262" type="curve" smooth="yes"/>
      <point x="280" y="267"/>
      <point x="252" y="325"/>
    </contour>
  </outline>
</glyph>
<glyph name="exclamdown" format="2">
  <advance width="230"/>
  <unicode hex="00A1"/>
  <outline>
    <contour>
      <point x="123" y="277" type="line"/>
      <point x="102" y="277" type="line"/>
      <point x="79" y="126" type="line"/>
      <point x="32" y="-205" type="line"/>
      <point x="57" y="-205" type="line"/>
      <point x="104" y="126" type="line"/>
    </contour>
    <contour>
      <point x="147" y="480" type="curve" smooth="yes"/>
      <point x="136" y="480" type="line" smooth="yes"/>
      <point x="128" y="480"/>
      <point x="124" y="477"/>
      <point x="123" y="469" type="curve" smooth="yes"/>
      <point x="114" y="407" type="line" smooth="yes"/>
      <point x="113" y="399"/>
      <point x="117" y="394"/>
      <point x="125" y="394" type="curve" smooth="yes"/>
      <point x="134" y="394" type="line" smooth="yes"/>
      <point x="143" y="394"/>
      <point x="147" y="400"/>
      <point x="148" y="408" type="curve" smooth="yes"/>
      <point x="157" y="467" type="line" smooth="yes"/>
      <point x="158" y="476"/>
      <point x="155" y="480"/>
    </contour>
  </outline>
</glyph>
<glyph name="cent" format="2">
  <advance width="502"/>
  <unicode hex="00A2"/>
  <outline>
    <contour>
      <point x="330" y="602" type="curve" smooth="yes"/>
      <point x="172" y="602"/>
      <point x="104" y="536"/>
      <point x="78" y="352" type="curve" smooth="yes"/>
      <point x="52" y="166"/>
      <point x="103" y="98"/>
      <point x="264" y="98" type="curve" smooth="yes"/>
      <point x="310" y="98"/>
      <point x="365" y="105"/>
      <point x="410" y="115" type="curve"/>
      <point x="407" y="133" type="line"/>
      <point x="362" y="125"/>
      <point x="295" y="121"/>
      <point x="266" y="121" type="curve" smooth="yes"/>
      <point x="123" y="121"/>
      <point x="78" y="174"/>
      <point x="103" y="350" type="curve" smooth="yes"/>
      <point x="128" y="528"/>
      <point x="190" y="579"/>
      <point x="335" y="579" type="curve" smooth="yes"/>
      <point x="366" y="579"/>
      <point x="423" y="576"/>
      <point x="457" y="567" type="curve"/>
      <point x="463" y="585" type="line"/>
      <point x="423" y="598"/>
      <point x="367" y="602"/>
    </contour>
    <contour>
      <point x="246" y="113" type="line"/>
      <point x="225" y="113" type="line"/>
      <point x="201" y="0" type="line"/>
      <point x="222" y="0" type="line"/>
    </contour>
    <contour>
      <point x="346" y="589" type="line"/>
      <point x="325" y="589" type="line"/>
      <point x="225" y="110" type="line"/>
      <point x="246" y="110" type="line"/>
    </contour>
    <contour>
      <point x="367" y="690" type="line"/>
      <point x="346" y="690" type="line"/>
      <point x="325" y="586" type="line"/>
      <point x="346" y="586" type="line"/>
    </contour>
  </outline>
</glyph>
<glyph name="currency" format="2">
  <advance width="600"/>
  <unicode hex="00A4"/>
  <outline>
    <contour>
      <point x="327" y="543" type="curve" smooth="yes"/>
      <point x="204" y="543"/>
      <point x="129" y="461"/>
      <point x="118" y="354" type="curve" smooth="yes"/>
      <point x="106" y="244"/>
      <point x="174" y="162"/>
      <point x="291" y="162" type="curve" smooth="yes"/>
      <point x="405" y="162"/>
      <point x="487" y="240"/>
      <point x="498" y="350" type="curve" smooth="yes"/>
      <point x="509" y="455"/>
      <point x="449" y="543"/>
    </contour>
    <contour>
      <point x="162" y="237" type="line"/>
      <point x="69" y="156" type="line"/>
      <point x="82" y="142" type="line"/>
      <point x="174" y="223" type="line"/>
    </contour>
    <contour>
      <point x="434" y="223" type="line"/>
      <point x="420" y="211" type="line"/>
      <point x="492" y="127" type="line"/>
      <point x="507" y="139" type="line"/>
    </contour>
    <contour>
      <point x="328" y="524" type="curve" smooth="yes"/>
      <point x="436" y="524"/>
      <point x="487" y="447"/>
      <point x="478" y="354" type="curve" smooth="yes"/>
      <point x="468" y="250"/>
      <point x="390" y="177"/>
      <point x="283" y="181" type="curve" smooth="yes"/>
      <point x="185" y="185"/>
      <point x="128" y="254"/>
      <point x="138" y="350" type="curve" smooth="yes"/>
      <point x="148" y="450"/>
      <point x="217" y="524"/>
    </contour>
    <contour>
      <point x="127" y="582" type="line"/>
      <point x="113" y="569" type="line"/>
      <point x="183" y="488" type="line"/>
      <point x="198" y="500" type="line"/>
    </contour>
    <contour>
      <point x="530" y="569" type="line"/>
      <point x="439" y="489" type="line"/>
      <point x="451" y="475" type="line"/>
      <point x="542" y="554" type="line"/>
    </contour>
  </outline>
</glyph>
<glyph name="yen" format="2">
  <advance width="601"/>
  <unicode hex="00A5"/>
  <outline>
    <contour>
      <point x="603" y="690" type="line"/>
      <point x="574" y="690" type="line"/>
      <point x="355" y="385" type="line" smooth="yes"/>
      <point x="340" y="365"/>
      <point x="321" y="339"/>
      <point x="306" y="317" type="curve"/>
      <point x="299" y="317" type="line"/>
      <point x="289" y="339"/>
      <point x="278" y="364"/>
      <point x="268" y="386" type="curve" smooth="yes"/>
      <point x="133" y="690" type="line"/>
      <point x="107" y="690" type="line"/>
      <point x="289" y="281" type="line"/>
      <point x="307" y="280" type="line"/>
    </contour>
    <contour>
      <point x="315" y="311" type="line"/>
      <point x="290" y="311" type="line"/>
      <point x="246" y="0" type="line"/>
      <point x="271" y="0" type="line"/>
    </contour>
    <contour>
      <point x="497" y="196" type="line"/>
      <point x="81" y="196" type="line"/>
      <point x="78" y="176" type="line"/>
      <point x="494" y="176" type="line"/>
    </contour>
    <contour>
      <point x="512" y="306" type="line"/>
      <point x="96" y="306" type="line"/>
      <point x="93" y="286" type="line"/>
      <point x="509" y="286" type="line"/>
    </contour>
  </outline>
</glyph>
<glyph name="copyright" format="2">
  <advance width="856"/>
  <unicode hex="00A9"/>
  <outline>
    <contour>
      <point x="484" y="702" type="curve" smooth="yes"/>
      <point x="258" y="702"/>
      <point x="106" y="553"/>
      <point x="79" y="347" type="curve" smooth="yes"/>
      <point x="50" y="129"/>
      <point x="190" y="-12"/>
      <point x="388" y="-12" type="curve" smooth="yes"/>
      <point x="615" y="-12"/>
      <point x="764" y="137"/>
      <point x="792" y="343" type="curve" smooth="yes"/>
      <point x="822" y="561"/>
      <point x="683" y="702"/>
    </contour>
    <contour>
      <point x="472" y="580" type="curve" smooth="yes"/>
      <point x="329" y="580"/>
      <point x="270" y="519"/>
      <point x="246" y="350" type="curve" smooth="yes"/>
      <point x="222" y="179"/>
      <point x="266" y="116"/>
      <point x="411" y="116" type="curve" smooth="yes"/>
      <point x="475" y="116"/>
      <point x="514" y="120"/>
      <point x="555" y="128" type="curve"/>
      <point x="552" y="144" type="line"/>
      <point x="511" y="138"/>
      <point x="472" y="136"/>
      <point x="409" y="136" type="curve" smooth="yes"/>
      <point x="282" y="136"/>
      <point x="246" y="191"/>
      <point x="268" y="346" type="curve" smooth="yes"/>
      <point x="291" y="508"/>
      <point x="344" y="560"/>
      <point x="473" y="560" type="curve" smooth="yes"/>
      <point x="529" y="560"/>
      <point x="557" y="559"/>
      <point x="599" y="554" type="curve"/>
      <point x="604" y="568" type="line"/>
      <point x="566" y="577"/>
      <point x="534" y="580"/>
    </contour>
    <contour>
      <point x="483" y="683" type="curve" smooth="yes"/>
      <point x="671" y="683"/>
      <point x="799" y="552"/>
      <point x="772" y="347" type="curve" smooth="yes"/>
      <point x="746" y="150"/>
      <point x="603" y="7"/>
      <point x="388" y="7" type="curve" smooth="yes"/>
      <point x="204" y="7"/>
      <point x="72" y="138"/>
      <point x="99" y="343" type="curve" smooth="yes"/>
      <point x="125" y="540"/>
      <point x="268" y="683"/>
    </contour>
  </outline>
</glyph>
<glyph name="registered" format="2">
  <advance width="580"/>
  <unicode hex="00AE"/>
  <outline>
    <contour>
      <point x="338" y="701" type="curve" smooth="yes"/>
      <point x="213" y="701"/>
      <point x="110" y="625"/>
      <point x="94" y="486" type="curve" smooth="yes"/>
      <point x="78" y="347"/>
      <point x="165" y="256"/>
      <point x="295" y="256" type="curve" smooth="yes"/>
      <point x="431" y="256"/>
      <point x="522" y="355"/>
      <point x="538" y="477" type="curve" smooth="yes"/>
      <point x="555" y="608"/>
      <point x="478" y="701"/>
    </contour>
    <contour>
      <point x="251" y="620" type="line"/>
      <point x="233" y="620" type="line"/>
      <point x="193" y="337" type="line"/>
      <point x="211" y="337" type="line"/>
    </contour>
    <contour>
      <point x="338" y="685" type="curve" smooth="yes"/>
      <point x="462" y="685"/>
      <point x="537" y="608"/>
      <point x="521" y="481" type="curve" smooth="yes"/>
      <point x="506" y="365"/>
      <point x="421" y="272"/>
      <point x="295" y="272" type="curve" smooth="yes"/>
      <point x="176" y="272"/>
      <point x="96" y="354"/>
      <point x="111" y="482" type="curve" smooth="yes"/>
      <point x="125" y="602"/>
      <point x="207" y="685"/>
    </contour>
    <contour>
      <point x="328" y="623" type="curve" smooth="yes"/>
      <point x="300" y="623"/>
      <point x="270" y="622"/>
      <point x="233" y="620" type="curve"/>
      <point x="239" y="607" type="line"/>
      <point x="247" y="607"/>
      <point x="306" y="608"/>
      <point x="334" y="608" type="curve" smooth="yes"/>
      <point x="401" y="608"/>
      <point x="426" y="602"/>
      <point x="419" y="546" type="curve" smooth="yes"/>
      <point x="412" y="486"/>
      <point x="385" y="477"/>
      <point x="324" y="476" type="curve" smooth="yes"/>
      <point x="219" y="476" type="line"/>
      <point x="217" y="464" type="line"/>
      <point x="229" y="463"/>
      <point x="228" y="462"/>
      <point x="330" y="462" type="curve" smooth="yes"/>
      <point x="354" y="462"/>
      <point x="370" y="453"/>
      <point x="377" y="426" type="curve" smooth="yes"/>
      <point x="400" y="337" type="line"/>
      <point x="419" y="337" type="line"/>
      <point x="395" y="426" type="line" smooth="yes"/>
      <point x="388" y="451"/>
      <point x="378" y="462"/>
      <point x="362" y="466" type="curve"/>
      <point x="362" y="468" type="line"/>
      <point x="409" y="474"/>
      <point x="430" y="491"/>
      <point x="436" y="543" type="curve" smooth="yes"/>
      <point x="444" y="615"/>
      <point x="407" y="623"/>
    </contour>
  </outline>
</glyph>
<glyph name="macron" format="2">
  <advance width="400"/>
  <unicode hex="00AF"/>
  <anchor x="245" y="561" name="_top"/>
  <outline>
    <contour>
      <point x="387" y="648" type="line"/>
      <point x="127" y="648" type="line"/>
      <point x="124" y="625" type="line"/>
      <point x="384" y="625" type="line"/>
    </contour>
  </outline>
</glyph>
<glyph name="degree" format="2">
  <advance width="381"/>
  <unicode hex="00B0"/>
  <outline>
    <contour>
      <point x="242" y="702" type="curve" smooth="yes"/>
      <point x="175" y="702"/>
      <point x="115" y="655"/>
      <point x="107" y="581" type="curve" smooth="yes"/>
      <point x="100" y="514"/>
      <point x="140" y="455"/>
      <point x="217" y="455" type="curve" smooth="yes"/>
      <point x="284" y="455"/>
      <point x="345" y="501"/>
      <point x="353" y="577" type="curve" smooth="yes"/>
      <point x="361" y="650"/>
      <point x="313" y="702"/>
    </contour>
    <contour>
      <point x="242" y="683" type="curve" smooth="yes"/>
      <point x="303" y="683"/>
      <point x="339" y="641"/>
      <point x="333" y="581" type="curve" smooth="yes"/>
      <point x="326" y="514"/>
      <point x="274" y="474"/>
      <point x="217" y="474" type="curve" smooth="yes"/>
      <point x="157" y="474"/>
      <point x="122" y="518"/>
      <point x="127" y="577" type="curve" smooth="yes"/>
      <point x="133" y="638"/>
      <point x="180" y="683"/>
    </contour>
  </outline>
</glyph>
<glyph name="plusminus" format="2">
  <advance width="597"/>
  <unicode hex="00B1"/>
  <outline>
    <contour>
      <point x="339" y="505" type="line"/>
      <point x="316" y="505" type="line"/>
      <point x="273" y="189" type="line"/>
      <point x="294" y="189" type="line"/>
    </contour>
    <contour>
      <point x="482" y="115" type="line"/>
      <point x="65" y="115" type="line"/>
      <point x="61" y="94" type="line"/>
      <point x="478" y="94" type="line"/>
    </contour>
    <contour>
      <point x="516" y="358" type="line"/>
      <point x="99" y="358" type="line"/>
      <point x="95" y="336" type="line"/>
      <point x="512" y="336" type="line"/>
    </contour>
  </outline>
</glyph>
<glyph name="twosuperior" format="2">
  <advance width="364"/>
  <unicode hex="00B2"/>
  <outline>
    <contour>
      <point x="263" y="753" type="curve" smooth="yes"/>
      <point x="231" y="753"/>
      <point x="188" y="749"/>
      <point x="134" y="734" type="curve"/>
      <point x="136" y="716" type="line"/>
      <point x="185" y="728"/>
      <point x="226" y="733"/>
      <point x="263" y="733" type="curve" smooth="yes"/>
      <point x="311" y="733"/>
      <point x="341" y="721"/>
      <point x="341" y="677" type="curve" smooth="yes"/>
      <point x="341" y="618"/>
      <point x="304" y="581"/>
      <point x="247" y="528" type="curve" smooth="yes"/>
      <point x="79" y="370" type="line" smooth="yes"/>
      <point x="77" y="368"/>
      <point x="75" y="366"/>
      <point x="74" y="362" type="curve" smooth="yes"/>
      <point x="73" y="355" type="line"/>
      <point x="343" y="355" type="line"/>
      <point x="346" y="373" type="line"/>
      <point x="176" y="373" type="line"/>
      <point x="153" y="373"/>
      <point x="135" y="373"/>
      <point x="112" y="373" type="curve"/>
      <point x="256" y="508" type="line" smooth="yes"/>
      <point x="312" y="561"/>
      <point x="368" y="614"/>
      <point x="368" y="681" type="curve" smooth="yes"/>
      <point x="368" y="734"/>
      <point x="327" y="753"/>
    </contour>
  </outline>
</glyph>
<glyph name="threesuperior" format="2">
  <advance width="387"/>
  <unicode hex="00B3"/>
  <outline>
    <contour>
      <point x="245" y="753" type="curve" smooth="yes"/>
      <point x="211" y="753"/>
      <point x="170" y="746"/>
      <point x="132" y="735" type="curve"/>
      <point x="135" y="718" type="line"/>
      <point x="162" y="725"/>
      <point x="208" y="733"/>
      <point x="244" y="733" type="curve" smooth="yes"/>
      <point x="310" y="733"/>
      <point x="334" y="722"/>
      <point x="334" y="678" type="curve" smooth="yes"/>
      <point x="334" y="618"/>
      <point x="306" y="573"/>
      <point x="238" y="571" type="curve" smooth="yes"/>
      <point x="153" y="569" type="line"/>
      <point x="150" y="551" type="line"/>
      <point x="233" y="550" type="line" smooth="yes"/>
      <point x="302" y="549"/>
      <point x="317" y="521"/>
      <point x="317" y="488" type="curve" smooth="yes"/>
      <point x="317" y="410"/>
      <point x="283" y="368"/>
      <point x="205" y="368" type="curve" smooth="yes"/>
      <point x="161" y="368"/>
      <point x="115" y="373"/>
      <point x="84" y="381" type="curve"/>
      <point x="75" y="364" type="line"/>
      <point x="108" y="355"/>
      <point x="153" y="347"/>
      <point x="201" y="347" type="curve" smooth="yes"/>
      <point x="293" y="347"/>
      <point x="341" y="396"/>
      <point x="341" y="487" type="curve" smooth="yes"/>
      <point x="341" y="527"/>
      <point x="325" y="552"/>
      <point x="286" y="562" type="curve"/>
      <point x="286" y="564" type="line"/>
      <point x="335" y="578"/>
      <point x="359" y="629"/>
      <point x="359" y="683" type="curve" smooth="yes"/>
      <point x="359" y="735"/>
      <point x="322" y="753"/>
    </contour>
  </outline>
</glyph>
<glyph name="acute" format="2">
  <advance width="277"/>
  <unicode hex="00B4"/>
  <anchor x="152" y="554" name="_top"/>
  <outline>
    <contour>
      <point x="273" y="710" type="line"/>
      <point x="104" y="564" type="line"/>
      <point x="118" y="550" type="line"/>
      <point x="290" y="691" type="line"/>
    </contour>
  </outline>
</glyph>
<glyph name="paragraph" format="2">
  <advance width="597"/>
  <unicode hex="00B6"/>
  <outline>
    <contour>
      <point x="399" y="702" type="curve" smooth="yes"/>
      <point x="191" y="702"/>
      <point x="104" y="661"/>
      <point x="76" y="470" type="curve" smooth="yes"/>
      <point x="52" y="313"/>
      <point x="113" y="215"/>
      <point x="284" y="200" type="curve"/>
      <point x="362" y="679" type="line"/>
      <point x="406" y="679"/>
      <point x="487" y="676"/>
      <point x="536" y="667" type="curve"/>
      <point x="544" y="685" type="line"/>
      <point x="500" y="696"/>
      <point x="439" y="702"/>
    </contour>
    <contour>
      <point x="367" y="685" type="line"/>
      <point x="342" y="685" type="line"/>
      <point x="216" y="-210" type="line"/>
      <point x="241" y="-210" type="line"/>
    </contour>
    <contour>
      <point x="544" y="685" type="line"/>
      <point x="519" y="685" type="line"/>
      <point x="422" y="0" type="line"/>
      <point x="447" y="0" type="line"/>
    </contour>
  </outline>
</glyph>
<glyph name="cedilla" format="2">
  <advance width="219"/>
  <unicode hex="00B8"/>
  <guideline x="77" y="-110" angle="56.4082"/>
  <anchor x="98" y="0" name="_bottom"/>
  <outline>
    <contour>
      <point x="61" y="-49" type="curve"/>
      <point x="58" y="-63" type="line"/>
      <point x="102" y="-64"/>
      <point x="115" y="-76"/>
      <point x="110" y="-112" type="curve" smooth="yes"/>
      <point x="103" y="-163"/>
      <point x="53" y="-207"/>
      <point x="-17" y="-204" type="curve"/>
      <point x="-22" y="-219" type="line"/>
      <point x="62" y="-230"/>
      <point x="122" y="-182"/>
      <point x="131" y="-116" type="curve" smooth="yes"/>
      <point x="138" y="-67"/>
      <point x="113" y="-46"/>
    </contour>
  </outline>
</glyph>
<glyph name="onequarter" format="2">
  <advance width="832"/>
  <unicode hex="00BC"/>
  <outline>
    <contour>
      <point x="680" y="690" type="line"/>
      <point x="656" y="690" type="line"/>
      <point x="79" y="0" type="line"/>
      <point x="103" y="0" type="line"/>
    </contour>
    <contour>
      <point x="251" y="690" type="line"/>
      <point x="230" y="690" type="line"/>
      <point x="98" y="646" type="line"/>
      <point x="100" y="632" type="line"/>
      <point x="229" y="670" type="line"/>
      <point x="226" y="660"/>
      <point x="225" y="650"/>
      <point x="223" y="640" type="curve" smooth="yes"/>
      <point x="172" y="276" type="line"/>
      <point x="193" y="276" type="line"/>
    </contour>
    <contour>
      <point x="644" y="414" type="line"/>
      <point x="621" y="414" type="line"/>
      <point x="438" y="164" type="line" smooth="yes"/>
      <point x="422" y="141"/>
      <point x="436" y="115"/>
      <point x="464" y="115" type="curve" smooth="yes"/>
      <point x="693" y="115" type="line"/>
      <point x="758" y="118" type="line"/>
      <point x="760" y="133" type="line"/>
      <point x="475" y="133" type="line" smooth="yes"/>
      <point x="457" y="133"/>
      <point x="450" y="147"/>
      <point x="460" y="161" type="curve" smooth="yes"/>
    </contour>
    <contour>
      <point x="743" y="336" type="line"/>
      <point x="727" y="336" type="line"/>
      <point x="713" y="266" type="line"/>
      <point x="675" y="0" type="line"/>
      <point x="696" y="0" type="line"/>
    </contour>
  </outline>
</glyph>
<glyph name="threequarters" format="2">
  <advance width="924"/>
  <unicode hex="00BE"/>
  <outline>
    <contour>
      <point x="786" y="690" type="line"/>
      <point x="762" y="690" type="line"/>
      <point x="185" y="0" type="line"/>
      <point x="209" y="0" type="line"/>
    </contour>
    <contour>
      <point x="245" y="695" type="curve" smooth="yes"/>
      <point x="206" y="695"/>
      <point x="169" y="692"/>
      <point x="126" y="685" type="curve"/>
      <point x="129" y="669" type="line"/>
      <point x="161" y="673"/>
      <point x="202" y="676"/>
      <point x="246" y="676" type="curve" smooth="yes"/>
      <point x="334" y="676"/>
      <point x="361" y="660"/>
      <point x="353" y="599" type="curve" smooth="yes"/>
      <point x="348" y="560"/>
      <point x="330" y="504"/>
      <point x="237" y="502" type="curve" smooth="yes"/>
      <point x="152" y="500" type="line"/>
      <point x="149" y="485" type="line"/>
      <point x="236" y="484" type="line" smooth="yes"/>
      <point x="329" y="484"/>
      <point x="341" y="440"/>
      <point x="334" y="392" type="curve" smooth="yes"/>
      <point x="324" y="315"/>
      <point x="282" y="286"/>
      <point x="197" y="286" type="curve" smooth="yes"/>
      <point x="151" y="286"/>
      <point x="106" y="289"/>
      <point x="67" y="293" type="curve"/>
      <point x="63" y="277" type="line"/>
      <point x="106" y="272"/>
      <point x="153" y="267"/>
      <point x="201" y="267" type="curve" smooth="yes"/>
      <point x="305" y="267"/>
      <point x="346" y="306"/>
      <point x="356" y="387" type="curve" smooth="yes"/>
      <point x="362" y="442"/>
      <point x="346" y="484"/>
      <point x="284" y="493" type="curve"/>
      <point x="286" y="495" type="line"/>
      <point x="345" y="505"/>
      <point x="367" y="549"/>
      <point x="374" y="598" type="curve" smooth="yes"/>
      <point x="385" y="671"/>
      <point x="351" y="695"/>
    </contour>
    <contour>
      <point x="735" y="414" type="line"/>
      <point x="712" y="414" type="line"/>
      <point x="529" y="164" type="line" smooth="yes"/>
      <point x="513" y="141"/>
      <point x="527" y="115"/>
      <point x="555" y="115" type="curve" smooth="yes"/>
      <point x="784" y="115" type="line"/>
      <point x="849" y="118" type="line"/>
      <point x="851" y="133" type="line"/>
      <point x="566" y="133" type="line" smooth="yes"/>
      <point x="548" y="133"/>
      <point x="541" y="147"/>
      <point x="551" y="161" type="curve" smooth="yes"/>
    </contour>
    <contour>
      <point x="824" y="336" type="line"/>
      <point x="808" y="336" type="line"/>
      <point x="794" y="266" type="line"/>
      <point x="756" y="0" type="line"/>
      <point x="777" y="0" type="line"/>
    </contour>
  </outline>
</glyph>
<glyph name="questiondown" format="2">
  <advance width="498"/>
  <unicode hex="00BF"/>
  <outline>
    <contour>
      <point x="267" y="286" type="curve"/>
      <point x="244" y="288" type="line"/>
      <point x="219" y="111"/>
      <point x="25" y="87"/>
      <point x="4" y="-65" type="curve" smooth="yes"/>
      <point x="-11" y="-172"/>
      <point x="51" y="-222"/>
      <point x="180" y="-222" type="curve" smooth="yes"/>
      <point x="289" y="-222"/>
      <point x="319" y="-214"/>
      <point x="385" y="-204" type="curve"/>
      <point x="380" y="-186" type="line"/>
      <point x="312" y="-195"/>
      <point x="281" y="-200"/>
      <point x="179" y="-200" type="curve" smooth="yes"/>
      <point x="63" y="-200"/>
      <point x="16" y="-159"/>
      <point x="29" y="-69" type="curve" smooth="yes"/>
      <point x="49" y="74"/>
      <point x="241" y="96"/>
    </contour>
    <contour>
      <point x="289" y="490" type="curve" smooth="yes"/>
      <point x="279" y="490" type="line" smooth="yes"/>
      <point x="271" y="490"/>
      <point x="268" y="487"/>
      <point x="267" y="479" type="curve" smooth="yes"/>
      <point x="258" y="417" type="line" smooth="yes"/>
      <point x="257" y="408"/>
      <point x="261" y="404"/>
      <point x="269" y="404" type="curve" smooth="yes"/>
      <point x="279" y="404" type="line" smooth="yes"/>
      <point x="287" y="404"/>
      <point x="291" y="407"/>
      <point x="292" y="416" type="curve" smooth="yes"/>
      <point x="300" y="478" type="line" smooth="yes"/>
      <point x="301" y="487"/>
      <point x="298" y="490"/>
    </contour>
  </outline>
</glyph>
<glyph name="Eth" format="2">
  <advance width="658"/>
  <unicode hex="00D0"/>
  <outline>
    <contour>
      <point x="321" y="381" type="line"/>
      <point x="33" y="381" type="line"/>
      <point x="30" y="361" type="line"/>
      <point x="318" y="361" type="line"/>
    </contour>
    <component base="D"/>
  </outline>
</glyph>
<glyph name="multiply" format="2">
  <advance width="526"/>
  <unicode hex="00D7"/>
  <outline>
    <contour>
      <point x="451" y="454" type="line"/>
      <point x="57" y="140" type="line"/>
      <point x="71" y="122" type="line"/>
      <point x="466" y="437" type="line"/>
    </contour>
    <contour>
      <point x="118" y="452" type="line"/>
      <point x="102" y="436" type="line"/>
      <point x="407" y="122" type="line"/>
      <point x="423" y="139" type="line"/>
    </contour>
  </outline>
</glyph>
<glyph name="Oslash" format="2">
  <advance width="660"/>
  <unicode hex="00D8"/>
  <anchor x="389" y="740" name="top"/>
  <outline>
    <contour>
      <point x="565" y="741" type="line"/>
      <point x="89" y="-41" type="line"/>
      <point x="108" y="-51" type="line"/>
      <point x="585" y="731" type="line"/>
    </contour>
    <component base="O"/>
  </outline>
</glyph>
<glyph name="germandbls" format="2">
  <advance width="646"/>
  <unicode hex="00DF"/>
  <outline>
    <contour>
      <point x="376" y="712" type="curve" smooth="yes"/>
      <point x="268" y="712"/>
      <point x="177" y="699"/>
      <point x="154" y="532" type="curve" smooth="yes"/>
      <point x="68" y="-76" type="line" smooth="yes"/>
      <point x="56" y="-158"/>
      <point x="26" y="-188"/>
      <point x="-48" y="-188" type="curve" smooth="yes"/>
      <point x="-127" y="-188" type="line"/>
      <point x="-128" y="-206" type="line"/>
      <point x="-103" y="-209"/>
      <point x="-60" y="-210"/>
      <point x="-46" y="-210" type="curve" smooth="yes"/>
      <point x="42" y="-210"/>
      <point x="78" y="-173"/>
      <point x="92" y="-78" type="curve" smooth="yes"/>
      <point x="178" y="530" type="line" smooth="yes"/>
      <point x="196" y="659"/>
      <point x="245" y="690"/>
      <point x="388" y="690" type="curve" smooth="yes"/>
      <point x="531" y="690"/>
      <point x="558" y="659"/>
      <point x="555" y="603" type="curve" smooth="yes"/>
      <point x="551" y="523"/>
      <point x="488" y="502"/>
      <point x="456" y="492" type="curve" smooth="yes"/>
      <point x="367" y="464"/>
      <point x="297" y="450"/>
      <point x="288" y="367" type="curve" smooth="yes"/>
      <point x="282" y="314"/>
      <point x="306" y="289"/>
      <point x="362" y="261" type="curve" smooth="yes"/>
      <point x="488" y="201" type="line" smooth="yes"/>
      <point x="522" y="185"/>
      <point x="558" y="171"/>
      <point x="549" y="104" type="curve" smooth="yes"/>
      <point x="539" y="26"/>
      <point x="487" y="13"/>
      <point x="397" y="11" type="curve" smooth="yes"/>
      <point x="348" y="10"/>
      <point x="294" y="12"/>
      <point x="236" y="18" type="curve"/>
      <point x="233" y="0" type="line"/>
      <point x="301" y="-10"/>
      <point x="356" y="-11"/>
      <point x="387" y="-11" type="curve" smooth="yes"/>
      <point x="489" y="-11"/>
      <point x="560" y="0"/>
      <point x="573" y="100" type="curve" smooth="yes"/>
      <point x="582" y="169"/>
      <point x="555" y="195"/>
      <point x="493" y="224" type="curve" smooth="yes"/>
      <point x="365" y="284" type="line" smooth="yes"/>
      <point x="320" y="305"/>
      <point x="308" y="326"/>
      <point x="311" y="363" type="curve" smooth="yes"/>
      <point x="317" y="438"/>
      <point x="375" y="444"/>
      <point x="458" y="471" type="curve" smooth="yes"/>
      <point x="520" y="491"/>
      <point x="571" y="519"/>
      <point x="576" y="599" type="curve" smooth="yes"/>
      <point x="582" y="689"/>
      <point x="520" y="712"/>
    </contour>
    <contour>
      <point x="164" y="480" type="line"/>
      <point x="153" y="480" type="line"/>
      <point x="59" y="475" type="line"/>
      <point x="56" y="458" type="line"/>
      <point x="160" y="458" type="line"/>
    </contour>
  </outline>
</glyph>
<glyph name="thorn" format="2">
  <advance width="564"/>
  <unicode hex="00FE"/>
  <outline>
    <contour>
      <point x="369" y="492" type="curve" smooth="yes"/>
      <point x="307" y="492"/>
      <point x="204" y="449"/>
      <point x="119" y="352" type="curve"/>
      <point x="119" y="325" type="line"/>
      <point x="202" y="418"/>
      <point x="304" y="469"/>
      <point x="369" y="469" type="curve" smooth="yes"/>
      <point x="470" y="469"/>
      <point x="480" y="401"/>
      <point x="457" y="242" type="curve" smooth="yes"/>
      <point x="429" y="51"/>
      <point x="391" y="10"/>
      <point x="229" y="10" type="curve" smooth="yes"/>
      <point x="180" y="10"/>
      <point x="141" y="14"/>
      <point x="73" y="18" type="curve"/>
      <point x="63" y="0" type="line"/>
      <point x="122" y="-7"/>
      <point x="177" y="-12"/>
      <point x="232" y="-12" type="curve" smooth="yes"/>
      <point x="405" y="-12"/>
      <point x="451" y="38"/>
      <point x="481" y="238" type="curve" smooth="yes"/>
      <point x="507" y="412"/>
      <point x="491" y="492"/>
    </contour>
    <contour>
      <point x="176" y="700" type="line"/>
      <point x="152" y="700" type="line"/>
      <point x="24" y="-210" type="line"/>
      <point x="48" y="-210" type="line"/>
      <point x="65" y="-92" type="line" smooth="yes"/>
      <point x="70" y="-57"/>
      <point x="74" y="-34"/>
      <point x="75" y="1" type="curve"/>
      <point x="80" y="14" type="line"/>
      <point x="124" y="337" type="line"/>
      <point x="123" y="348" type="line"/>
      <point x="132" y="383"/>
      <point x="134" y="406"/>
      <point x="139" y="441" type="curve" smooth="yes"/>
    </contour>
  </outline>
</glyph>
<glyph name="dcroat" format="2">
  <advance width="562"/>
  <unicode hex="0111"/>
  <outline>
    <contour>
      <point x="592" y="610" type="line"/>
      <point x="317" y="610" type="line"/>
      <point x="314" y="590" type="line"/>
      <point x="589" y="590" type="line"/>
    </contour>
    <component base="d"/>
  </outline>
</glyph>
<glyph name="idotless" format="2">
  <advance width="218"/>
  <unicode hex="0131"/>
  <anchor x="68" y="0" name="bottom"/>
  <anchor x="80" y="0" name="ogonek"/>
  <anchor x="146" y="558" name="top"/>
  <outline>
    <contour>
      <point x="148" y="480" type="line"/>
      <point x="124" y="480" type="line"/>
      <point x="56" y="0" type="line"/>
      <point x="80" y="0" type="line"/>
    </contour>
  </outline>
</glyph>
<glyph name="Lslash" format="2">
  <advance width="501"/>
  <unicode hex="0141"/>
  <outline>
    <contour>
      <point x="279" y="445" type="line"/>
      <point x="33" y="343" type="line"/>
      <point x="31" y="323" type="line"/>
      <point x="276" y="425" type="line"/>
    </contour>
    <component base="L"/>
  </outline>
</glyph>
<glyph name="lslash" format="2">
  <advance width="288"/>
  <unicode hex="0142"/>
  <outline>
    <contour>
      <point x="283" y="445" type="line"/>
      <point x="37" y="343" type="line"/>
      <point x="35" y="323" type="line"/>
      <point x="280" y="425" type="line"/>
    </contour>
    <component base="l"/>
  </outline>
</glyph>
<glyph name="Eng" format="2">
  <advance width="688"/>
  <unicode hex="014A"/>
  <outline>
    <contour>
      <point x="641" y="690" type="line"/>
      <point x="616" y="690" type="line"/>
      <point x="534" y="103" type="line"/>
      <point x="530" y="76"/>
      <point x="526" y="48"/>
      <point x="522" y="21" type="curve"/>
      <point x="494" y="21" type="line"/>
      <point x="483" y="48"/>
      <point x="473" y="75"/>
      <point x="462" y="102" type="curve"/>
      <point x="229" y="678" type="line" smooth="yes"/>
      <point x="226" y="686"/>
      <point x="219" y="690"/>
      <point x="211" y="690" type="curve" smooth="yes"/>
      <point x="173" y="690" type="line" smooth="yes"/>
      <point x="163" y="690"/>
      <point x="159" y="686"/>
      <point x="157" y="676" type="curve" smooth="yes"/>
      <point x="62" y="0" type="line"/>
      <point x="87" y="0" type="line"/>
      <point x="172" y="602" type="line" smooth="yes"/>
      <point x="175" y="624"/>
      <point x="178" y="646"/>
      <point x="181" y="668" type="curve"/>
      <point x="206" y="668" type="line"/>
      <point x="215" y="645"/>
      <point x="225" y="624"/>
      <point x="234" y="601" type="curve" smooth="yes"/>
      <point x="472" y="12" type="line" smooth="yes"/>
      <point x="475" y="4"/>
      <point x="481" y="0"/>
      <point x="489" y="0" type="curve" smooth="yes"/>
      <point x="519" y="0" type="line"/>
      <point x="505" y="-99" type="line" smooth="yes"/>
      <point x="496" y="-166"/>
      <point x="457" y="-200"/>
      <point x="390" y="-200" type="curve" smooth="yes"/>
      <point x="333" y="-200" type="line"/>
      <point x="329" y="-216" type="line"/>
      <point x="346" y="-219"/>
      <point x="374" y="-222"/>
      <point x="393" y="-222" type="curve" smooth="yes"/>
      <point x="474" y="-223"/>
      <point x="519" y="-182"/>
      <point x="530" y="-102" type="curve" smooth="yes"/>
    </contour>
  </outline>
</glyph>
<glyph name="OE" format="2">
  <advance width="886"/>
  <unicode hex="0152"/>
  <guideline x="312" y="278" angle="290"/>
  <guideline x="306" y="401" angle="70"/>
  <outline>
    <contour>
      <point x="396" y="702" type="curve" smooth="yes"/>
      <point x="194" y="702"/>
      <point x="120" y="609"/>
      <point x="83" y="347" type="curve" smooth="yes"/>
      <point x="46" y="79"/>
      <point x="98" y="-12"/>
      <point x="298" y="-12" type="curve" smooth="yes"/>
      <point x="371" y="-12"/>
      <point x="405" y="0"/>
      <point x="464" y="27" type="curve"/>
      <point x="457" y="46" type="line"/>
      <point x="398" y="22"/>
      <point x="366" y="11"/>
      <point x="300" y="11" type="curve" smooth="yes"/>
      <point x="115" y="11"/>
      <point x="73" y="98"/>
      <point x="108" y="343" type="curve" smooth="yes"/>
      <point x="144" y="596"/>
      <point x="212" y="679"/>
      <point x="395" y="679" type="curve" smooth="yes"/>
      <point x="446" y="679"/>
      <point x="493" y="671"/>
      <point x="540" y="645" type="curve"/>
      <point x="549" y="666" type="line"/>
      <point x="498" y="692"/>
      <point x="449" y="702"/>
    </contour>
    <contour>
      <point x="484" y="381" type="line"/>
      <point x="481" y="359" type="line"/>
      <point x="797" y="360" type="line"/>
      <point x="800" y="380" type="line"/>
    </contour>
    <contour>
      <point x="610" y="690" type="curve" smooth="yes"/>
      <point x="552" y="690"/>
      <point x="504" y="648"/>
      <point x="496" y="589" type="curve" smooth="yes"/>
      <point x="428" y="103" type="line" smooth="yes"/>
      <point x="419" y="44"/>
      <point x="457" y="0"/>
      <point x="517" y="0" type="curve" smooth="yes"/>
      <point x="608" y="0"/>
      <point x="698" y="0"/>
      <point x="791" y="4" type="curve"/>
      <point x="792" y="22" type="line"/>
      <point x="522" y="22" type="line" smooth="yes"/>
      <point x="474" y="22"/>
      <point x="446" y="55"/>
      <point x="453" y="103" type="curve" smooth="yes"/>
      <point x="520" y="585" type="line" smooth="yes"/>
      <point x="527" y="633"/>
      <point x="567" y="668"/>
      <point x="615" y="668" type="curve" smooth="yes"/>
      <point x="883" y="668" type="line"/>
      <point x="885" y="686" type="line"/>
      <point x="793" y="690"/>
      <point x="703" y="690"/>
    </contour>
  </outline>
</glyph>
<glyph name="Tbar" format="2">
  <advance width="558"/>
  <unicode hex="0166"/>
  <outline>
    <contour>
      <point x="460" y="405" type="line"/>
      <point x="131" y="405" type="line"/>
      <point x="128" y="385" type="line"/>
      <point x="457" y="385" type="line"/>
    </contour>
    <component base="T"/>
  </outline>
</glyph>
<glyph name="Schwa" format="2">
  <advance width="625"/>
  <unicode hex="018F"/>
  <outline>
    <contour>
      <point x="256" y="-12" type="curve" smooth="yes"/>
      <point x="444" y="-12"/>
      <point x="521" y="81"/>
      <point x="557" y="339" type="curve" smooth="yes"/>
      <point x="594" y="607"/>
      <point x="542" y="702"/>
      <point x="352" y="702" type="curve" smooth="yes"/>
      <point x="276" y="702"/>
      <point x="180" y="691"/>
      <point x="128" y="677" type="curve"/>
      <point x="132" y="659" type="line"/>
      <point x="192" y="668"/>
      <point x="270" y="679"/>
      <point x="352" y="679" type="curve" smooth="yes"/>
      <point x="525" y="679"/>
      <point x="569" y="594"/>
      <point x="533" y="343" type="curve" smooth="yes"/>
      <point x="498" y="98"/>
      <point x="429" y="11"/>
      <point x="255" y="11" type="curve" smooth="yes"/>
      <point x="147" y="11"/>
      <point x="50" y="42"/>
      <point x="86" y="195" type="curve" smooth="yes"/>
      <point x="108" y="287"/>
      <point x="161" y="318"/>
      <point x="284" y="335" type="curve" smooth="yes"/>
      <point x="545" y="372" type="line"/>
      <point x="549" y="394" type="line"/>
      <point x="285" y="357" type="line" smooth="yes"/>
      <point x="155" y="339"/>
      <point x="89" y="307"/>
      <point x="62" y="197" type="curve" smooth="yes"/>
      <point x="25" y="44"/>
      <point x="112" y="-12"/>
    </contour>
  </outline>
</glyph>
<glyph name="florin" format="2">
  <advance width="405"/>
  <unicode hex="0192"/>
  <outline>
    <contour>
      <point x="365" y="699" type="curve" smooth="yes"/>
      <point x="274" y="699"/>
      <point x="231" y="655"/>
      <point x="211" y="567" type="curve" smooth="yes"/>
      <point x="78" y="4" type="line" smooth="yes"/>
      <point x="58" y="-78"/>
      <point x="25" y="-108"/>
      <point x="-48" y="-108" type="curve" smooth="yes"/>
      <point x="-117" y="-108" type="line"/>
      <point x="-119" y="-126" type="line"/>
      <point x="-99" y="-129"/>
      <point x="-63" y="-130"/>
      <point x="-42" y="-130" type="curve" smooth="yes"/>
      <point x="42" y="-130"/>
      <point x="81" y="-86"/>
      <point x="102" y="2" type="curve" smooth="yes"/>
      <point x="235" y="565" type="line" smooth="yes"/>
      <point x="254" y="647"/>
      <point x="290" y="677"/>
      <point x="370" y="677" type="curve" smooth="yes"/>
      <point x="439" y="677" type="line"/>
      <point x="442" y="695" type="line"/>
      <point x="421" y="698"/>
      <point x="386" y="699"/>
    </contour>
    <contour>
      <point x="359" y="385" type="line"/>
      <point x="174" y="385" type="line"/>
      <point x="72" y="380" type="line"/>
      <point x="67" y="362" type="line"/>
      <point x="353" y="362" type="line"/>
    </contour>
  </outline>
</glyph>
<glyph name="Aringacute" format="2">
  <advance width="599"/>
  <unicode hex="01FA"/>
  <outline>
    <contour>
      <point x="365" y="630" type="curve" smooth="yes"/>
      <point x="322" y="630" type="line" smooth="yes"/>
      <point x="316" y="630"/>
      <point x="312" y="628"/>
      <point x="309" y="622" type="curve" smooth="yes"/>
      <point x="-22" y="0" type="line"/>
      <point x="6" y="0" type="line"/>
      <point x="300" y="551" type="line" smooth="yes"/>
      <point x="310" y="570"/>
      <point x="318" y="588"/>
      <point x="328" y="607" type="curve"/>
      <point x="357" y="607" type="line"/>
      <point x="362" y="588"/>
      <point x="364" y="572"/>
      <point x="369" y="553" type="curve" smooth="yes"/>
      <point x="517" y="0" type="line"/>
      <point x="543" y="0" type="line"/>
      <point x="378" y="620" type="line" smooth="yes"/>
      <point x="376" y="626"/>
      <point x="371" y="630"/>
    </contour>
    <contour>
      <point x="482" y="224" type="line"/>
      <point x="102" y="224" type="line"/>
      <point x="99" y="202" type="line"/>
      <point x="479" y="202" type="line"/>
    </contour>
    <contour>
      <point x="374" y="859" type="curve" smooth="yes"/>
      <point x="315" y="859"/>
      <point x="268" y="812"/>
      <point x="268" y="754" type="curve" smooth="yes"/>
      <point x="268" y="705"/>
      <point x="301" y="669"/>
      <point x="356" y="669" type="curve" smooth="yes"/>
      <point x="416" y="669"/>
      <point x="462" y="717"/>
      <point x="462" y="774" type="curve" smooth="yes"/>
      <point x="462" y="823"/>
      <point x="429" y="859"/>
    </contour>
    <contour>
      <point x="374" y="840" type="curve" smooth="yes"/>
      <point x="416" y="840"/>
      <point x="441" y="811"/>
      <point x="441" y="776" type="curve" smooth="yes"/>
      <point x="441" y="731"/>
      <point x="409" y="688"/>
      <point x="356" y="688" type="curve" smooth="yes"/>
      <point x="312" y="688"/>
      <point x="289" y="719"/>
      <point x="289" y="756" type="curve" smooth="yes"/>
      <point x="289" y="799"/>
      <point x="323" y="840"/>
    </contour>
    <contour>
      <point x="456" y="981" type="line"/>
      <point x="317" y="896" type="line"/>
      <point x="328" y="881" type="line"/>
      <point x="469" y="960" type="line"/>
    </contour>
  </outline>
</glyph>
<glyph name="schwa" format="2">
  <advance width="526"/>
  <unicode hex="0259"/>
  <outline>
    <contour>
      <point x="216" y="-12" type="curve" smooth="yes"/>
      <point x="360" y="-12"/>
      <point x="433" y="29"/>
      <point x="464" y="236" type="curve" smooth="yes"/>
      <point x="492" y="422"/>
      <point x="450" y="492"/>
      <point x="292" y="492" type="curve" smooth="yes"/>
      <point x="238" y="492"/>
      <point x="140" y="484"/>
      <point x="103" y="474" type="curve"/>
      <point x="106" y="456" type="line"/>
      <point x="148" y="462"/>
      <point x="224" y="470"/>
      <point x="282" y="470" type="curve" smooth="yes"/>
      <point x="427" y="470"/>
      <point x="469" y="423"/>
      <point x="440" y="239" type="curve" smooth="yes"/>
      <point x="409" y="39"/>
      <point x="351" y="10"/>
      <point x="209" y="10" type="curve" smooth="yes"/>
      <point x="119" y="10"/>
      <point x="50" y="25"/>
      <point x="79" y="134" type="curve" smooth="yes"/>
      <point x="96" y="199"/>
      <point x="126" y="216"/>
      <point x="213" y="227" type="curve" smooth="yes"/>
      <point x="454" y="254" type="line"/>
      <point x="457" y="275" type="line"/>
      <point x="214" y="249" type="line" smooth="yes"/>
      <point x="115" y="238"/>
      <point x="74" y="215"/>
      <point x="55" y="136" type="curve" smooth="yes"/>
      <point x="26" y="15"/>
      <point x="100" y="-12"/>
    </contour>
  </outline>
</glyph>
<glyph name="primemod" format="2">
  <advance width="241"/>
  <unicode hex="02B9"/>
  <anchor x="167" y="554" name="_top"/>
  <outline>
    <contour>
      <point x="238" y="746" type="line"/>
      <point x="214" y="746" type="line"/>
      <point x="124" y="538" type="line"/>
      <point x="142" y="538" type="line"/>
    </contour>
  </outline>
</glyph>
<glyph name="doubleprimemod" format="2">
  <advance width="342"/>
  <unicode hex="02BA"/>
  <anchor x="190" y="554" name="_top"/>
  <outline>
    <contour>
      <point x="339" y="746" type="line"/>
      <point x="315" y="746" type="line"/>
      <point x="225" y="538" type="line"/>
      <point x="243" y="538" type="line"/>
    </contour>
    <contour>
      <point x="238" y="746" type="line"/>
      <point x="214" y="746" type="line"/>
      <point x="124" y="538" type="line"/>
      <point x="142" y="538" type="line"/>
    </contour>
  </outline>
</glyph>
<glyph name="commaturnedmod" format="2">
  <advance width="205"/>
  <unicode hex="02BB"/>
  <anchor x="151" y="554" name="_top"/>
  <outline>
    <contour>
      <point x="144" y="542" type="curve" smooth="yes"/>
      <point x="156" y="542" type="line" smooth="yes"/>
      <point x="166" y="542"/>
      <point x="168" y="545"/>
      <point x="169" y="553" type="curve" smooth="yes"/>
      <point x="179" y="617" type="line" smooth="yes"/>
      <point x="180" y="623"/>
      <point x="177" y="627"/>
      <point x="173" y="627" type="curve"/>
      <point x="181" y="675"/>
      <point x="186" y="699"/>
      <point x="198" y="739" type="curve"/>
      <point x="183" y="744" type="line"/>
      <point x="167" y="705"/>
      <point x="151" y="655"/>
      <point x="146" y="619" type="curve" smooth="yes"/>
      <point x="136" y="553" type="line" smooth="yes"/>
      <point x="135" y="545"/>
      <point x="137" y="542"/>
    </contour>
  </outline>
</glyph>
<glyph name="ringhalfright" format="2">
  <advance width="186"/>
  <unicode hex="02BE"/>
  <anchor x="135" y="564" name="_top"/>
  <outline>
    <contour>
      <point x="86" y="562" type="curve"/>
      <point x="83" y="543" type="line"/>
      <point x="145" y="543"/>
      <point x="192" y="590"/>
      <point x="192" y="648" type="curve" smooth="yes"/>
      <point x="192" y="697"/>
      <point x="161" y="730"/>
      <point x="110" y="733" type="curve"/>
      <point x="107" y="714" type="line"/>
      <point x="149" y="712"/>
      <point x="171" y="683"/>
      <point x="171" y="646" type="curve" smooth="yes"/>
      <point x="171" y="603"/>
      <point x="137" y="562"/>
    </contour>
  </outline>
</glyph>
<glyph name="caron" format="2">
  <advance width="392"/>
  <unicode hex="02C7"/>
  <anchor x="241" y="564" name="_top"/>
  <outline>
    <contour>
      <point x="395" y="704" type="line"/>
      <point x="249" y="602" type="line"/>
      <point x="241" y="602" type="line"/>
      <point x="125" y="704" type="line"/>
      <point x="114" y="692" type="line"/>
      <point x="234" y="575" type="line"/>
      <point x="252" y="575" type="line"/>
      <point x="406" y="692" type="line"/>
    </contour>
  </outline>
</glyph>
<glyph name="secondtonechinese" format="2">
  <advance width="277"/>
  <unicode hex="02CA"/>
  <anchor x="152" y="554" name="_top"/>
  <outline>
    <contour>
      <point x="273" y="710" type="line"/>
      <point x="104" y="564" type="line"/>
      <point x="118" y="550" type="line"/>
      <point x="290" y="691" type="line"/>
    </contour>
  </outline>
</glyph>
<glyph name="fourthtonechinese" format="2">
  <advance width="277"/>
  <unicode hex="02CB"/>
  <anchor x="222" y="554" name="_top"/>
  <outline>
    <contour>
      <point x="132" y="709" type="line"/>
      <point x="113" y="691" type="line"/>
      <point x="247" y="550" type="line"/>
      <point x="261" y="562" type="line"/>
    </contour>
  </outline>
</glyph>
<glyph name="dotaccent" format="2">
  <advance width="206"/>
  <unicode hex="02D9"/>
  <anchor x="147" y="556" name="_top"/>
  <outline>
    <contour>
      <point x="169" y="676" type="curve" smooth="yes"/>
      <point x="158" y="676" type="line" smooth="yes"/>
      <point x="149" y="676"/>
      <point x="146" y="672"/>
      <point x="145" y="663" type="curve" smooth="yes"/>
      <point x="137" y="603" type="line" smooth="yes"/>
      <point x="136" y="595"/>
      <point x="140" y="590"/>
      <point x="148" y="590" type="curve" smooth="yes"/>
      <point x="157" y="590" type="line" smooth="yes"/>
      <point x="166" y="590"/>
      <point x="170" y="594"/>
      <point x="171" y="603" type="curve" smooth="yes"/>
      <point x="179" y="663" type="line" smooth="yes"/>
      <point x="180" y="672"/>
      <point x="177" y="676"/>
    </contour>
  </outline>
</glyph>
<glyph name="tilde" format="2">
  <advance width="400"/>
  <unicode hex="02DC"/>
  <anchor x="245" y="561" name="_top"/>
  <outline>
    <contour>
      <point x="191" y="687" type="curve" smooth="yes"/>
      <point x="145" y="691"/>
      <point x="112" y="660"/>
      <point x="105" y="599" type="curve"/>
      <point x="122" y="597" type="line"/>
      <point x="129" y="646"/>
      <point x="150" y="669"/>
      <point x="192" y="665" type="curve" smooth="yes"/>
      <point x="240" y="660"/>
      <point x="255" y="602"/>
      <point x="322" y="597" type="curve" smooth="yes"/>
      <point x="368" y="593"/>
      <point x="401" y="623"/>
      <point x="407" y="681" type="curve"/>
      <point x="390" y="683" type="line"/>
      <point x="384" y="636"/>
      <point x="363" y="616"/>
      <point x="321" y="619" type="curve" smooth="yes"/>
      <point x="264" y="624"/>
      <point x="250" y="682"/>
    </contour>
  </outline>
</glyph>
<glyph name="acutecomb" format="2">
  <unicode hex="0301"/>
  <anchor x="-126" y="554" name="_top"/>
  <outline>
    <contour>
      <point x="-5" y="710" type="line"/>
      <point x="-174" y="564" type="line"/>
      <point x="-160" y="550" type="line"/>
      <point x="12" y="691" type="line"/>
    </contour>
  </outline>
</glyph>
<glyph name="circumflexcomb" format="2">
  <unicode hex="0302"/>
  <anchor x="-158" y="564" name="_top"/>
  <outline>
    <contour>
      <point x="-131" y="704" type="line"/>
      <point x="-149" y="704" type="line"/>
      <point x="-301" y="587" type="line"/>
      <point x="-291" y="574" type="line"/>
      <point x="-146" y="677" type="line"/>
      <point x="-137" y="677" type="line"/>
      <point x="-22" y="575" type="line"/>
      <point x="-10" y="587" type="line"/>
    </contour>
  </outline>
</glyph>
<glyph name="macroncomb" format="2">
  <unicode hex="0304"/>
  <anchor x="-155" y="561" name="_top"/>
  <outline>
    <contour>
      <point x="-13" y="648" type="line"/>
      <point x="-273" y="648" type="line"/>
      <point x="-276" y="625" type="line"/>
      <point x="-16" y="625" type="line"/>
    </contour>
  </outline>
</glyph>
<glyph name="dieresiscomb" format="2">
  <unicode hex="0308"/>
  <anchor x="-161" y="562" name="_top"/>
  <outline>
    <contour>
      <point x="-229" y="678" type="curve" smooth="yes"/>
      <point x="-238" y="678" type="line" smooth="yes"/>
      <point x="-246" y="678"/>
      <point x="-249" y="674"/>
      <point x="-250" y="666" type="curve" smooth="yes"/>
      <point x="-258" y="612" type="line" smooth="yes"/>
      <point x="-259" y="603"/>
      <point x="-255" y="600"/>
      <point x="-248" y="600" type="curve" smooth="yes"/>
      <point x="-241" y="600" type="line" smooth="yes"/>
      <point x="-232" y="600"/>
      <point x="-229" y="603"/>
      <point x="-228" y="613" type="curve" smooth="yes"/>
      <point x="-220" y="666" type="line" smooth="yes"/>
      <point x="-219" y="674"/>
      <point x="-221" y="678"/>
    </contour>
    <contour>
      <point x="-52" y="678" type="curve" smooth="yes"/>
      <point x="-61" y="678" type="line" smooth="yes"/>
      <point x="-69" y="678"/>
      <point x="-72" y="674"/>
      <point x="-73" y="666" type="curve" smooth="yes"/>
      <point x="-81" y="612" type="line" smooth="yes"/>
      <point x="-82" y="603"/>
      <point x="-78" y="600"/>
      <point x="-71" y="600" type="curve" smooth="yes"/>
      <point x="-64" y="600" type="line" smooth="yes"/>
      <point x="-55" y="600"/>
      <point x="-52" y="603"/>
      <point x="-51" y="613" type="curve" smooth="yes"/>
      <point x="-43" y="666" type="line" smooth="yes"/>
      <point x="-42" y="674"/>
      <point x="-44" y="678"/>
    </contour>
  </outline>
</glyph>
<glyph name="ringcomb" format="2">
  <unicode hex="030A"/>
  <anchor x="-108" y="564" name="_top"/>
  <outline>
    <contour>
      <point x="-89" y="733" type="curve" smooth="yes"/>
      <point x="-148" y="733"/>
      <point x="-195" y="686"/>
      <point x="-195" y="628" type="curve" smooth="yes"/>
      <point x="-195" y="579"/>
      <point x="-162" y="543"/>
      <point x="-107" y="543" type="curve" smooth="yes"/>
      <point x="-48" y="543"/>
      <point x="-1" y="590"/>
      <point x="-1" y="648" type="curve" smooth="yes"/>
      <point x="-1" y="697"/>
      <point x="-34" y="733"/>
    </contour>
    <contour>
      <point x="-89" y="714" type="curve" smooth="yes"/>
      <point x="-47" y="714"/>
      <point x="-22" y="685"/>
      <point x="-22" y="650" type="curve" smooth="yes"/>
      <point x="-22" y="605"/>
      <point x="-54" y="562"/>
      <point x="-107" y="562" type="curve" smooth="yes"/>
      <point x="-151" y="562"/>
      <point x="-174" y="593"/>
      <point x="-174" y="630" type="curve" smooth="yes"/>
      <point x="-174" y="673"/>
      <point x="-140" y="714"/>
    </contour>
  </outline>
</glyph>
<glyph name="caroncomb" format="2">
  <unicode hex="030C"/>
  <anchor x="-159" y="564" name="_top"/>
  <outline>
    <contour>
      <point x="-5" y="704" type="line"/>
      <point x="-151" y="602" type="line"/>
      <point x="-159" y="602" type="line"/>
      <point x="-275" y="704" type="line"/>
      <point x="-286" y="692" type="line"/>
      <point x="-166" y="575" type="line"/>
      <point x="-148" y="575" type="line"/>
      <point x="6" y="692" type="line"/>
    </contour>
  </outline>
</glyph>
<glyph name="breveinvertedcomb" format="2">
  <unicode hex="0311"/>
  <anchor x="-141" y="554" name="_top"/>
  <outline>
    <contour>
      <point x="-256" y="569" type="line"/>
      <point x="-248" y="629"/>
      <point x="-196" y="664"/>
      <point x="-124" y="664" type="curve" smooth="yes"/>
      <point x="-52" y="664"/>
      <point x="-10" y="631"/>
      <point x="-19" y="571" type="curve"/>
      <point x="-1" y="573" type="line"/>
      <point x="9" y="644"/>
      <point x="-39" y="688"/>
      <point x="-124" y="688" type="curve" smooth="yes"/>
      <point x="-206" y="688"/>
      <point x="-263" y="646"/>
      <point x="-273" y="575" type="curve"/>
    </contour>
  </outline>
</glyph>
<glyph name="commaturnedabovecomb" format="2">
  <unicode hex="0312"/>
  <anchor x="-144" y="554" name="_top"/>
  <outline>
    <contour>
      <point x="-149" y="554" type="curve" smooth="yes"/>
      <point x="-140" y="554" type="line" smooth="yes"/>
      <point x="-133" y="554"/>
      <point x="-131" y="556"/>
      <point x="-130" y="562" type="curve" smooth="yes"/>
      <point x="-123" y="611" type="line" smooth="yes"/>
      <point x="-122" y="616"/>
      <point x="-124" y="619"/>
      <point x="-127" y="619" type="curve"/>
      <point x="-123" y="652"/>
      <point x="-117" y="678"/>
      <point x="-107" y="707" type="curve"/>
      <point x="-119" y="711" type="line"/>
      <point x="-132" y="683"/>
      <point x="-144" y="641"/>
      <point x="-148" y="613" type="curve" smooth="yes"/>
      <point x="-155" y="562" type="line" smooth="yes"/>
      <point x="-156" y="556"/>
      <point x="-154" y="554"/>
    </contour>
  </outline>
</glyph>
<glyph name="horncomb" format="2">
  <unicode hex="031B"/>
  <anchor x="-64" y="554" name="_top"/>
  <outline>
    <contour>
      <point x="-142" y="418" type="line"/>
      <point x="-68" y="420"/>
      <point x="-14" y="466"/>
      <point x="2" y="538" type="curve"/>
      <point x="-21" y="547" type="line"/>
      <point x="-36" y="481"/>
      <point x="-75" y="437"/>
      <point x="-143" y="435" type="curve"/>
    </contour>
  </outline>
</glyph>
<glyph name="dotbelowcomb" format="2">
  <unicode hex="0323"/>
  <anchor x="-210" y="0" name="_bottom"/>
  <outline>
    <contour>
      <point x="-211" y="-64" type="curve" smooth="yes"/>
      <point x="-222" y="-64" type="line" smooth="yes"/>
      <point x="-231" y="-64"/>
      <point x="-234" y="-68"/>
      <point x="-235" y="-77" type="curve" smooth="yes"/>
      <point x="-243" y="-137" type="line" smooth="yes"/>
      <point x="-244" y="-145"/>
      <point x="-240" y="-150"/>
      <point x="-232" y="-150" type="curve" smooth="yes"/>
      <point x="-223" y="-150" type="line" smooth="yes"/>
      <point x="-214" y="-150"/>
      <point x="-210" y="-146"/>
      <point x="-209" y="-137" type="curve" smooth="yes"/>
      <point x="-201" y="-77" type="line" smooth="yes"/>
      <point x="-200" y="-68"/>
      <point x="-203" y="-64"/>
    </contour>
  </outline>
</glyph>
<glyph name="dieresisbelowcomb" format="2">
  <unicode hex="0324"/>
  <anchor x="-243" y="0" name="_bottom"/>
  <outline>
    <contour>
      <point x="-334" y="-68" type="curve" smooth="yes"/>
      <point x="-343" y="-68" type="line" smooth="yes"/>
      <point x="-351" y="-68"/>
      <point x="-354" y="-72"/>
      <point x="-355" y="-80" type="curve" smooth="yes"/>
      <point x="-363" y="-134" type="line" smooth="yes"/>
      <point x="-364" y="-143"/>
      <point x="-360" y="-146"/>
      <point x="-353" y="-146" type="curve" smooth="yes"/>
      <point x="-346" y="-146" type="line" smooth="yes"/>
      <point x="-337" y="-146"/>
      <point x="-334" y="-143"/>
      <point x="-333" y="-133" type="curve" smooth="yes"/>
      <point x="-325" y="-80" type="line" smooth="yes"/>
      <point x="-324" y="-72"/>
      <point x="-326" y="-68"/>
    </contour>
    <contour>
      <point x="-157" y="-68" type="curve" smooth="yes"/>
      <point x="-166" y="-68" type="line" smooth="yes"/>
      <point x="-174" y="-68"/>
      <point x="-177" y="-72"/>
      <point x="-178" y="-80" type="curve" smooth="yes"/>
      <point x="-186" y="-134" type="line" smooth="yes"/>
      <point x="-187" y="-143"/>
      <point x="-183" y="-146"/>
      <point x="-176" y="-146" type="curve" smooth="yes"/>
      <point x="-169" y="-146" type="line" smooth="yes"/>
      <point x="-160" y="-146"/>
      <point x="-157" y="-143"/>
      <point x="-156" y="-133" type="curve" smooth="yes"/>
      <point x="-148" y="-80" type="line" smooth="yes"/>
      <point x="-147" y="-72"/>
      <point x="-149" y="-68"/>
    </contour>
  </outline>
</glyph>
<glyph name="cedillacomb" format="2">
  <unicode hex="0327"/>
  <anchor x="-125" y="0" name="_bottom"/>
  <outline>
    <contour>
      <point x="-162" y="-49" type="curve"/>
      <point x="-165" y="-63" type="line"/>
      <point x="-121" y="-64"/>
      <point x="-108" y="-76"/>
      <point x="-113" y="-112" type="curve" smooth="yes"/>
      <point x="-120" y="-163"/>
      <point x="-170" y="-207"/>
      <point x="-240" y="-204" type="curve"/>
      <point x="-245" y="-219" type="line"/>
      <point x="-161" y="-230"/>
      <point x="-101" y="-182"/>
      <point x="-92" y="-116" type="curve" smooth="yes"/>
      <point x="-85" y="-67"/>
      <point x="-110" y="-46"/>
    </contour>
  </outline>
</glyph>
<glyph name="brevebelowcomb" format="2">
  <unicode hex="032E"/>
  <anchor x="-221" y="0" name="_bottom"/>
  <outline>
    <contour>
      <point x="-105" y="-42" type="line"/>
      <point x="-113" y="-102"/>
      <point x="-165" y="-137"/>
      <point x="-237" y="-137" type="curve" smooth="yes"/>
      <point x="-309" y="-137"/>
      <point x="-351" y="-104"/>
      <point x="-342" y="-44" type="curve"/>
      <point x="-360" y="-46" type="line"/>
      <point x="-370" y="-117"/>
      <point x="-322" y="-161"/>
      <point x="-237" y="-161" type="curve" smooth="yes"/>
      <point x="-155" y="-161"/>
      <point x="-98" y="-119"/>
      <point x="-88" y="-48" type="curve"/>
    </contour>
  </outline>
</glyph>
<glyph name="mu" format="2">
  <advance width="574"/>
  <unicode hex="03BC"/>
  <outline>
    <contour>
      <point x="149" y="480" type="line"/>
      <point x="125" y="480" type="line"/>
      <point x="74" y="120" type="line"/>
      <point x="62" y="34"/>
      <point x="103" y="-12"/>
      <point x="189" y="-12" type="curve" smooth="yes"/>
      <point x="263" y="-12"/>
      <point x="368" y="33"/>
      <point x="430" y="136" type="curve"/>
      <point x="437" y="206" type="line"/>
      <point x="408" y="84"/>
      <point x="284" y="11"/>
      <point x="190" y="11" type="curve" smooth="yes"/>
      <point x="117" y="11"/>
      <point x="88" y="45"/>
      <point x="98" y="121" type="curve" smooth="yes"/>
    </contour>
    <contour>
      <point x="499" y="480" type="line"/>
      <point x="475" y="480" type="line"/>
      <point x="429" y="157" type="line"/>
      <point x="430" y="137" type="line"/>
      <point x="422" y="84" type="line" smooth="yes"/>
      <point x="414" y="29"/>
      <point x="420" y="-6"/>
      <point x="470" y="-6" type="curve" smooth="yes"/>
      <point x="488" y="-6"/>
      <point x="510" y="-4"/>
      <point x="523" y="0" type="curve"/>
      <point x="522" y="15" type="line"/>
      <point x="478" y="15" type="line" smooth="yes"/>
      <point x="437" y="15"/>
      <point x="438" y="48"/>
      <point x="444" y="90" type="curve" smooth="yes"/>
    </contour>
    <contour>
      <point x="93" y="91" type="line"/>
      <point x="78" y="145" type="line"/>
      <point x="29" y="-197" type="line"/>
      <point x="46" y="-197" type="line"/>
      <point x="65" y="-105" type="line"/>
    </contour>
  </outline>
</glyph>
<glyph name="pi" format="2">
  <advance width="637"/>
  <unicode hex="03C0"/>
  <outline>
    <contour>
      <point x="523" y="480" type="line"/>
      <point x="499" y="480" type="line"/>
      <point x="431" y="0" type="line"/>
      <point x="455" y="0" type="line"/>
    </contour>
    <contour>
      <point x="191" y="480" type="line"/>
      <point x="167" y="480" type="line"/>
      <point x="99" y="0" type="line"/>
      <point x="123" y="0" type="line"/>
    </contour>
    <contour>
      <point x="634" y="480" type="line"/>
      <point x="56" y="480" type="line"/>
      <point x="53" y="459" type="line"/>
      <point x="631" y="459" type="line"/>
    </contour>
  </outline>
</glyph>
<glyph name="Dje-cy" format="2">
  <advance width="743"/>
  <unicode hex="0402"/>
  <outline>
    <contour>
      <point x="590" y="690" type="line"/>
      <point x="80" y="690" type="line"/>
      <point x="77" y="668" type="line"/>
      <point x="587" y="668" type="line"/>
    </contour>
    <contour>
      <point x="347" y="690" type="line"/>
      <point x="322" y="690" type="line"/>
      <point x="225" y="0" type="line"/>
      <point x="250" y="0" type="line"/>
    </contour>
    <contour>
      <point x="540" y="432" type="curve" smooth="yes"/>
      <point x="455" y="432"/>
      <point x="388" y="411"/>
      <point x="285" y="342" type="curve"/>
      <point x="284" y="319" type="line"/>
      <point x="380" y="379"/>
      <point x="437" y="409"/>
      <point x="537" y="409" type="curve" smooth="yes"/>
      <point x="629" y="409"/>
      <point x="673" y="369"/>
      <point x="653" y="226" type="curve" smooth="yes"/>
      <point x="630" y="65"/>
      <point x="533" y="25"/>
      <point x="394" y="18" type="curve"/>
      <point x="395" y="1" type="line"/>
      <point x="549" y="-4"/>
      <point x="654" y="55"/>
      <point x="678" y="223" type="curve" smooth="yes"/>
      <point x="699" y="375"/>
      <point x="650" y="432"/>
    </contour>
  </outline>
</glyph>
<glyph name="E-cy" format="2">
  <advance width="565"/>
  <unicode hex="0404"/>
  <outline>
    <contour>
      <point x="395" y="702" type="curve" smooth="yes"/>
      <point x="200" y="702"/>
      <point x="119" y="609"/>
      <point x="82" y="347" type="curve" smooth="yes"/>
      <point x="45" y="83"/>
      <point x="102" y="-12"/>
      <point x="299" y="-12" type="curve" smooth="yes"/>
      <point x="382" y="-12"/>
      <point x="429" y="-6"/>
      <point x="484" y="6" type="curve"/>
      <point x="479" y="24" type="line"/>
      <point x="425" y="15"/>
      <point x="379" y="11"/>
      <point x="298" y="11" type="curve" smooth="yes"/>
      <point x="122" y="11"/>
      <point x="73" y="96"/>
      <point x="107" y="343" type="curve" smooth="yes"/>
      <point x="142" y="592"/>
      <point x="218" y="679"/>
      <point x="396" y="679" type="curve" smooth="yes"/>
      <point x="470" y="679"/>
      <point x="508" y="676"/>
      <point x="563" y="667" type="curve"/>
      <point x="570" y="685" type="line"/>
      <point x="519" y="697"/>
      <point x="475" y="702"/>
    </contour>
    <contour>
      <point x="107" y="381" type="line"/>
      <point x="104" y="359" type="line"/>
      <point x="426" y="360" type="line"/>
      <point x="429" y="380" type="line"/>
    </contour>
  </outline>
</glyph>
<glyph name="Dze-cy" format="2">
  <advance width="553"/>
  <unicode hex="0405"/>
  <outline>
    <contour>
      <point x="329" y="701" type="curve" smooth="yes"/>
      <point x="207" y="703"/>
      <point x="117" y="695"/>
      <point x="97" y="546" type="curve" smooth="yes"/>
      <point x="86" y="454"/>
      <point x="111" y="409"/>
      <point x="208" y="367" type="curve" smooth="yes"/>
      <point x="358" y="304" type="line" smooth="yes"/>
      <point x="442" y="267"/>
      <point x="461" y="236"/>
      <point x="449" y="151" type="curve" smooth="yes"/>
      <point x="429" y="29"/>
      <point x="365" y="14"/>
      <point x="241" y="12" type="curve" smooth="yes"/>
      <point x="170" y="11"/>
      <point x="114" y="13"/>
      <point x="41" y="19" type="curve"/>
      <point x="37" y="0" type="line"/>
      <point x="121" y="-10"/>
      <point x="189" y="-11"/>
      <point x="227" y="-11" type="curve" smooth="yes"/>
      <point x="367" y="-11"/>
      <point x="453" y="1"/>
      <point x="475" y="147" type="curve" smooth="yes"/>
      <point x="488" y="246"/>
      <point x="463" y="285"/>
      <point x="359" y="330" type="curve" smooth="yes"/>
      <point x="209" y="393" type="line" smooth="yes"/>
      <point x="129" y="429"/>
      <point x="115" y="469"/>
      <point x="123" y="542" type="curve" smooth="yes"/>
      <point x="140" y="675"/>
      <point x="219" y="678"/>
      <point x="311" y="678" type="curve" smooth="yes"/>
      <point x="387" y="678"/>
      <point x="422" y="676"/>
      <point x="511" y="670" type="curve"/>
      <point x="515" y="689" type="line"/>
      <point x="456" y="696"/>
      <point x="394" y="700"/>
    </contour>
  </outline>
</glyph>
<glyph name="I-cy" format="2">
  <advance width="230"/>
  <unicode hex="0406"/>
  <anchor x="172" y="690" name="top"/>
  <outline>
    <contour>
      <point x="184" y="690" type="line"/>
      <point x="159" y="690" type="line"/>
      <point x="62" y="0" type="line"/>
      <point x="87" y="0" type="line"/>
    </contour>
  </outline>
</glyph>
<glyph name="Je-cy" format="2">
  <advance width="322"/>
  <unicode hex="0408"/>
  <outline>
    <contour>
      <point x="279" y="690" type="line"/>
      <point x="254" y="690" type="line"/>
      <point x="174" y="117" type="line" smooth="yes"/>
      <point x="164" y="50"/>
      <point x="126" y="16"/>
      <point x="59" y="16" type="curve" smooth="yes"/>
      <point x="2" y="16" type="line"/>
      <point x="-3" y="0" type="line"/>
      <point x="15" y="-3"/>
      <point x="42" y="-6"/>
      <point x="61" y="-6" type="curve" smooth="yes"/>
      <point x="142" y="-7"/>
      <point x="187" y="34"/>
      <point x="198" y="114" type="curve" smooth="yes"/>
    </contour>
  </outline>
</glyph>
<glyph name="Tshe-cy" format="2">
  <advance width="784"/>
  <unicode hex="040B"/>
  <outline>
    <contour>
      <point x="590" y="690" type="line"/>
      <point x="80" y="690" type="line"/>
      <point x="77" y="668" type="line"/>
      <point x="587" y="668" type="line"/>
    </contour>
    <contour>
      <point x="347" y="690" type="line"/>
      <point x="322" y="690" type="line"/>
      <point x="225" y="0" type="line"/>
      <point x="250" y="0" type="line"/>
    </contour>
    <contour>
      <point x="591" y="432" type="curve" smooth="yes"/>
      <point x="496" y="432"/>
      <point x="400" y="408"/>
      <point x="285" y="322" type="curve"/>
      <point x="284" y="299" type="line"/>
      <point x="407" y="381"/>
      <point x="482" y="409"/>
      <point x="587" y="409" type="curve" smooth="yes"/>
      <point x="671" y="409"/>
      <point x="703" y="371"/>
      <point x="691" y="285" type="curve" smooth="yes"/>
      <point x="651" y="0" type="line"/>
      <point x="676" y="0" type="line"/>
      <point x="716" y="286" type="line" smooth="yes"/>
      <point x="730" y="383"/>
      <point x="689" y="432"/>
    </contour>
  </outline>
</glyph>
<glyph name="Dzhe-cy" format="2">
  <advance width="666"/>
  <unicode hex="040F"/>
  <outline>
    <contour>
      <point x="184" y="690" type="line"/>
      <point x="159" y="690" type="line"/>
      <point x="62" y="0" type="line"/>
      <point x="87" y="0" type="line"/>
    </contour>
    <contour>
      <point x="512" y="22" type="line"/>
      <point x="82" y="22" type="line"/>
      <point x="79" y="0" type="line"/>
      <point x="509" y="0" type="line"/>
    </contour>
    <contour>
      <point x="619" y="690" type="line"/>
      <point x="594" y="690" type="line"/>
      <point x="497" y="0" type="line"/>
      <point x="522" y="0" type="line"/>
    </contour>
    <contour>
      <point x="313" y="7" type="line"/>
      <point x="289" y="7" type="line"/>
      <point x="271" y="-151" type="line"/>
      <point x="289" y="-151" type="line"/>
    </contour>
  </outline>
</glyph>
<glyph name="A-cy" format="2">
  <advance width="599"/>
  <unicode hex="0410"/>
  <anchor x="361" y="741" name="top"/>
  <outline>
    <contour>
      <point x="378" y="690" type="curve" smooth="yes"/>
      <point x="335" y="690" type="line" smooth="yes"/>
      <point x="329" y="690"/>
      <point x="325" y="688"/>
      <point x="322" y="682" type="curve" smooth="yes"/>
      <point x="-22" y="0" type="line"/>
      <point x="6" y="0" type="line"/>
      <point x="313" y="611" type="line" smooth="yes"/>
      <point x="323" y="630"/>
      <point x="331" y="648"/>
      <point x="341" y="667" type="curve"/>
      <point x="370" y="667" type="line"/>
      <point x="375" y="648"/>
      <point x="378" y="632"/>
      <point x="382" y="613" type="curve" smooth="yes"/>
      <point x="517" y="0" type="line"/>
      <point x="543" y="0" type="line"/>
      <point x="391" y="680" type="line" smooth="yes"/>
      <point x="390" y="686"/>
      <point x="384" y="690"/>
    </contour>
    <contour>
      <point x="474" y="274" type="line"/>
      <point x="124" y="274" type="line"/>
      <point x="121" y="252" type="line"/>
      <point x="471" y="252" type="line"/>
    </contour>
  </outline>
</glyph>
<glyph name="De-cy" format="2">
  <advance width="649"/>
  <unicode hex="0414"/>
  <guideline x="201" y="586" angle="0"/>
  <outline>
    <contour>
      <point x="589" y="690" type="line"/>
      <point x="355" y="690" type="line" smooth="yes"/>
      <point x="289" y="690"/>
      <point x="251" y="665"/>
      <point x="239" y="589" type="curve" smooth="yes"/>
      <point x="206" y="380"/>
      <point x="150" y="166"/>
      <point x="24" y="3" type="curve"/>
      <point x="52" y="2" type="line"/>
      <point x="176" y="168"/>
      <point x="227" y="381"/>
      <point x="262" y="585" type="curve" smooth="yes"/>
      <point x="273" y="649"/>
      <point x="302" y="668"/>
      <point x="356" y="668" type="curve" smooth="yes"/>
      <point x="561" y="668" type="line"/>
      <point x="467" y="0" type="line"/>
      <point x="492" y="0" type="line"/>
    </contour>
    <contour>
      <point x="7" y="7" type="line"/>
      <point x="-17" y="7" type="line"/>
      <point x="-39" y="-151" type="line"/>
      <point x="-21" y="-151" type="line"/>
    </contour>
    <contour>
      <point x="577" y="22" type="line"/>
      <point x="-15" y="22" type="line"/>
      <point x="-18" y="0" type="line"/>
      <point x="574" y="0" type="line"/>
    </contour>
    <contour>
      <point x="575" y="7" type="line"/>
      <point x="551" y="7" type="line"/>
      <point x="535" y="-151" type="line"/>
      <point x="553" y="-151" type="line"/>
    </contour>
  </outline>
</glyph>
<glyph name="Zhe-cy" format="2">
  <advance width="890"/>
  <unicode hex="0416"/>
  <anchor x="836" y="0" name="bottomright"/>
  <anchor x="515" y="741" name="top"/>
  <outline>
    <contour>
      <point x="145" y="690" type="curve"/>
      <point x="120" y="690" type="line"/>
      <point x="154" y="549"/>
      <point x="189" y="374"/>
      <point x="282" y="362" type="curve"/>
      <point x="282" y="360" type="line"/>
      <point x="167" y="352"/>
      <point x="95" y="197"/>
      <point x="6" y="0" type="curve"/>
      <point x="34" y="0" type="line"/>
      <point x="129" y="209"/>
      <point x="195" y="350"/>
      <point x="331" y="349" type="curve"/>
      <point x="329" y="371" type="line"/>
      <point x="211" y="371"/>
      <point x="181" y="541"/>
    </contour>
    <contour>
      <point x="457" y="371" type="line"/>
      <point x="301" y="371" type="line"/>
      <point x="298" y="349" type="line"/>
      <point x="454" y="349" type="line"/>
    </contour>
    <contour>
      <point x="518" y="690" type="line"/>
      <point x="494" y="690" type="line"/>
      <point x="461" y="455" type="line" smooth="yes"/>
      <point x="456" y="420"/>
      <point x="453" y="397"/>
      <point x="452" y="363" type="curve"/>
      <point x="444" y="326"/>
      <point x="439" y="297"/>
      <point x="434" y="264" type="curve" smooth="yes"/>
      <point x="397" y="0" type="line"/>
      <point x="421" y="0" type="line"/>
      <point x="458" y="262" type="line" smooth="yes"/>
      <point x="463" y="295"/>
      <point x="466" y="324"/>
      <point x="468" y="359" type="curve"/>
      <point x="477" y="395"/>
      <point x="480" y="418"/>
      <point x="485" y="453" type="curve" smooth="yes"/>
    </contour>
    <contour>
      <point x="624" y="371" type="line"/>
      <point x="468" y="371" type="line"/>
      <point x="465" y="349" type="line"/>
      <point x="621" y="349" type="line"/>
    </contour>
    <contour>
      <point x="885" y="690" type="curve"/>
      <point x="858" y="690" type="line"/>
      <point x="786" y="541"/>
      <point x="713" y="371"/>
      <point x="594" y="371" type="curve"/>
      <point x="590" y="349" type="line"/>
      <point x="715" y="350"/>
      <point x="738" y="197"/>
      <point x="780" y="0" type="curve"/>
      <point x="805" y="0" type="line"/>
      <point x="766" y="185"/>
      <point x="740" y="345"/>
      <point x="641" y="359" type="curve"/>
      <point x="641" y="361" type="line"/>
      <point x="741" y="371"/>
      <point x="818" y="549"/>
    </contour>
  </outline>
</glyph>
<glyph name="Ii-cy" format="2">
  <advance width="678"/>
  <unicode hex="0418"/>
  <anchor x="399" y="740" name="top"/>
  <outline>
    <contour>
      <point x="631" y="690" type="line"/>
      <point x="607" y="690" type="line"/>
      <point x="144" y="108" type="line" smooth="yes"/>
      <point x="129" y="89"/>
      <point x="109" y="60"/>
      <point x="94" y="42" type="curve"/>
      <point x="93" y="41" type="line"/>
      <point x="98" y="75"/>
      <point x="102" y="108"/>
      <point x="107" y="142" type="curve" smooth="yes"/>
      <point x="184" y="690" type="line"/>
      <point x="159" y="690" type="line"/>
      <point x="62" y="0" type="line"/>
      <point x="86" y="0" type="line"/>
      <point x="556" y="589" type="line" smooth="yes"/>
      <point x="571" y="607"/>
      <point x="585" y="629"/>
      <point x="599" y="648" type="curve"/>
      <point x="600" y="649" type="line"/>
      <point x="596" y="617"/>
      <point x="592" y="585"/>
      <point x="587" y="553" type="curve" smooth="yes"/>
      <point x="509" y="0" type="line"/>
      <point x="534" y="0" type="line"/>
    </contour>
  </outline>
</glyph>
<glyph name="Ka-cy" format="2">
  <advance width="571"/>
  <unicode hex="041A"/>
  <anchor x="361" y="740" name="top"/>
  <outline>
    <contour>
      <point x="569" y="689" type="curve"/>
      <point x="543" y="691" type="line"/>
      <point x="459" y="542"/>
      <point x="374" y="371"/>
      <point x="238" y="371" type="curve"/>
      <point x="234" y="349" type="line"/>
      <point x="385" y="350"/>
      <point x="411" y="187"/>
      <point x="462" y="0" type="curve"/>
      <point x="489" y="0" type="line"/>
      <point x="441" y="175"/>
      <point x="409" y="351"/>
      <point x="284" y="359" type="curve"/>
      <point x="286" y="361" type="line"/>
      <point x="402" y="371"/>
      <point x="490" y="548"/>
    </contour>
    <contour>
      <point x="183" y="690" type="line"/>
      <point x="159" y="690" type="line"/>
      <point x="62" y="0" type="line"/>
      <point x="86" y="0" type="line"/>
      <point x="123" y="262" type="line" smooth="yes"/>
      <point x="128" y="295"/>
      <point x="132" y="324"/>
      <point x="134" y="359" type="curve"/>
      <point x="141" y="395"/>
      <point x="145" y="418"/>
      <point x="150" y="453" type="curve" smooth="yes"/>
    </contour>
    <contour>
      <point x="268" y="371" type="line"/>
      <point x="123" y="371" type="line"/>
      <point x="120" y="349" type="line"/>
      <point x="265" y="349" type="line"/>
    </contour>
  </outline>
</glyph>
<glyph name="El-cy" format="2">
  <advance width="632"/>
  <unicode hex="041B"/>
  <guideline x="170" y="586" angle="0"/>
  <outline>
    <contour>
      <point x="571" y="690" type="line"/>
      <point x="361" y="690" type="line" smooth="yes"/>
      <point x="294" y="690"/>
      <point x="258" y="665"/>
      <point x="242" y="589" type="curve" smooth="yes"/>
      <point x="172" y="264"/>
      <point x="159" y="219"/>
      <point x="91" y="124" type="curve" smooth="yes"/>
      <point x="45" y="60"/>
      <point x="13" y="42"/>
      <point x="-25" y="23" type="curve"/>
      <point x="-22" y="0" type="line"/>
      <point x="30" y="18"/>
      <point x="76" y="60"/>
      <point x="113" y="111" type="curve" smooth="yes"/>
      <point x="187" y="214"/>
      <point x="202" y="285"/>
      <point x="265" y="583" type="curve" smooth="yes"/>
      <point x="279" y="648"/>
      <point x="309" y="668"/>
      <point x="364" y="668" type="curve" smooth="yes"/>
      <point x="568" y="668" type="line"/>
    </contour>
    <contour>
      <point x="585" y="690" type="line"/>
      <point x="560" y="690" type="line"/>
      <point x="463" y="0" type="line"/>
      <point x="488" y="0" type="line"/>
    </contour>
  </outline>
</glyph>
<glyph name="Em-cy" format="2">
  <advance width="855"/>
  <unicode hex="041C"/>
  <outline>
    <contour>
      <point x="776" y="690" type="curve" smooth="yes"/>
      <point x="734" y="690" type="line" smooth="yes"/>
      <point x="728" y="690"/>
      <point x="724" y="688"/>
      <point x="721" y="682" type="curve"/>
      <point x="460" y="179" type="line" smooth="yes"/>
      <point x="444" y="147"/>
      <point x="427" y="113"/>
      <point x="411" y="81" type="curve"/>
      <point x="384" y="81" type="line"/>
      <point x="376" y="112"/>
      <point x="370" y="144"/>
      <point x="362" y="175" type="curve" smooth="yes"/>
      <point x="242" y="680" type="line"/>
      <point x="241" y="686"/>
      <point x="235" y="690"/>
      <point x="229" y="690" type="curve" smooth="yes"/>
      <point x="188" y="690" type="line" smooth="yes"/>
      <point x="179" y="690"/>
      <point x="174" y="685"/>
      <point x="172" y="676" type="curve" smooth="yes"/>
      <point x="47" y="0" type="line"/>
      <point x="72" y="0" type="line"/>
      <point x="196" y="668" type="line"/>
      <point x="220" y="668" type="line"/>
      <point x="362" y="70" type="line" smooth="yes"/>
      <point x="363" y="64"/>
      <point x="369" y="60"/>
      <point x="375" y="60" type="curve" smooth="yes"/>
      <point x="417" y="60" type="line" smooth="yes"/>
      <point x="423" y="60"/>
      <point x="427" y="62"/>
      <point x="430" y="68" type="curve" smooth="yes"/>
      <point x="740" y="668" type="line"/>
      <point x="764" y="668" type="line"/>
      <point x="700" y="0" type="line"/>
      <point x="725" y="0" type="line"/>
      <point x="790" y="674" type="line" smooth="yes"/>
      <point x="791" y="683"/>
      <point x="785" y="690"/>
    </contour>
  </outline>
</glyph>
<glyph name="Pe-cy" format="2">
  <advance width="661"/>
  <unicode hex="041F"/>
  <outline>
    <contour>
      <point x="614" y="690" type="line"/>
      <point x="589" y="690" type="line"/>
      <point x="492" y="0" type="line"/>
      <point x="517" y="0" type="line"/>
    </contour>
    <contour>
      <point x="184" y="690" type="line"/>
      <point x="159" y="690" type="line"/>
      <point x="62" y="0" type="line"/>
      <point x="87" y="0" type="line"/>
    </contour>
    <contour>
      <point x="600" y="690" type="line"/>
      <point x="176" y="690" type="line"/>
      <point x="173" y="668" type="line"/>
      <point x="597" y="668" type="line"/>
    </contour>
  </outline>
</glyph>
<glyph name="Te-cy" format="2">
  <advance width="558"/>
  <unicode hex="0422"/>
  <outline>
    <contour>
      <point x="347" y="690" type="line"/>
      <point x="322" y="690" type="line"/>
      <point x="225" y="0" type="line"/>
      <point x="250" y="0" type="line"/>
    </contour>
    <contour>
      <point x="590" y="690" type="line"/>
      <point x="80" y="690" type="line"/>
      <point x="77" y="668" type="line"/>
      <point x="587" y="668" type="line"/>
    </contour>
  </outline>
</glyph>
<glyph name="Ef-cy" format="2">
  <advance width="819"/>
  <unicode hex="0424"/>
  <outline>
    <contour>
      <point x="458" y="652" type="curve" smooth="yes"/>
      <point x="214" y="652"/>
      <point x="114" y="576"/>
      <point x="83" y="357" type="curve" smooth="yes"/>
      <point x="52" y="136"/>
      <point x="132" y="58"/>
      <point x="378" y="58" type="curve" smooth="yes"/>
      <point x="623" y="58"/>
      <point x="723" y="134"/>
      <point x="754" y="353" type="curve" smooth="yes"/>
      <point x="785" y="574"/>
      <point x="705" y="652"/>
    </contour>
    <contour>
      <point x="459" y="630" type="curve" smooth="yes"/>
      <point x="685" y="630"/>
      <point x="757" y="566"/>
      <point x="728" y="357" type="curve" smooth="yes"/>
      <point x="699" y="146"/>
      <point x="606" y="80"/>
      <point x="378" y="80" type="curve" smooth="yes"/>
      <point x="153" y="80"/>
      <point x="79" y="142"/>
      <point x="109" y="353" type="curve" smooth="yes"/>
      <point x="139" y="566"/>
      <point x="232" y="630"/>
    </contour>
    <contour>
      <point x="488" y="758" type="line"/>
      <point x="463" y="758" type="line"/>
      <point x="447" y="646" type="line"/>
      <point x="446" y="635" type="line"/>
      <point x="367" y="74" type="line"/>
      <point x="366" y="66" type="line"/>
      <point x="350" y="-48" type="line"/>
      <point x="375" y="-48" type="line"/>
      <point x="391" y="66" type="line"/>
      <point x="392" y="74" type="line"/>
      <point x="471" y="635" type="line"/>
      <point x="472" y="646" type="line"/>
    </contour>
  </outline>
</glyph>
<glyph name="Sha-cy" format="2">
  <advance width="901"/>
  <unicode hex="0428"/>
  <outline>
    <contour>
      <point x="184" y="690" type="line"/>
      <point x="159" y="690" type="line"/>
      <point x="62" y="0" type="line"/>
      <point x="87" y="0" type="line"/>
    </contour>
    <contour>
      <point x="750" y="22" type="line"/>
      <point x="82" y="22" type="line"/>
      <point x="79" y="0" type="line"/>
      <point x="747" y="0" type="line"/>
    </contour>
    <contour>
      <point x="519" y="690" type="line"/>
      <point x="494" y="690" type="line"/>
      <point x="397" y="0" type="line"/>
      <point x="422" y="0" type="line"/>
    </contour>
    <contour>
      <point x="854" y="690" type="line"/>
      <point x="829" y="690" type="line"/>
      <point x="732" y="0" type="line"/>
      <point x="757" y="0" type="line"/>
    </contour>
  </outline>
</glyph>
<glyph name="Shcha-cy" format="2">
  <advance width="904"/>
  <unicode hex="0429"/>
  <outline>
    <contour>
      <point x="184" y="690" type="line"/>
      <point x="159" y="690" type="line"/>
      <point x="62" y="0" type="line"/>
      <point x="87" y="0" type="line"/>
    </contour>
    <contour>
      <point x="832" y="22" type="line"/>
      <point x="82" y="22" type="line"/>
      <point x="79" y="0" type="line"/>
      <point x="829" y="0" type="line"/>
    </contour>
    <contour>
      <point x="514" y="690" type="line"/>
      <point x="489" y="690" type="line"/>
      <point x="392" y="0" type="line"/>
      <point x="417" y="0" type="line"/>
    </contour>
    <contour>
      <point x="844" y="690" type="line"/>
      <point x="819" y="690" type="line"/>
      <point x="722" y="0" type="line"/>
      <point x="747" y="0" type="line"/>
    </contour>
    <contour>
      <point x="806" y="7" type="line"/>
      <point x="790" y="-151" type="line"/>
      <point x="808" y="-151" type="line"/>
      <point x="829" y="0" type="line"/>
    </contour>
  </outline>
</glyph>
<glyph name="Hardsign-cy" format="2">
  <advance width="735"/>
  <unicode hex="042A"/>
  <outline>
    <contour>
      <point x="485" y="384" type="curve" smooth="yes"/>
      <point x="280" y="384" type="line"/>
      <point x="277" y="361" type="line"/>
      <point x="484" y="361" type="line" smooth="yes"/>
      <point x="624" y="361"/>
      <point x="658" y="316"/>
      <point x="640" y="190" type="curve" smooth="yes"/>
      <point x="620" y="48"/>
      <point x="563" y="15"/>
      <point x="432" y="15" type="curve" smooth="yes"/>
      <point x="331" y="15"/>
      <point x="257" y="16"/>
      <point x="229" y="18" type="curve"/>
      <point x="214" y="0" type="line"/>
      <point x="284" y="-7"/>
      <point x="328" y="-8"/>
      <point x="433" y="-8" type="curve" smooth="yes"/>
      <point x="581" y="-8"/>
      <point x="644" y="32"/>
      <point x="665" y="186" type="curve" smooth="yes"/>
      <point x="685" y="328"/>
      <point x="644" y="384"/>
    </contour>
    <contour>
      <point x="335" y="690" type="line"/>
      <point x="310" y="690" type="line"/>
      <point x="213" y="0" type="line"/>
      <point x="238" y="0" type="line"/>
    </contour>
    <contour>
      <point x="323" y="690" type="line"/>
      <point x="77" y="690" type="line"/>
      <point x="74" y="668" type="line"/>
      <point x="320" y="668" type="line"/>
    </contour>
  </outline>
</glyph>
<glyph name="Yeru-cy" format="2">
  <advance width="809"/>
  <unicode hex="042B"/>
  <anchor x="468" y="690" name="top"/>
  <outline>
    <contour>
      <point x="334" y="384" type="curve" smooth="yes"/>
      <point x="129" y="384" type="line"/>
      <point x="126" y="361" type="line"/>
      <point x="333" y="361" type="line" smooth="yes"/>
      <point x="473" y="361"/>
      <point x="507" y="316"/>
      <point x="489" y="190" type="curve" smooth="yes"/>
      <point x="469" y="48"/>
      <point x="412" y="15"/>
      <point x="281" y="15" type="curve" smooth="yes"/>
      <point x="180" y="15"/>
      <point x="106" y="16"/>
      <point x="78" y="18" type="curve"/>
      <point x="63" y="0" type="line"/>
      <point x="133" y="-7"/>
      <point x="177" y="-8"/>
      <point x="282" y="-8" type="curve" smooth="yes"/>
      <point x="430" y="-8"/>
      <point x="493" y="32"/>
      <point x="514" y="186" type="curve" smooth="yes"/>
      <point x="534" y="328"/>
      <point x="493" y="384"/>
    </contour>
    <contour>
      <point x="184" y="690" type="line"/>
      <point x="159" y="690" type="line"/>
      <point x="62" y="0" type="line"/>
      <point x="87" y="0" type="line"/>
    </contour>
    <contour>
      <point x="762" y="690" type="line"/>
      <point x="737" y="690" type="line"/>
      <point x="640" y="0" type="line"/>
      <point x="665" y="0" type="line"/>
    </contour>
  </outline>
</glyph>
<glyph name="Ereversed-cy" format="2">
  <advance width="566"/>
  <unicode hex="042D"/>
  <anchor x="283" y="740" name="top"/>
  <outline>
    <contour>
      <point x="282" y="702" type="curve" smooth="yes"/>
      <point x="204" y="702"/>
      <point x="158" y="697"/>
      <point x="105" y="685" type="curve"/>
      <point x="110" y="667" type="line"/>
      <point x="167" y="676"/>
      <point x="207" y="679"/>
      <point x="283" y="679" type="curve" smooth="yes"/>
      <point x="459" y="679"/>
      <point x="508" y="594"/>
      <point x="473" y="347" type="curve" smooth="yes"/>
      <point x="438" y="98"/>
      <point x="363" y="11"/>
      <point x="185" y="11" type="curve" smooth="yes"/>
      <point x="106" y="11"/>
      <point x="60" y="15"/>
      <point x="10" y="24" type="curve"/>
      <point x="3" y="6" type="line"/>
      <point x="54" y="-6"/>
      <point x="101" y="-12"/>
      <point x="186" y="-12" type="curve" smooth="yes"/>
      <point x="381" y="-12"/>
      <point x="462" y="81"/>
      <point x="498" y="343" type="curve" smooth="yes"/>
      <point x="536" y="607"/>
      <point x="479" y="702"/>
    </contour>
    <contour>
      <point x="480" y="380" type="line"/>
      <point x="158" y="379" type="line"/>
      <point x="155" y="359" type="line"/>
      <point x="477" y="358" type="line"/>
    </contour>
  </outline>
</glyph>
<glyph name="Iu-cy" format="2">
  <advance width="891"/>
  <unicode hex="042E"/>
  <outline>
    <contour>
      <point x="617" y="702" type="curve" smooth="yes"/>
      <point x="436" y="702"/>
      <point x="361" y="609"/>
      <point x="324" y="347" type="curve" smooth="yes"/>
      <point x="287" y="83"/>
      <point x="338" y="-12"/>
      <point x="521" y="-12" type="curve" smooth="yes"/>
      <point x="709" y="-12"/>
      <point x="787" y="81"/>
      <point x="823" y="343" type="curve" smooth="yes"/>
      <point x="861" y="607"/>
      <point x="807" y="702"/>
    </contour>
    <contour>
      <point x="184" y="690" type="line"/>
      <point x="159" y="690" type="line"/>
      <point x="62" y="0" type="line"/>
      <point x="87" y="0" type="line"/>
    </contour>
    <contour>
      <point x="353" y="371" type="line"/>
      <point x="131" y="371" type="line"/>
      <point x="128" y="349" type="line"/>
      <point x="350" y="349" type="line"/>
    </contour>
    <contour>
      <point x="618" y="679" type="curve" smooth="yes"/>
      <point x="787" y="679"/>
      <point x="833" y="594"/>
      <point x="798" y="347" type="curve" smooth="yes"/>
      <point x="763" y="98"/>
      <point x="691" y="11"/>
      <point x="520" y="11" type="curve" smooth="yes"/>
      <point x="358" y="11"/>
      <point x="315" y="96"/>
      <point x="349" y="343" type="curve" smooth="yes"/>
      <point x="384" y="592"/>
      <point x="454" y="679"/>
    </contour>
  </outline>
</glyph>
<glyph name="ve-cy" format="2">
  <advance width="556"/>
  <unicode hex="0432"/>
  <outline>
    <contour>
      <point x="305" y="492" type="curve" smooth="yes"/>
      <point x="166" y="492"/>
      <point x="97" y="469"/>
      <point x="65" y="248" type="curve" smooth="yes"/>
      <point x="33" y="29"/>
      <point x="84" y="-12"/>
      <point x="254" y="-12" type="curve" smooth="yes"/>
      <point x="390" y="-12"/>
      <point x="452" y="13"/>
      <point x="467" y="117" type="curve" smooth="yes"/>
      <point x="479" y="207"/>
      <point x="450" y="262"/>
      <point x="354" y="266" type="curve"/>
      <point x="354" y="268" type="line"/>
      <point x="435" y="282"/>
      <point x="472" y="328"/>
      <point x="483" y="380" type="curve" smooth="yes"/>
      <point x="501" y="471"/>
      <point x="443" y="492"/>
    </contour>
    <contour>
      <point x="307" y="470" type="curve" smooth="yes"/>
      <point x="435" y="470"/>
      <point x="472" y="456"/>
      <point x="458" y="383" type="curve" smooth="yes"/>
      <point x="446" y="317"/>
      <point x="406" y="285"/>
      <point x="274" y="267" type="curve" smooth="yes"/>
      <point x="84" y="237" type="line"/>
      <point x="82" y="217" type="line"/>
      <point x="274" y="247" type="line" smooth="yes"/>
      <point x="415" y="270"/>
      <point x="455" y="218"/>
      <point x="442" y="122" type="curve" smooth="yes"/>
      <point x="428" y="31"/>
      <point x="377" y="10"/>
      <point x="251" y="10" type="curve" smooth="yes"/>
      <point x="100" y="10"/>
      <point x="59" y="42"/>
      <point x="88" y="245" type="curve" smooth="yes"/>
      <point x="118" y="455"/>
      <point x="177" y="470"/>
    </contour>
  </outline>
</glyph>
<glyph name="ge-cy" format="2">
  <advance width="507"/>
  <unicode hex="0433"/>
  <anchor x="281" y="558" name="top"/>
  <outline>
    <contour>
      <point x="285" y="492" type="curve" smooth="yes"/>
      <point x="220" y="489"/>
      <point x="146" y="479"/>
      <point x="83" y="460" type="curve"/>
      <point x="85" y="442" type="line"/>
      <point x="163" y="459"/>
      <point x="210" y="467"/>
      <point x="278" y="470" type="curve" smooth="yes"/>
      <point x="367" y="474"/>
      <point x="428" y="464"/>
      <point x="414" y="383" type="curve" smooth="yes"/>
      <point x="406" y="334"/>
      <point x="377" y="304"/>
      <point x="322" y="284" type="curve" smooth="yes"/>
      <point x="155" y="229" type="line" smooth="yes"/>
      <point x="76" y="200"/>
      <point x="45" y="164"/>
      <point x="37" y="103" type="curve" smooth="yes"/>
      <point x="24" y="-2"/>
      <point x="105" y="-12"/>
      <point x="197" y="-12" type="curve" smooth="yes"/>
      <point x="262" y="-12"/>
      <point x="336" y="-7"/>
      <point x="426" y="32" type="curve"/>
      <point x="423" y="50" type="line"/>
      <point x="334" y="19"/>
      <point x="278" y="11"/>
      <point x="201" y="11" type="curve" smooth="yes"/>
      <point x="110" y="11"/>
      <point x="49" y="22"/>
      <point x="62" y="104" type="curve" smooth="yes"/>
      <point x="71" y="162"/>
      <point x="105" y="186"/>
      <point x="151" y="203" type="curve" smooth="yes"/>
      <point x="317" y="258" type="line" smooth="yes"/>
      <point x="364" y="275"/>
      <point x="428" y="299"/>
      <point x="439" y="384" type="curve" smooth="yes"/>
      <point x="453" y="492"/>
      <point x="356" y="495"/>
    </contour>
  </outline>
</glyph>
<glyph name="de-cy" format="2">
  <advance width="555"/>
  <unicode hex="0434"/>
  <outline>
    <contour>
      <point x="169" y="709" type="curve"/>
      <point x="164" y="690" type="line"/>
      <point x="334" y="674"/>
      <point x="504" y="630"/>
      <point x="449" y="288" type="curve" smooth="yes"/>
      <point x="426" y="123"/>
      <point x="388" y="10"/>
      <point x="235" y="10" type="curve" smooth="yes"/>
      <point x="119" y="10"/>
      <point x="70" y="66"/>
      <point x="91" y="218" type="curve" smooth="yes"/>
      <point x="107" y="336"/>
      <point x="157" y="424"/>
      <point x="287" y="424" type="curve" smooth="yes"/>
      <point x="349" y="424"/>
      <point x="422" y="411"/>
      <point x="467" y="323" type="curve"/>
      <point x="474" y="338" type="line"/>
      <point x="429" y="432"/>
      <point x="349" y="446"/>
      <point x="291" y="446" type="curve" smooth="yes"/>
      <point x="149" y="446"/>
      <point x="86" y="359"/>
      <point x="67" y="223" type="curve" smooth="yes"/>
      <point x="43" y="58"/>
      <point x="99" y="-12"/>
      <point x="236" y="-12" type="curve" smooth="yes"/>
      <point x="417" y="-12"/>
      <point x="450" y="129"/>
      <point x="471" y="277" type="curve" smooth="yes"/>
      <point x="528" y="636"/>
      <point x="357" y="693"/>
    </contour>
  </outline>
</glyph>
<glyph name="zhe-cy" format="2">
  <advance width="761"/>
  <unicode hex="0436"/>
  <anchor x="707" y="0" name="bottomright"/>
  <anchor x="415" y="558" name="top"/>
  <outline>
    <contour>
      <point x="109" y="480" type="curve"/>
      <point x="85" y="480" type="line"/>
      <point x="116" y="376"/>
      <point x="149" y="264"/>
      <point x="238" y="252" type="curve"/>
      <point x="238" y="251" type="line"/>
      <point x="139" y="244"/>
      <point x="79" y="128"/>
      <point x="4" y="0" type="curve"/>
      <point x="31" y="0" type="line"/>
      <point x="111" y="134"/>
      <point x="163" y="241"/>
      <point x="277" y="240" type="curve"/>
      <point x="277" y="261" type="line"/>
      <point x="171" y="261"/>
      <point x="142" y="373"/>
    </contour>
    <contour>
      <point x="375" y="261" type="line"/>
      <point x="255" y="261" type="line"/>
      <point x="252" y="240" type="line"/>
      <point x="372" y="240" type="line"/>
    </contour>
    <contour>
      <point x="423" y="480" type="line"/>
      <point x="399" y="480" type="line"/>
      <point x="376" y="320" type="line" smooth="yes"/>
      <point x="372" y="294"/>
      <point x="370" y="277"/>
      <point x="371" y="253" type="curve"/>
      <point x="364" y="227"/>
      <point x="360" y="206"/>
      <point x="357" y="183" type="curve" smooth="yes"/>
      <point x="331" y="0" type="line"/>
      <point x="355" y="0" type="line"/>
      <point x="381" y="181" type="line" smooth="yes"/>
      <point x="384" y="204"/>
      <point x="386" y="225"/>
      <point x="386" y="249" type="curve"/>
      <point x="394" y="275"/>
      <point x="396" y="292"/>
      <point x="400" y="318" type="curve" smooth="yes"/>
    </contour>
    <contour>
      <point x="499" y="261" type="line"/>
      <point x="387" y="261" type="line"/>
      <point x="384" y="240" type="line"/>
      <point x="496" y="240" type="line"/>
    </contour>
    <contour>
      <point x="731" y="480" type="curve"/>
      <point x="705" y="480" type="line"/>
      <point x="642" y="373"/>
      <point x="578" y="261"/>
      <point x="475" y="261" type="curve"/>
      <point x="473" y="240" type="line"/>
      <point x="590" y="241"/>
      <point x="610" y="134"/>
      <point x="652" y="0" type="curve"/>
      <point x="676" y="0" type="line"/>
      <point x="637" y="128"/>
      <point x="611" y="240"/>
      <point x="516" y="250" type="curve"/>
      <point x="516" y="251" type="line"/>
      <point x="607" y="260"/>
      <point x="670" y="376"/>
    </contour>
  </outline>
</glyph>
<glyph name="ka-cy" format="2">
  <advance width="513"/>
  <unicode hex="043A"/>
  <anchor x="304" y="558" name="top"/>
  <outline>
    <contour>
      <point x="483" y="479" type="curve"/>
      <point x="457" y="481" type="line"/>
      <point x="389" y="374"/>
      <point x="323" y="261"/>
      <point x="210" y="261" type="curve"/>
      <point x="207" y="240" type="line"/>
      <point x="332" y="241"/>
      <point x="356" y="134"/>
      <point x="402" y="0" type="curve"/>
      <point x="429" y="0" type="line"/>
      <point x="386" y="128"/>
      <point x="355" y="243"/>
      <point x="250" y="250" type="curve"/>
      <point x="253" y="251" type="line"/>
      <point x="351" y="259"/>
      <point x="418" y="375"/>
    </contour>
    <contour>
      <point x="144" y="480" type="line"/>
      <point x="120" y="480" type="line"/>
      <point x="52" y="0" type="line"/>
      <point x="76" y="0" type="line"/>
      <point x="102" y="181" type="line" smooth="yes"/>
      <point x="105" y="204"/>
      <point x="108" y="225"/>
      <point x="108" y="249" type="curve"/>
      <point x="114" y="275"/>
      <point x="117" y="292"/>
      <point x="121" y="318" type="curve" smooth="yes"/>
    </contour>
    <contour>
      <point x="236" y="261" type="line"/>
      <point x="100" y="261" type="line"/>
      <point x="97" y="240" type="line"/>
      <point x="233" y="240" type="line"/>
    </contour>
  </outline>
</glyph>
<glyph name="el-cy" format="2">
  <advance width="536"/>
  <unicode hex="043B"/>
  <outline>
    <contour>
      <point x="457" y="480" type="line"/>
      <point x="294" y="480" type="line" smooth="yes"/>
      <point x="230" y="480"/>
      <point x="198" y="455"/>
      <point x="183" y="392" type="curve" smooth="yes"/>
      <point x="169" y="332"/>
      <point x="139" y="185"/>
      <point x="86" y="102" type="curve" smooth="yes"/>
      <point x="66" y="71"/>
      <point x="33" y="37"/>
      <point x="-15" y="17" type="curve"/>
      <point x="-12" y="-5" type="line"/>
      <point x="38" y="10"/>
      <point x="79" y="47"/>
      <point x="105" y="87" type="curve" smooth="yes"/>
      <point x="156" y="169"/>
      <point x="184" y="289"/>
      <point x="207" y="387" type="curve" smooth="yes"/>
      <point x="218" y="439"/>
      <point x="244" y="459"/>
      <point x="293" y="459" type="curve" smooth="yes"/>
      <point x="454" y="459" type="line"/>
    </contour>
    <contour>
      <point x="470" y="480" type="line"/>
      <point x="446" y="480" type="line"/>
      <point x="378" y="0" type="line"/>
      <point x="402" y="0" type="line"/>
    </contour>
  </outline>
</glyph>
<glyph name="en-cy" format="2">
  <advance width="564"/>
  <unicode hex="043D"/>
  <outline>
    <contour>
      <point x="144" y="480" type="line"/>
      <point x="120" y="480" type="line"/>
      <point x="52" y="0" type="line"/>
      <point x="76" y="0" type="line"/>
    </contour>
    <contour>
      <point x="453" y="267" type="line"/>
      <point x="108" y="267" type="line"/>
      <point x="105" y="246" type="line"/>
      <point x="450" y="246" type="line"/>
    </contour>
    <contour>
      <point x="498" y="480" type="line"/>
      <point x="474" y="480" type="line"/>
      <point x="406" y="0" type="line"/>
      <point x="430" y="0" type="line"/>
    </contour>
  </outline>
</glyph>
<glyph name="shcha-cy" format="2">
  <advance width="873"/>
  <unicode hex="0449"/>
  <outline>
    <contour>
      <point x="140" y="480" type="line"/>
      <point x="116" y="480" type="line"/>
      <point x="65" y="120" type="line" smooth="yes"/>
      <point x="53" y="34"/>
      <point x="90" y="-12"/>
      <point x="168" y="-12" type="curve" smooth="yes"/>
      <point x="236" y="-12"/>
      <point x="311" y="32"/>
      <point x="399" y="116" type="curve"/>
      <point x="398" y="140" type="line"/>
      <point x="304" y="55"/>
      <point x="241" y="11"/>
      <point x="172" y="11" type="curve" smooth="yes"/>
      <point x="107" y="11"/>
      <point x="78" y="45"/>
      <point x="89" y="121" type="curve" smooth="yes"/>
    </contour>
    <contour>
      <point x="467" y="480" type="line"/>
      <point x="443" y="480" type="line"/>
      <point x="392" y="120" type="line" smooth="yes"/>
      <point x="380" y="34"/>
      <point x="417" y="-12"/>
      <point x="495" y="-12" type="curve" smooth="yes"/>
      <point x="563" y="-12"/>
      <point x="638" y="32"/>
      <point x="726" y="116" type="curve"/>
      <point x="725" y="140" type="line"/>
      <point x="631" y="55"/>
      <point x="568" y="11"/>
      <point x="499" y="11" type="curve" smooth="yes"/>
      <point x="434" y="11"/>
      <point x="405" y="45"/>
      <point x="416" y="121" type="curve" smooth="yes"/>
    </contour>
    <contour>
      <point x="794" y="480" type="line"/>
      <point x="770" y="480" type="line"/>
      <point x="722" y="133" type="line"/>
      <point x="719" y="117" type="line"/>
      <point x="713" y="67" type="line" smooth="yes"/>
      <point x="707" y="19"/>
      <point x="731" y="0"/>
      <point x="768" y="0" type="curve" smooth="yes"/>
      <point x="796" y="0" type="line"/>
      <point x="799" y="21" type="line"/>
      <point x="772" y="21" type="line" smooth="yes"/>
      <point x="747" y="21"/>
      <point x="729" y="27"/>
      <point x="735" y="66" type="curve" smooth="yes"/>
    </contour>
    <contour>
      <point x="779" y="5" type="line"/>
      <point x="749" y="-149" type="line"/>
      <point x="772" y="-149" type="line"/>
      <point x="796" y="0" type="line"/>
    </contour>
  </outline>
</glyph>
<glyph name="yeru-cy" format="2">
  <advance width="665"/>
  <unicode hex="044B"/>
  <anchor x="362" y="558" name="top"/>
  <outline>
    <contour>
      <point x="142" y="480" type="line"/>
      <point x="118" y="480" type="line"/>
      <point x="63" y="108" type="line" smooth="yes"/>
      <point x="47" y="3"/>
      <point x="148" y="-12"/>
      <point x="235" y="-12" type="curve" smooth="yes"/>
      <point x="359" y="-12"/>
      <point x="407" y="18"/>
      <point x="423" y="129" type="curve" smooth="yes"/>
      <point x="438" y="235"/>
      <point x="401" y="273"/>
      <point x="263" y="273" type="curve" smooth="yes"/>
      <point x="210" y="273"/>
      <point x="147" y="267"/>
      <point x="87" y="208" type="curve"/>
      <point x="84" y="187" type="line"/>
      <point x="145" y="246"/>
      <point x="209" y="252"/>
      <point x="262" y="252" type="curve" smooth="yes"/>
      <point x="384" y="252"/>
      <point x="410" y="223"/>
      <point x="398" y="134" type="curve" smooth="yes"/>
      <point x="384" y="35"/>
      <point x="344" y="10"/>
      <point x="229" y="10" type="curve" smooth="yes"/>
      <point x="164" y="10"/>
      <point x="73" y="18"/>
      <point x="86" y="106" type="curve" smooth="yes"/>
    </contour>
    <contour>
      <point x="599" y="480" type="line"/>
      <point x="574" y="480" type="line"/>
      <point x="506" y="0" type="line"/>
      <point x="531" y="0" type="line"/>
    </contour>
  </outline>
</glyph>
<glyph name="ereversed-cy" format="2">
  <advance width="480"/>
  <unicode hex="044D"/>
  <anchor x="251" y="558" name="top"/>
  <outline>
    <contour>
      <point x="220" y="484" type="curve" smooth="yes"/>
      <point x="156" y="484"/>
      <point x="120" y="481"/>
      <point x="76" y="472" type="curve"/>
      <point x="80" y="453" type="line"/>
      <point x="127" y="459"/>
      <point x="159" y="461"/>
      <point x="221" y="461" type="curve" smooth="yes"/>
      <point x="362" y="461"/>
      <point x="400" y="408"/>
      <point x="379" y="240" type="curve" smooth="yes"/>
      <point x="357" y="66"/>
      <point x="297" y="15"/>
      <point x="154" y="15" type="curve" smooth="yes"/>
      <point x="90" y="15"/>
      <point x="54" y="18"/>
      <point x="12" y="24" type="curve"/>
      <point x="6" y="5" type="line"/>
      <point x="48" y="-4"/>
      <point x="86" y="-8"/>
      <point x="155" y="-8" type="curve" smooth="yes"/>
      <point x="314" y="-8"/>
      <point x="378" y="49"/>
      <point x="403" y="236" type="curve" smooth="yes"/>
      <point x="427" y="419"/>
      <point x="381" y="484"/>
    </contour>
    <contour>
      <point x="387" y="256" type="line"/>
      <point x="127" y="255" type="line"/>
      <point x="124" y="236" type="line"/>
      <point x="384" y="235" type="line"/>
    </contour>
  </outline>
</glyph>
<glyph name="iu-cy" format="2">
  <advance width="764"/>
  <unicode hex="044E"/>
  <outline>
    <contour>
      <point x="509" y="492" type="curve" smooth="yes"/>
      <point x="355" y="492"/>
      <point x="293" y="430"/>
      <point x="267" y="244" type="curve" smooth="yes"/>
      <point x="240" y="54"/>
      <point x="286" y="-8"/>
      <point x="441" y="-8" type="curve" smooth="yes"/>
      <point x="596" y="-8"/>
      <point x="662" y="55"/>
      <point x="688" y="240" type="curve" smooth="yes"/>
      <point x="714" y="428"/>
      <point x="665" y="492"/>
    </contour>
    <contour>
      <point x="144" y="480" type="line"/>
      <point x="120" y="480" type="line"/>
      <point x="52" y="0" type="line"/>
      <point x="76" y="0" type="line"/>
    </contour>
    <contour>
      <point x="292" y="259" type="line"/>
      <point x="106" y="259" type="line"/>
      <point x="103" y="238" type="line"/>
      <point x="289" y="238" type="line"/>
    </contour>
    <contour>
      <point x="508" y="470" type="curve" smooth="yes"/>
      <point x="639" y="470"/>
      <point x="688" y="419"/>
      <point x="663" y="244" type="curve" smooth="yes"/>
      <point x="639" y="77"/>
      <point x="583" y="14"/>
      <point x="439" y="14" type="curve" smooth="yes"/>
      <point x="304" y="14"/>
      <point x="268" y="70"/>
      <point x="292" y="240" type="curve" smooth="yes"/>
      <point x="317" y="419"/>
      <point x="376" y="470"/>
    </contour>
  </outline>
</glyph>
<glyph name="ia-cy" format="2">
  <advance width="523"/>
  <unicode hex="044F"/>
  <outline>
    <contour>
      <point x="298" y="482" type="curve" smooth="yes"/>
      <point x="155" y="482"/>
      <point x="102" y="461"/>
      <point x="86" y="348" type="curve" smooth="yes"/>
      <point x="77" y="285"/>
      <point x="104" y="216"/>
      <point x="169" y="209" type="curve"/>
      <point x="168" y="206" type="line"/>
      <point x="135" y="202"/>
      <point x="88" y="188"/>
      <point x="70" y="140" type="curve" smooth="yes"/>
      <point x="18" y="0" type="line"/>
      <point x="45" y="0" type="line"/>
      <point x="92" y="130" type="line" smooth="yes"/>
      <point x="111" y="182"/>
      <point x="158" y="195"/>
      <point x="222" y="195" type="curve" smooth="yes"/>
      <point x="315" y="195"/>
      <point x="397" y="195"/>
      <point x="409" y="195" type="curve"/>
      <point x="409" y="216" type="line"/>
      <point x="222" y="216" type="line" smooth="yes"/>
      <point x="114" y="216"/>
      <point x="104" y="291"/>
      <point x="111" y="344" type="curve" smooth="yes"/>
      <point x="124" y="447"/>
      <point x="173" y="460"/>
      <point x="294" y="460" type="curve" smooth="yes"/>
      <point x="331" y="460"/>
      <point x="429" y="459"/>
      <point x="442" y="457" type="curve"/>
      <point x="455" y="476" type="line"/>
      <point x="395" y="481"/>
      <point x="330" y="482"/>
    </contour>
    <contour>
      <point x="456" y="476" type="line"/>
      <point x="432" y="476" type="line"/>
      <point x="365" y="0" type="line"/>
      <point x="389" y="0" type="line"/>
    </contour>
  </outline>
</glyph>
<glyph name="dje-cy" format="2">
  <advance width="588"/>
  <unicode hex="0452"/>
  <outline>
    <contour>
      <point x="377" y="392" type="curve" smooth="yes"/>
      <point x="302" y="392"/>
      <point x="220" y="344"/>
      <point x="127" y="266" type="curve"/>
      <point x="126" y="243" type="line"/>
      <point x="230" y="326"/>
      <point x="298" y="369"/>
      <point x="373" y="369" type="curve" smooth="yes"/>
      <point x="446" y="369"/>
      <point x="477" y="335"/>
      <point x="466" y="259" type="curve" smooth="yes"/>
      <point x="424" y="-44" type="line" smooth="yes"/>
      <point x="415" y="-109"/>
      <point x="387" y="-155"/>
      <point x="347" y="-200" type="curve"/>
      <point x="359" y="-210" type="line"/>
      <point x="405" y="-165"/>
      <point x="439" y="-112"/>
      <point x="448" y="-47" type="curve" smooth="yes"/>
      <point x="490" y="260" type="line" smooth="yes"/>
      <point x="502" y="346"/>
      <point x="463" y="392"/>
    </contour>
    <contour>
      <point x="192" y="700" type="line"/>
      <point x="168" y="700" type="line"/>
      <point x="69" y="0" type="line"/>
      <point x="93" y="0" type="line"/>
      <point x="129" y="250" type="line"/>
      <point x="128" y="265" type="line"/>
      <point x="137" y="302"/>
      <point x="139" y="323"/>
      <point x="144" y="358" type="curve" smooth="yes"/>
    </contour>
    <contour>
      <point x="388" y="531" type="line"/>
      <point x="63" y="531" type="line"/>
      <point x="60" y="511" type="line"/>
      <point x="385" y="511" type="line"/>
    </contour>
  </outline>
</glyph>
<glyph name="e-cy" format="2">
  <advance width="480"/>
  <unicode hex="0454"/>
  <outline>
    <contour>
      <point x="310" y="484" type="curve" smooth="yes"/>
      <point x="151" y="484"/>
      <point x="87" y="422"/>
      <point x="62" y="240" type="curve" smooth="yes"/>
      <point x="37" y="58"/>
      <point x="84" y="-8"/>
      <point x="245" y="-8" type="curve" smooth="yes"/>
      <point x="312" y="-8"/>
      <point x="352" y="-4"/>
      <point x="396" y="5" type="curve"/>
      <point x="392" y="24" type="line"/>
      <point x="348" y="18"/>
      <point x="310" y="15"/>
      <point x="244" y="15" type="curve" smooth="yes"/>
      <point x="103" y="15"/>
      <point x="63" y="71"/>
      <point x="86" y="237" type="curve" smooth="yes"/>
      <point x="110" y="408"/>
      <point x="167" y="461"/>
      <point x="311" y="461" type="curve" smooth="yes"/>
      <point x="371" y="461"/>
      <point x="403" y="459"/>
      <point x="448" y="453" type="curve"/>
      <point x="454" y="472" type="line"/>
      <point x="412" y="481"/>
      <point x="376" y="484"/>
    </contour>
    <contour>
      <point x="83" y="256" type="line"/>
      <point x="80" y="235" type="line"/>
      <point x="340" y="236" type="line"/>
      <point x="343" y="255" type="line"/>
    </contour>
  </outline>
</glyph>
<glyph name="je-cy" format="2">
  <advance width="219"/>
  <unicode hex="0458"/>
  <outline>
    <contour>
      <point x="148" y="480" type="line"/>
      <point x="124" y="480" type="line"/>
      <point x="50" y="-45" type="line" smooth="yes"/>
      <point x="41" y="-110"/>
      <point x="13" y="-155"/>
      <point x="-27" y="-200" type="curve"/>
      <point x="-15" y="-210" type="line"/>
      <point x="31" y="-165"/>
      <point x="65" y="-112"/>
      <point x="74" y="-47" type="curve" smooth="yes"/>
    </contour>
    <contour>
      <point x="168" y="679" type="curve" smooth="yes"/>
      <point x="158" y="679" type="line"/>
      <point x="150" y="679"/>
      <point x="146" y="676"/>
      <point x="145" y="668" type="curve" smooth="yes"/>
      <point x="136" y="606" type="line"/>
      <point x="135" y="598"/>
      <point x="140" y="593"/>
      <point x="148" y="593" type="curve" smooth="yes"/>
      <point x="158" y="593" type="line"/>
      <point x="166" y="593"/>
      <point x="169" y="596"/>
      <point x="170" y="604" type="curve" smooth="yes"/>
      <point x="179" y="666" type="line"/>
      <point x="180" y="674"/>
      <point x="176" y="679"/>
    </contour>
  </outline>
</glyph>
<glyph name="nje-cy" format="2">
  <advance width="785"/>
  <unicode hex="045A"/>
  <outline>
    <contour>
      <point x="458" y="480" type="line"/>
      <point x="434" y="480" type="line"/>
      <point x="379" y="108" type="line" smooth="yes"/>
      <point x="364" y="3"/>
      <point x="458" y="-12"/>
      <point x="536" y="-12" type="curve" smooth="yes"/>
      <point x="651" y="-12"/>
      <point x="695" y="18"/>
      <point x="709" y="129" type="curve" smooth="yes"/>
      <point x="722" y="235"/>
      <point x="689" y="273"/>
      <point x="564" y="273" type="curve" smooth="yes"/>
      <point x="514" y="273"/>
      <point x="461" y="267"/>
      <point x="403" y="208" type="curve"/>
      <point x="400" y="187" type="line"/>
      <point x="459" y="246"/>
      <point x="513" y="252"/>
      <point x="563" y="252" type="curve" smooth="yes"/>
      <point x="672" y="252"/>
      <point x="694" y="223"/>
      <point x="684" y="134" type="curve" smooth="yes"/>
      <point x="672" y="35"/>
      <point x="636" y="10"/>
      <point x="530" y="10" type="curve" smooth="yes"/>
      <point x="470" y="10"/>
      <point x="390" y="18"/>
      <point x="402" y="106" type="curve" smooth="yes"/>
    </contour>
    <contour>
      <point x="144" y="480" type="line"/>
      <point x="120" y="480" type="line"/>
      <point x="52" y="0" type="line"/>
      <point x="76" y="0" type="line"/>
    </contour>
    <contour>
      <point x="411" y="276" type="line"/>
      <point x="109" y="276" type="line"/>
      <point x="106" y="256" type="line"/>
      <point x="408" y="256" type="line"/>
    </contour>
  </outline>
</glyph>
<glyph name="dzhe-cy" format="2">
  <advance width="556"/>
  <unicode hex="045F"/>
  <outline>
    <contour>
      <point x="265" y="-38" type="line"/>
      <point x="248" y="-38" type="line"/>
      <point x="224" y="-203" type="line"/>
      <point x="247" y="-203" type="line"/>
    </contour>
    <component base="u"/>
  </outline>
</glyph>
<glyph name="yat-cy" format="2">
  <advance width="490"/>
  <unicode hex="0463"/>
  <outline>
    <contour>
      <point x="235" y="-12" type="curve" smooth="yes"/>
      <point x="359" y="-12"/>
      <point x="407" y="18"/>
      <point x="423" y="129" type="curve" smooth="yes"/>
      <point x="438" y="235"/>
      <point x="401" y="273"/>
      <point x="263" y="273" type="curve" smooth="yes"/>
      <point x="210" y="273"/>
      <point x="147" y="267"/>
      <point x="87" y="208" type="curve"/>
      <point x="84" y="187" type="line"/>
      <point x="145" y="246"/>
      <point x="209" y="252"/>
      <point x="262" y="252" type="curve" smooth="yes"/>
      <point x="384" y="252"/>
      <point x="410" y="223"/>
      <point x="398" y="134" type="curve" smooth="yes"/>
      <point x="384" y="35"/>
      <point x="344" y="10"/>
      <point x="229" y="10" type="curve" smooth="yes"/>
      <point x="164" y="10"/>
      <point x="73" y="18"/>
      <point x="86" y="106" type="curve" smooth="yes"/>
      <point x="173" y="690" type="line"/>
      <point x="149" y="690" type="line"/>
      <point x="63" y="108" type="line" smooth="yes"/>
      <point x="47" y="3"/>
      <point x="148" y="-12"/>
    </contour>
    <contour>
      <point x="24" y="460" type="line"/>
      <point x="332" y="460" type="line"/>
      <point x="335" y="480" type="line"/>
      <point x="27" y="480" type="line"/>
    </contour>
  </outline>
</glyph>
<glyph name="Yusbig-cy" format="2">
  <advance width="837"/>
  <unicode hex="046A"/>
  <outline>
    <contour>
      <point x="-20" y="0" type="curve"/>
      <point x="7" y="0" type="line"/>
      <point x="175" y="308"/>
      <point x="216" y="347"/>
      <point x="409" y="347" type="curve"/>
      <point x="404" y="318"/>
      <point x="399" y="289"/>
      <point x="395" y="263" type="curve" smooth="yes"/>
      <point x="359" y="0" type="line"/>
      <point x="383" y="0" type="line"/>
      <point x="419" y="263" type="line" smooth="yes"/>
      <point x="423" y="289"/>
      <point x="426" y="318"/>
      <point x="429" y="347" type="curve"/>
      <point x="622" y="347"/>
      <point x="653" y="308"/>
      <point x="735" y="0" type="curve"/>
      <point x="762" y="0" type="line"/>
      <point x="683" y="281"/>
      <point x="664" y="367"/>
      <point x="442" y="367" type="curve"/>
      <point x="442" y="369" type="line"/>
      <point x="821" y="690" type="line"/>
      <point x="105" y="690" type="line"/>
      <point x="402" y="369" type="line"/>
      <point x="402" y="367" type="line"/>
      <point x="180" y="367"/>
      <point x="137" y="281"/>
    </contour>
    <contour>
      <point x="424" y="380" type="line"/>
      <point x="157" y="668" type="line"/>
      <point x="762" y="668" type="line"/>
    </contour>
  </outline>
</glyph>
<glyph name="Fita-cy" format="2">
  <advance width="660"/>
  <unicode hex="0472"/>
  <outline>
    <contour>
      <point x="94" y="338" type="line"/>
      <point x="574" y="338" type="line"/>
      <point x="574" y="360" type="line"/>
      <point x="94" y="360" type="line"/>
    </contour>
    <component base="O-cy"/>
  </outline>
</glyph>
<glyph name="izhitsa-cy" format="2">
  <advance width="533"/>
  <unicode hex="0475"/>
  <outline>
    <contour>
      <point x="200" y="0" type="curve" smooth="yes"/>
      <point x="238" y="0" type="line" smooth="yes"/>
      <point x="243" y="0"/>
      <point x="250" y="3"/>
      <point x="251" y="8" type="curve" smooth="yes"/>
      <point x="456" y="414" type="line" smooth="yes"/>
      <point x="479" y="461"/>
      <point x="500" y="472"/>
      <point x="543" y="472" type="curve" smooth="yes"/>
      <point x="548" y="472"/>
      <point x="553" y="472"/>
      <point x="557" y="472" type="curve"/>
      <point x="559" y="491" type="line"/>
      <point x="553" y="492"/>
      <point x="546" y="493"/>
      <point x="539" y="493" type="curve" smooth="yes"/>
      <point x="476" y="493"/>
      <point x="451" y="463"/>
      <point x="433" y="424" type="curve" smooth="yes"/>
      <point x="262" y="74" type="line" smooth="yes"/>
      <point x="242" y="32"/>
      <point x="244" y="39"/>
      <point x="233" y="21" type="curve"/>
      <point x="210" y="21" type="line"/>
      <point x="207" y="38"/>
      <point x="201" y="55"/>
      <point x="197" y="73" type="curve" smooth="yes"/>
      <point x="87" y="483" type="line"/>
      <point x="59" y="483" type="line"/>
      <point x="188" y="8" type="line" smooth="yes"/>
      <point x="190" y="3"/>
      <point x="194" y="0"/>
    </contour>
  </outline>
</glyph>
<glyph name="Iishorttail-cy" format="2">
  <advance width="678"/>
  <unicode hex="048A"/>
  <outline>
    <contour>
      <point x="514" y="22" type="line"/>
      <point x="511" y="0" type="line"/>
      <point x="575" y="0" type="line"/>
      <point x="524" y="-151" type="line"/>
      <point x="543" y="-151" type="line"/>
      <point x="600" y="3" type="line"/>
      <point x="603" y="22" type="line"/>
    </contour>
    <component base="Ii-cy"/>
    <component base="brevecomb-cy" xOffset="60" yOffset="260"/>
  </outline>
</glyph>
<glyph name="Ertick-cy" format="2">
  <advance width="570"/>
  <unicode hex="048E"/>
  <outline>
    <contour>
      <point x="379" y="698" type="curve" smooth="yes"/>
      <point x="277" y="698"/>
      <point x="230" y="697"/>
      <point x="159" y="690" type="curve"/>
      <point x="172" y="672" type="line"/>
      <point x="199" y="674"/>
      <point x="278" y="675"/>
      <point x="380" y="675" type="curve" smooth="yes"/>
      <point x="506" y="675"/>
      <point x="546" y="639"/>
      <point x="526" y="497" type="curve" smooth="yes"/>
      <point x="506" y="353"/>
      <point x="454" y="317"/>
      <point x="326" y="315" type="curve" smooth="yes"/>
      <point x="258" y="315"/>
      <point x="184" y="315"/>
      <point x="119" y="315" type="curve"/>
      <point x="115" y="297" type="line"/>
      <point x="137" y="295"/>
      <point x="219" y="292"/>
      <point x="326" y="292" type="curve" smooth="yes"/>
      <point x="471" y="292"/>
      <point x="529" y="335"/>
      <point x="552" y="494" type="curve" smooth="yes"/>
      <point x="574" y="653"/>
      <point x="526" y="698"/>
    </contour>
    <contour>
      <point x="184" y="690" type="line"/>
      <point x="159" y="690" type="line"/>
      <point x="62" y="0" type="line"/>
      <point x="87" y="0" type="line"/>
    </contour>
    <contour>
      <point x="369" y="431" type="line"/>
      <point x="558" y="242" type="line"/>
      <point x="573" y="258" type="line"/>
      <point x="384" y="447" type="line"/>
    </contour>
  </outline>
</glyph>
<glyph name="ertick-cy" format="2">
  <advance width="606"/>
  <unicode hex="048F"/>
  <outline>
    <contour>
      <point x="308" y="135" type="line"/>
      <point x="461" y="-84" type="line"/>
      <point x="479" y="-71" type="line"/>
      <point x="325" y="148" type="line"/>
    </contour>
    <contour>
      <point x="368" y="492" type="curve" smooth="yes"/>
      <point x="306" y="492"/>
      <point x="203" y="449"/>
      <point x="118" y="352" type="curve"/>
      <point x="118" y="325" type="line"/>
      <point x="201" y="418"/>
      <point x="303" y="469"/>
      <point x="368" y="469" type="curve" smooth="yes"/>
      <point x="469" y="469"/>
      <point x="479" y="401"/>
      <point x="456" y="242" type="curve" smooth="yes"/>
      <point x="428" y="51"/>
      <point x="390" y="10"/>
      <point x="228" y="10" type="curve" smooth="yes"/>
      <point x="176" y="10"/>
      <point x="134" y="14"/>
      <point x="62" y="18" type="curve"/>
      <point x="52" y="0" type="line"/>
      <point x="115" y="-7"/>
      <point x="173" y="-12"/>
      <point x="231" y="-12" type="curve" smooth="yes"/>
      <point x="404" y="-12"/>
      <point x="450" y="38"/>
      <point x="480" y="238" type="curve" smooth="yes"/>
      <point x="506" y="412"/>
      <point x="490" y="492"/>
    </contour>
    <contour>
      <point x="138" y="480" type="line"/>
      <point x="120" y="480" type="line"/>
      <point x="21" y="-220" type="line"/>
      <point x="45" y="-220" type="line"/>
      <point x="63" y="-94" type="line" smooth="yes"/>
      <point x="68" y="-59"/>
      <point x="71" y="-36"/>
      <point x="73" y="-1" type="curve"/>
      <point x="79" y="16" type="line"/>
      <point x="124" y="343" type="line"/>
      <point x="123" y="347" type="line"/>
    </contour>
  </outline>
</glyph>
<glyph name="Ghestroke-cy" format="2">
  <advance width="537"/>
  <unicode hex="0492"/>
  <outline>
    <contour>
      <point x="21" y="336" type="line"/>
      <point x="392" y="336" type="line"/>
      <point x="396" y="359" type="line"/>
      <point x="25" y="359" type="line"/>
    </contour>
    <component base="Ge-cy" xOffset="35"/>
  </outline>
</glyph>
<glyph name="zhedescender-cy" format="2">
  <advance width="771"/>
  <unicode hex="0497"/>
  <outline>
    <contour>
      <point x="720" y="21" type="line"/>
      <point x="659" y="21" type="line"/>
      <point x="656" y="0" type="line"/>
      <point x="694" y="0" type="line"/>
      <point x="680" y="-143" type="line"/>
      <point x="697" y="-143" type="line"/>
    </contour>
    <component base="zhe-cy"/>
  </outline>
</glyph>
<glyph name="kadescender-cy" format="2">
  <advance width="513"/>
  <unicode hex="049B"/>
  <outline>
    <contour>
      <point x="468" y="21" type="line"/>
      <point x="407" y="21" type="line"/>
      <point x="404" y="0" type="line"/>
      <point x="442" y="0" type="line"/>
      <point x="428" y="-143" type="line"/>
      <point x="445" y="-143" type="line"/>
    </contour>
    <component base="ka-cy"/>
  </outline>
</glyph>
<glyph name="Kastroke-cy" format="2">
  <advance width="606"/>
  <unicode hex="049E"/>
  <outline>
    <contour>
      <point x="72" y="600" type="line"/>
      <point x="333" y="600" type="line"/>
      <point x="335" y="623" type="line"/>
      <point x="74" y="623" type="line"/>
    </contour>
    <component base="Ka-cy" xOffset="38"/>
  </outline>
</glyph>
<glyph name="kastroke-cy" format="2">
  <advance width="517"/>
  <unicode hex="049F"/>
  <outline>
    <contour>
      <point x="476" y="480" type="curve"/>
      <point x="450" y="480" type="line"/>
      <point x="382" y="373"/>
      <point x="317" y="261"/>
      <point x="204" y="261" type="curve"/>
      <point x="199" y="240" type="line"/>
      <point x="324" y="241"/>
      <point x="349" y="134"/>
      <point x="396" y="0" type="curve"/>
      <point x="423" y="0" type="line"/>
      <point x="380" y="128"/>
      <point x="350" y="243"/>
      <point x="245" y="250" type="curve"/>
      <point x="245" y="251" type="line"/>
      <point x="343" y="259"/>
      <point x="411" y="376"/>
    </contour>
    <contour>
      <point x="166" y="690" type="line"/>
      <point x="142" y="690" type="line"/>
      <point x="46" y="0" type="line"/>
      <point x="70" y="0" type="line"/>
      <point x="95" y="182" type="line" smooth="yes"/>
      <point x="98" y="205"/>
      <point x="101" y="226"/>
      <point x="102" y="251" type="curve"/>
      <point x="107" y="276"/>
      <point x="111" y="293"/>
      <point x="114" y="319" type="curve" smooth="yes"/>
    </contour>
    <contour>
      <point x="229" y="261" type="line"/>
      <point x="93" y="261" type="line"/>
      <point x="90" y="240" type="line"/>
      <point x="226" y="240" type="line"/>
    </contour>
    <contour>
      <point x="341" y="581" type="line"/>
      <point x="46" y="581" type="line"/>
      <point x="43" y="561" type="line"/>
      <point x="338" y="561" type="line"/>
    </contour>
  </outline>
</glyph>
<glyph name="Kabashkir-cy" format="2">
  <advance width="723"/>
  <unicode hex="04A0"/>
  <outline>
    <contour>
      <point x="333" y="690" type="line"/>
      <point x="73" y="690" type="line"/>
      <point x="69" y="668" type="line"/>
      <point x="329" y="668" type="line"/>
    </contour>
    <component base="Ka-cy" xOffset="155"/>
  </outline>
</glyph>
<glyph name="kabashkir-cy" format="2">
  <advance width="607"/>
  <unicode hex="04A1"/>
  <outline>
    <contour>
      <point x="581" y="480" type="curve"/>
      <point x="555" y="480" type="line"/>
      <point x="487" y="373"/>
      <point x="422" y="261"/>
      <point x="309" y="261" type="curve"/>
      <point x="304" y="240" type="line"/>
      <point x="429" y="241"/>
      <point x="454" y="134"/>
      <point x="500" y="0" type="curve"/>
      <point x="527" y="0" type="line"/>
      <point x="484" y="128"/>
      <point x="454" y="243"/>
      <point x="349" y="250" type="curve"/>
      <point x="350" y="251" type="line"/>
      <point x="448" y="259"/>
      <point x="516" y="376"/>
    </contour>
    <contour>
      <point x="242" y="480" type="line"/>
      <point x="218" y="480" type="line"/>
      <point x="150" y="0" type="line"/>
      <point x="174" y="0" type="line"/>
      <point x="200" y="182" type="line" smooth="yes"/>
      <point x="203" y="205"/>
      <point x="206" y="226"/>
      <point x="207" y="251" type="curve"/>
      <point x="212" y="276"/>
      <point x="215" y="293"/>
      <point x="219" y="319" type="curve" smooth="yes"/>
    </contour>
    <contour>
      <point x="334" y="261" type="line"/>
      <point x="198" y="261" type="line"/>
      <point x="195" y="240" type="line"/>
      <point x="331" y="240" type="line"/>
    </contour>
    <contour>
      <point x="34" y="480" type="line"/>
      <point x="31" y="458" type="line"/>
      <point x="228" y="458" type="line"/>
      <point x="231" y="480" type="line"/>
    </contour>
  </outline>
</glyph>
<glyph name="endescender-cy" format="2">
  <advance width="564"/>
  <unicode hex="04A3"/>
  <outline>
    <contour>
      <point x="470" y="21" type="line"/>
      <point x="409" y="21" type="line"/>
      <point x="406" y="0" type="line"/>
      <point x="444" y="0" type="line"/>
      <point x="430" y="-143" type="line"/>
      <point x="447" y="-143" type="line"/>
    </contour>
    <component base="en-cy"/>
  </outline>
</glyph>
<glyph name="Pemiddlehook-cy" format="2">
  <advance width="1011"/>
  <unicode hex="04A6"/>
  <outline>
    <contour>
      <point x="642" y="-141" type="line"/>
      <point x="815" y="-135"/>
      <point x="905" y="-61"/>
      <point x="937" y="169" type="curve" smooth="yes"/>
      <point x="967" y="382"/>
      <point x="900" y="432"/>
      <point x="802" y="432" type="curve" smooth="yes"/>
      <point x="718" y="432"/>
      <point x="645" y="404"/>
      <point x="553" y="342" type="curve"/>
      <point x="550" y="319" type="line"/>
      <point x="636" y="373"/>
      <point x="701" y="409"/>
      <point x="796" y="409" type="curve" smooth="yes"/>
      <point x="882" y="409"/>
      <point x="940" y="370"/>
      <point x="912" y="168" type="curve" smooth="yes"/>
      <point x="880" y="-60"/>
      <point x="791" y="-110"/>
      <point x="642" y="-122" type="curve"/>
    </contour>
    <contour>
      <point x="62" y="0" type="line"/>
      <point x="87" y="0" type="line"/>
      <point x="184" y="690" type="line"/>
      <point x="159" y="690" type="line"/>
    </contour>
    <contour>
      <point x="492" y="0" type="line"/>
      <point x="517" y="0" type="line"/>
      <point x="614" y="690" type="line"/>
      <point x="589" y="690" type="line"/>
    </contour>
    <contour>
      <point x="173" y="668" type="line"/>
      <point x="597" y="668" type="line"/>
      <point x="600" y="690" type="line"/>
      <point x="176" y="690" type="line"/>
    </contour>
  </outline>
</glyph>
<glyph name="Haabkhasian-cy" format="2">
  <advance width="864"/>
  <unicode hex="04A8"/>
  <outline>
    <contour>
      <point x="382" y="683" type="curve"/>
      <point x="386" y="707" type="line"/>
      <point x="240" y="707"/>
      <point x="116" y="634"/>
      <point x="82" y="335" type="curve" smooth="yes"/>
      <point x="55" y="99"/>
      <point x="116" y="-12"/>
      <point x="333" y="-12" type="curve" smooth="yes"/>
      <point x="513" y="-12"/>
      <point x="702" y="65"/>
      <point x="759" y="390" type="curve" smooth="yes"/>
      <point x="798" y="612"/>
      <point x="731" y="700"/>
      <point x="603" y="700" type="curve" smooth="yes"/>
      <point x="479" y="700"/>
      <point x="383" y="617"/>
      <point x="358" y="384" type="curve" smooth="yes"/>
      <point x="326" y="85"/>
      <point x="459" y="-12"/>
      <point x="646" y="-12" type="curve" smooth="yes"/>
      <point x="727" y="-12"/>
      <point x="767" y="6"/>
      <point x="782" y="14" type="curve"/>
      <point x="779" y="29" type="line"/>
      <point x="744" y="17"/>
      <point x="710" y="10"/>
      <point x="659" y="10" type="curve" smooth="yes"/>
      <point x="474" y="10"/>
      <point x="356" y="102"/>
      <point x="384" y="381" type="curve" smooth="yes"/>
      <point x="406" y="599"/>
      <point x="491" y="677"/>
      <point x="600" y="677" type="curve" smooth="yes"/>
      <point x="707" y="677"/>
      <point x="770" y="601"/>
      <point x="733" y="388" type="curve" smooth="yes"/>
      <point x="682" y="95"/>
      <point x="522" y="11"/>
      <point x="339" y="11" type="curve" smooth="yes"/>
      <point x="141" y="11"/>
      <point x="83" y="109"/>
      <point x="108" y="336" type="curve" smooth="yes"/>
      <point x="139" y="610"/>
      <point x="246" y="683"/>
    </contour>
  </outline>
</glyph>
<glyph name="haabkhasian-cy" format="2">
  <advance width="667"/>
  <unicode hex="04A9"/>
  <outline>
    <contour>
      <point x="298" y="470" type="curve"/>
      <point x="301" y="491" type="line"/>
      <point x="158" y="491"/>
      <point x="87" y="431"/>
      <point x="63" y="256" type="curve" smooth="yes"/>
      <point x="37" y="75"/>
      <point x="100" y="-8"/>
      <point x="268" y="-8" type="curve" smooth="yes"/>
      <point x="411" y="-8"/>
      <point x="564" y="51"/>
      <point x="598" y="292" type="curve" smooth="yes"/>
      <point x="617" y="427"/>
      <point x="577" y="493"/>
      <point x="470" y="493" type="curve" smooth="yes"/>
      <point x="363" y="493"/>
      <point x="305" y="426"/>
      <point x="285" y="288" type="curve" smooth="yes"/>
      <point x="253" y="60"/>
      <point x="365" y="-8"/>
      <point x="509" y="-8" type="curve" smooth="yes"/>
      <point x="577" y="-8"/>
      <point x="614" y="13"/>
      <point x="633" y="26" type="curve"/>
      <point x="627" y="39" type="line"/>
      <point x="596" y="21"/>
      <point x="552" y="11"/>
      <point x="514" y="11" type="curve" smooth="yes"/>
      <point x="396" y="11"/>
      <point x="276" y="59"/>
      <point x="308" y="285" type="curve" smooth="yes"/>
      <point x="326" y="411"/>
      <point x="376" y="472"/>
      <point x="467" y="472" type="curve" smooth="yes"/>
      <point x="558" y="472"/>
      <point x="591" y="412"/>
      <point x="574" y="290" type="curve" smooth="yes"/>
      <point x="541" y="60"/>
      <point x="405" y="12"/>
      <point x="271" y="12" type="curve" smooth="yes"/>
      <point x="126" y="12"/>
      <point x="63" y="83"/>
      <point x="87" y="256" type="curve" smooth="yes"/>
      <point x="109" y="415"/>
      <point x="170" y="470"/>
    </contour>
  </outline>
</glyph>
<glyph name="Esdescender-cy" format="2">
  <advance width="557"/>
  <unicode hex="04AA"/>
  <outline>
    <contour>
      <point x="306" y="7" type="line"/>
      <point x="282" y="7" type="line"/>
      <point x="263" y="-151" type="line"/>
      <point x="281" y="-151" type="line"/>
    </contour>
    <contour>
      <point x="386" y="702" type="curve" smooth="yes"/>
      <point x="198" y="702"/>
      <point x="120" y="609"/>
      <point x="83" y="347" type="curve" smooth="yes"/>
      <point x="46" y="83"/>
      <point x="100" y="-12"/>
      <point x="290" y="-12" type="curve" smooth="yes"/>
      <point x="373" y="-12"/>
      <point x="424" y="-6"/>
      <point x="479" y="6" type="curve"/>
      <point x="474" y="24" type="line"/>
      <point x="420" y="15"/>
      <point x="370" y="11"/>
      <point x="289" y="11" type="curve" smooth="yes"/>
      <point x="118" y="11"/>
      <point x="74" y="96"/>
      <point x="108" y="343" type="curve" smooth="yes"/>
      <point x="143" y="592"/>
      <point x="209" y="679"/>
      <point x="387" y="679" type="curve" smooth="yes"/>
      <point x="461" y="679"/>
      <point x="497" y="676"/>
      <point x="552" y="667" type="curve"/>
      <point x="559" y="685" type="line"/>
      <point x="508" y="697"/>
      <point x="466" y="702"/>
    </contour>
  </outline>
</glyph>
<glyph name="esdescender-cy" format="2">
  <advance width="475"/>
  <unicode hex="04AB"/>
  <outline>
    <contour>
      <point x="239" y="5" type="line"/>
      <point x="212" y="5" type="line"/>
      <point x="194" y="-168" type="line"/>
      <point x="211" y="-168" type="line"/>
    </contour>
    <component base="c"/>
  </outline>
</glyph>
<glyph name="tedescender-cy" format="2">
  <advance width="876"/>
  <unicode hex="04AD"/>
  <outline>
    <contour>
      <point x="138" y="480" type="line"/>
      <point x="120" y="480" type="line"/>
      <point x="52" y="0" type="line"/>
      <point x="76" y="0" type="line"/>
      <point x="124" y="342" type="line"/>
      <point x="123" y="360" type="line"/>
    </contour>
    <contour>
      <point x="349" y="492" type="curve" smooth="yes"/>
      <point x="280" y="492"/>
      <point x="208" y="441"/>
      <point x="122" y="362" type="curve"/>
      <point x="121" y="339" type="line"/>
      <point x="218" y="424"/>
      <point x="280" y="469"/>
      <point x="345" y="469" type="curve" smooth="yes"/>
      <point x="418" y="469"/>
      <point x="449" y="437"/>
      <point x="438" y="359" type="curve" smooth="yes"/>
      <point x="387" y="0" type="line"/>
      <point x="411" y="0" type="line"/>
      <point x="462" y="360" type="line" smooth="yes"/>
      <point x="474" y="446"/>
      <point x="435" y="492"/>
    </contour>
    <contour>
      <point x="683" y="492" type="curve" smooth="yes"/>
      <point x="614" y="492"/>
      <point x="542" y="441"/>
      <point x="456" y="362" type="curve"/>
      <point x="455" y="339" type="line"/>
      <point x="552" y="424"/>
      <point x="614" y="469"/>
      <point x="679" y="469" type="curve" smooth="yes"/>
      <point x="752" y="469"/>
      <point x="783" y="437"/>
      <point x="772" y="359" type="curve" smooth="yes"/>
      <point x="721" y="0" type="line"/>
      <point x="745" y="0" type="line"/>
      <point x="796" y="360" type="line" smooth="yes"/>
      <point x="808" y="446"/>
      <point x="769" y="492"/>
    </contour>
    <contour>
      <point x="786" y="21" type="line"/>
      <point x="725" y="21" type="line"/>
      <point x="722" y="0" type="line"/>
      <point x="760" y="0" type="line"/>
      <point x="746" y="-143" type="line"/>
      <point x="763" y="-143" type="line"/>
    </contour>
  </outline>
</glyph>
<glyph name="Ustrait-cy" format="2">
  <advance width="535"/>
  <unicode hex="04AE"/>
  <outline>
    <contour>
      <point x="569" y="690" type="line"/>
      <point x="541" y="690" type="line"/>
      <point x="314" y="357" type="line" smooth="yes"/>
      <point x="300" y="336"/>
      <point x="282" y="309"/>
      <point x="267" y="287" type="curve"/>
      <point x="261" y="287" type="line"/>
      <point x="252" y="309"/>
      <point x="242" y="334"/>
      <point x="233" y="356" type="curve" smooth="yes"/>
      <point x="99" y="690" type="line"/>
      <point x="73" y="690" type="line"/>
      <point x="251" y="251" type="line"/>
      <point x="269" y="250" type="line"/>
    </contour>
    <contour>
      <point x="277" y="281" type="line"/>
      <point x="252" y="281" type="line"/>
      <point x="212" y="0" type="line"/>
      <point x="237" y="0" type="line"/>
    </contour>
  </outline>
</glyph>
<glyph name="ustrait-cy" format="2">
  <advance width="560"/>
  <unicode hex="04AF"/>
  <outline>
    <contour>
      <point x="553" y="480" type="line"/>
      <point x="525" y="480" type="line"/>
      <point x="298" y="147" type="line" smooth="yes"/>
      <point x="284" y="126"/>
      <point x="266" y="99"/>
      <point x="251" y="77" type="curve"/>
      <point x="245" y="77" type="line"/>
      <point x="236" y="99"/>
      <point x="226" y="124"/>
      <point x="217" y="146" type="curve" smooth="yes"/>
      <point x="83" y="480" type="line"/>
      <point x="57" y="480" type="line"/>
      <point x="235" y="41" type="line"/>
      <point x="253" y="40" type="line"/>
    </contour>
    <contour>
      <point x="261" y="71" type="line"/>
      <point x="236" y="71" type="line"/>
      <point x="196" y="-210" type="line"/>
      <point x="221" y="-210" type="line"/>
    </contour>
  </outline>
</glyph>
<glyph name="hadescender-cy" format="2">
  <advance width="501"/>
  <unicode hex="04B3"/>
  <outline>
    <contour>
      <point x="465" y="21" type="line"/>
      <point x="404" y="21" type="line"/>
      <point x="401" y="0" type="line"/>
      <point x="439" y="0" type="line"/>
      <point x="425" y="-143" type="line"/>
      <point x="442" y="-143" type="line"/>
    </contour>
    <component base="x"/>
  </outline>
</glyph>
